SplineFontDB: 3.2
FontName: ArmannisOldish
FullName: Armannis Oldish
FamilyName: Armannis Oldish
Weight: Regular
Copyright: (c) 2026, Daniel Stelzer
UComments: "2026-2-17: Created with FontForge (http://fontforge.org)"
Version: 1.2.0
ItalicAngle: 0
UnderlinePosition: -100
UnderlineWidth: 50
Ascent: 800
Descent: 200
InvalidEm: 0
LayerCount: 2
Layer: 0 0 "Back" 1
Layer: 1 0 "Fore" 0
XUID: [1021 517 891274653 8104475]
OS2Version: 0
OS2_WeightWidthSlopeOnly: 0
OS2_UseTypoMetrics: 1
CreationTime: 1771384084
ModificationTime: 1771384206
OS2TypoAscent: 0
OS2TypoAOffset: 1
OS2TypoDescent: 0
OS2TypoDOffset: 1
OS2TypoLinegap: 0
OS2WinAscent: 0
OS2WinAOffset: 1
OS2WinDescent: 0
OS2WinDOffset: 1
HheadAscent: 0
HheadAOffset: 1
HheadDescent: 0
HheadDOffset: 1
OS2Vendor: 'PfEd'
Lookup: 4 0 1 "ligatures" { "ligsubtable"  } ['liga' ('latn' <'dflt' > 'xsux' <'dflt' > ) ]
DEI: 91125
Encoding: ISO8859-1
UnicodeInterp: none
NameList: AGL For New Fonts
DisplaySize: -48
AntiAlias: 1
FitToEm: 0
BeginChars: 694 438

StartChar: U12038
Encoding: 256 73784 0
Width: 1250
VWidth: 100
Flags: W
HStem: 275 50<176.463 1149.8>
LayerCount: 2
Fore
SplineSet
123.505859375 491.623046875 m 0
 124.0078125 491.653320312 124.474609375 491.66796875 124.984375 491.66796875 c 0
 126.70703125 491.66796875 128.389648438 491.493164062 130.015625 491.16015625 c 0
 138.801757812 489.362304688 145.926757812 482.954101562 148.720703125 474.57421875 c 0
 164.936523438 425.926757812 174.169921875 375.583007812 176.462890625 325 c 1
 1125.00390625 325 l 2
 1138.80175781 325 1150.00390625 313.797851562 1150.00390625 300 c 0
 1150.00390625 286.202148438 1138.80175781 275 1125.00390625 275 c 2
 176.462890625 275 l 1
 174.169921875 224.416992188 164.936523438 174.073242188 148.720703125 125.42578125 c 0
 145.41015625 115.495117188 136.036132812 108.338867188 125 108.338867188 c 0
 122.23828125 108.338867188 119.58203125 108.787109375 117.09765625 109.615234375 c 0
 107.166992188 112.92578125 100.010742188 122.299804688 100.010742188 133.3359375 c 0
 100.010742188 136.09765625 100.458984375 138.75390625 101.287109375 141.23828125 c 0
 118.462890625 192.765625 127.051757812 246.37890625 127.052734375 299.9921875 c 0
 127.051757812 299.995117188 127.051757812 299.997070312 127.05078125 300 c 0
 127.051757812 300.002929688 127.051757812 300.004882812 127.052734375 300.0078125 c 0
 127.051757812 353.62109375 118.462890625 407.234375 101.287109375 458.76171875 c 0
 100.458984375 461.24609375 100 463.900390625 100 466.661132812 c 0
 100 477.698242188 107.166992188 487.07421875 117.09765625 490.384765625 c 0
 119.123046875 491.059570312 121.288085938 491.490234375 123.505859375 491.623046875 c 0
EndSplineSet
EndChar

StartChar: U12224
Encoding: 257 74276 1
Width: 1750
VWidth: 100
Flags: W
HStem: -224.984 45.7871<1610.17 1638.87> 275 50<176.463 459.736 509.795 564.648 635.359 850.004 900.004 1064.65 1135.36 1155.56 1205.64 1377.78 1427.78 1649.8> 510.679 47.3857<131.432 177.97 631.432 677.97> 720.911 49.9949<1144.24 1439.1> 776.283 48.7207<933.528 1021.06 1562.28 1648.56>
VStem: 100.011 48.71<109.775 214.859 385.141 490.225> 127.053 49.4102<155.268 275 325 444.732> 366.939 47.3467<747.034 793.572> 850.004 50<-224.799 275> 866.939 47.3467<747.034 793.572> 1155.56 50<325 724.352> 1339.78 49.1162<118.293 198.357> 1377.78 50<325 724.352>
LayerCount: 2
Fore
SplineSet
959.833984375 824.955078125 m 0xfb60
 962.051757812 824.822265625 964.216796875 824.391601562 966.2421875 823.716796875 c 0
 1071.86328125 788.509277344 1181.76660156 770.905517578 1291.66992188 770.905517578 c 0
 1401.57324219 770.905517578 1511.4765625 788.509277344 1617.09765625 823.716796875 c 0
 1619.58203125 824.544921875 1622.23632812 825.00390625 1624.99707031 825.00390625 c 0
 1636.03417969 825.00390625 1645.41015625 817.836914062 1648.72070312 807.90625 c 0
 1649.54882812 805.421875 1650.0078125 802.767578125 1650.0078125 800.006835938 c 0
 1650.0078125 788.969726562 1642.84082031 779.59375 1632.91015625 776.283203125 c 0
 1565.85058594 753.9296875 1497.13867188 738.390625 1427.78125 729.572265625 c 1
 1427.78125 325 l 1xfb68
 1625.00390625 325 l 2
 1638.80175781 325 1650.00390625 313.797851562 1650.00390625 300 c 0
 1650.00390625 286.202148438 1638.80175781 275 1625.00390625 275 c 2
 1208.22460938 275 l 1
 1194.80761719 229.42578125 1175.62402344 186.047851562 1151.35546875 145.810546875 c 1
 1286.48046875 55.7265625 l 1
 1309.69824219 94.6181640625 1327.71289062 136.701171875 1339.78320312 180.95703125 c 0
 1342.12304688 189.538085938 1348.9296875 196.291015625 1357.54101562 198.556640625 c 0
 1359.57519531 199.091796875 1361.69433594 199.375976562 1363.89453125 199.375976562 c 0
 1366.17382812 199.375976562 1368.38183594 199.0703125 1370.48046875 198.498046875 c 0
 1381.08789062 195.60546875 1388.89941406 185.905273438 1388.89941406 174.385742188 c 0
 1388.89941406 172.107421875 1388.59375 169.899414062 1388.02148438 167.80078125 c 0
 1374.52832031 118.329101562 1354.28417969 71.318359375 1328.1328125 27.958984375 c 1
 1328.1328125 27.958984375 1638.81494474 -179.197266043 1638.87109001 -179.197266043 c 0
 1638.87109375 -179.197265625 l 0
 1645.59570312 -183.6796875 1649.98925781 -191.34375 1649.98925781 -200.024414062 c 0
 1649.98925781 -205.141601562 1648.44824219 -209.90234375 1645.8046875 -213.8671875 c 0
 1641.32226562 -220.590820312 1633.65820312 -224.984375 1624.97851562 -224.984375 c 0
 1619.86132812 -224.984375 1615.10058594 -223.443359375 1611.13671875 -220.80078125 c 2
 1300.3984375 -13.642578125 l 1
 1270.43261719 -54.4580078125 1234.82617188 -91.2255859375 1194.34960938 -122.70703125 c 0
 1190.11523438 -126.000976562 1184.78613281 -127.993164062 1179.01171875 -127.993164062 c 0
 1170.98730469 -127.993164062 1163.84082031 -124.204101562 1159.265625 -118.3203125 c 0
 1155.97265625 -114.0859375 1153.98046875 -108.7578125 1153.98046875 -102.983398438 c 0
 1153.98046875 -94.9599609375 1157.76855469 -87.814453125 1163.65234375 -83.23828125 c 0
 1199.86035156 -55.0771484375 1231.77636719 -22.263671875 1258.74609375 14.125 c 1
 1123.62109375 104.208984375 l 1
 1093.65527344 63.3935546875 1058.046875 26.6259765625 1017.5703125 -4.85546875 c 0
 1013.3359375 -8.1484375 1008.0078125 -10.140625 1002.23339844 -10.140625 c 0
 994.209960938 -10.140625 987.064453125 -6.3525390625 982.48828125 -0.46875 c 0
 979.1953125 3.765625 977.203125 9.09375 977.203125 14.8681640625 c 0
 977.203125 22.8916015625 980.991210938 30.037109375 986.875 34.61328125 c 0
 1029.74707031 67.9580078125 1066.6328125 107.801757812 1096.37304688 152.41015625 c 0
 1096.37402344 152.413085938 1096.37402344 152.415039062 1096.375 152.41796875 c 0
 1096.37695312 152.419921875 1096.37890625 152.421875 1096.38085938 152.423828125 c 0
 1121.57324219 190.212890625 1141.61523438 231.431640625 1155.84960938 275 c 1
 900.00390625 275 l 1
 900.00390625 -200 l 2
 900.00390625 -213.797851562 888.801757812 -225 875.00390625 -225 c 0
 861.206054688 -225 850.00390625 -213.797851562 850.00390625 -200 c 2
 850.00390625 275 l 1
 509.794921875 275 l 1
 507.501953125 224.416992188 498.268554688 174.073242188 482.052734375 125.42578125 c 0
 478.7421875 115.495117188 469.368164062 108.338867188 458.33203125 108.338867188 c 0
 455.5703125 108.338867188 452.9140625 108.787109375 450.4296875 109.615234375 c 0
 440.499023438 112.92578125 433.342773438 122.299804688 433.342773438 133.3359375 c 0
 433.342773438 136.09765625 433.791015625 138.75390625 434.619140625 141.23828125 c 0
 449.125 184.755859375 457.48046875 229.762695312 459.736328125 275 c 1
 176.462890625 275 l 1xfbb0
 174.169921875 224.416992188 164.936523438 174.073242188 148.720703125 125.42578125 c 0
 145.41015625 115.495117188 136.036132812 108.338867188 125 108.338867188 c 0
 122.23828125 108.338867188 119.58203125 108.787109375 117.09765625 109.615234375 c 0
 107.166992188 112.92578125 100.010742188 122.299804688 100.010742188 133.3359375 c 0xfd20
 100.010742188 136.09765625 100.458984375 138.75390625 101.287109375 141.23828125 c 0
 118.462890625 192.765625 127.051757812 246.37890625 127.052734375 299.9921875 c 0
 127.051757812 299.995117188 127.051757812 299.997070312 127.05078125 300 c 0
 127.051757812 300.002929688 127.051757812 300.004882812 127.052734375 300.0078125 c 0xfb20
 127.051757812 353.62109375 118.462890625 407.234375 101.287109375 458.76171875 c 0
 100.458984375 461.24609375 100 463.900390625 100 466.661132812 c 0
 100 477.698242188 107.166992188 487.07421875 117.09765625 490.384765625 c 0
 119.58203125 491.212890625 122.223632812 491.666992188 124.985351562 491.666992188 c 0
 126.708007812 491.666992188 128.390625 491.493164062 130.015625 491.16015625 c 0
 138.801757812 489.362304688 145.926757812 482.954101562 148.720703125 474.57421875 c 0xfd20
 164.936523438 425.926757812 174.169921875 375.583007812 176.462890625 325 c 1
 459.736328125 325 l 1
 457.576171875 368.333984375 449.794921875 411.451171875 436.392578125 453.255859375 c 1
 290.158203125 599.490234375 l 1
 252.76953125 565.34375 210.641601562 536.274414062 164.77734375 513.341796875 c 0
 161.41796875 511.662109375 157.620117188 510.678710938 153.612304688 510.678710938 c 0
 143.822265625 510.678710938 135.338867188 516.318359375 131.236328125 524.5234375 c 0
 129.556640625 527.8828125 128.573242188 531.680664062 128.573242188 535.688476562 c 0
 128.573242188 545.478515625 134.212890625 553.961914062 142.41796875 558.064453125 c 0
 239.583007812 606.647460938 318.357421875 685.420898438 366.939453125 782.5859375 c 0
 370.828125 790.36328125 378.659179688 795.8125 387.802734375 796.361328125 c 0
 388.305664062 796.391601562 388.815429688 796.391601562 389.325195312 796.391601562 c 0
 393.333007812 796.391601562 397.122070312 795.446289062 400.48046875 793.767578125 c 0
 408.685546875 789.665039062 414.286132812 781.171875 414.286132812 771.381835938 c 0
 414.286132812 767.374023438 413.341796875 763.5859375 411.662109375 760.2265625 c 0
 388.729492188 714.362304688 359.66015625 672.234375 325.513671875 634.845703125 c 1
 635.359375 325 l 1
 1064.6484375 325 l 1
 790.158203125 599.490234375 l 1
 752.76953125 565.34375 710.641601562 536.274414062 664.77734375 513.341796875 c 0
 661.41796875 511.662109375 657.620117188 510.678710938 653.612304688 510.678710938 c 0
 643.822265625 510.678710938 635.338867188 516.318359375 631.236328125 524.5234375 c 0
 629.556640625 527.8828125 628.573242188 531.680664062 628.573242188 535.688476562 c 0
 628.573242188 545.478515625 634.212890625 553.961914062 642.41796875 558.064453125 c 0
 739.583007812 606.647460938 818.357421875 685.420898438 866.939453125 782.5859375 c 0
 870.828125 790.36328125 878.659179688 795.8125 887.802734375 796.361328125 c 0
 888.305664062 796.391601562 888.815429688 796.391601562 889.325195312 796.391601562 c 0
 893.333007812 796.391601562 897.122070312 795.446289062 900.48046875 793.767578125 c 0
 908.685546875 789.665039062 914.286132812 781.171875 914.286132812 771.381835938 c 0
 914.286132812 767.374023438 913.341796875 763.5859375 911.662109375 760.2265625 c 0
 888.729492188 714.362304688 859.66015625 672.234375 825.513671875 634.845703125 c 1
 1135.359375 325 l 1
 1155.55859375 325 l 1
 1155.55859375 729.572265625 l 1
 1086.20117188 738.390625 1017.48925781 753.9296875 950.4296875 776.283203125 c 0
 940.499023438 779.59375 933.342773438 788.967773438 933.342773438 800.00390625 c 0
 933.342773438 802.765625 933.791015625 805.421875 934.619140625 807.90625 c 0
 937.413085938 816.286132812 944.538085938 822.694335938 953.32421875 824.4921875 c 0
 954.950195312 824.825195312 956.59375 825 958.31640625 825 c 0
 958.826171875 825 959.33203125 824.985351562 959.833984375 824.955078125 c 0xfb60
1205.55859375 724.3515625 m 1
 1205.55859375 325 l 1
 1377.78125 325 l 1
 1377.78125 724.3515625 l 1
 1349.12353516 722.057617188 1320.39672852 720.910644531 1291.66992188 720.910644531 c 0
 1262.94311523 720.910644531 1234.21630859 722.057617188 1205.55859375 724.3515625 c 1
503.62109375 386.02734375 m 1
 506.814453125 365.787109375 508.870117188 345.4140625 509.794921875 325 c 1
 564.6484375 325 l 1
 503.62109375 386.02734375 l 1
EndSplineSet
EndChar

StartChar: U1202e
Encoding: 258 73774 2
Width: 1250
VWidth: 100
Flags: W
HStem: -2.77734 50<200.652 422.787 478.43 933.336> 219.445 50<200.652 422.787 478.43 933.336> 442.951 48.209<766.808 874.201 1042.47 1148.56> 776.283 48.209<766.808 873.196 1043.48 1148.56>
VStem: 100.011 48.71<-223.557 -137.275 403.943 490.225> 154.098 49.9949<-14.0973 280.765> 377.788 48.71<-223.557 -135.014 401.682 490.225> 422.787 50.4219<-115.823 -2.77734 47.2227 131.987 134.681 219.445 269.445 382.491> 431.845 50.0256<48.5659 218.102> 933.336 50<-224.799 -2.77734 47.2227 219.445 269.445 415.209 465.268 748.541>
LayerCount: 2
Fore
SplineSet
1124.81445312 825 m 0xfd40
 1124.87890625 825 1124.93261719 825.004882812 1124.99707031 825.004882812 c 0
 1136.03417969 825.004882812 1145.41015625 817.836914062 1148.72070312 807.90625 c 0
 1149.54882812 805.421875 1150.0078125 802.767578125 1150.0078125 800.006835938 c 0
 1150.0078125 788.969726562 1142.84082031 779.59375 1132.91015625 776.283203125 c 0
 1084.26367188 760.067382812 1033.91992188 750.833984375 983.3359375 748.541015625 c 1
 983.3359375 465.267578125 l 1
 1028.57421875 467.522460938 1073.58105469 475.87890625 1117.09765625 490.384765625 c 0
 1119.58203125 491.212890625 1122.23632812 491.671875 1124.99707031 491.671875 c 0
 1136.03417969 491.671875 1145.41015625 484.504882812 1148.72070312 474.57421875 c 0
 1149.54882812 472.08984375 1150.0078125 469.435546875 1150.0078125 466.674804688 c 0
 1150.0078125 455.637695312 1142.84082031 446.26171875 1132.91015625 442.951171875 c 0
 1084.26367188 426.734375 1033.91992188 417.501953125 983.3359375 415.208984375 c 1
 983.3359375 -200 l 2
 983.3359375 -213.797851562 972.133789062 -225 958.3359375 -225 c 0
 944.538085938 -225 933.3359375 -213.797851562 933.3359375 -200 c 2
 933.3359375 -2.77734375 l 1
 473.208984375 -2.77734375 l 1xfd40
 464.390625 -72.134765625 448.8515625 -140.846679688 426.498046875 -207.90625 c 0
 423.1875 -217.836914062 413.813476562 -224.993164062 402.77734375 -224.993164062 c 0
 400.015625 -224.993164062 397.359375 -224.544921875 394.875 -223.716796875 c 0
 384.944335938 -220.40625 377.788085938 -211.032226562 377.788085938 -199.99609375 c 0xfe40
 377.788085938 -197.235351562 378.236328125 -194.578125 379.064453125 -192.09375 c 0
 399.705078125 -130.173828125 414.247070312 -66.77734375 422.787109375 -2.77734375 c 1
 195.431640625 -2.77734375 l 1
 186.61328125 -72.134765625 171.07421875 -140.846679688 148.720703125 -207.90625 c 0
 145.41015625 -217.836914062 136.036132812 -224.993164062 125 -224.993164062 c 0
 122.23828125 -224.993164062 119.58203125 -224.544921875 117.09765625 -223.716796875 c 0
 107.166992188 -220.40625 100.010742188 -211.032226562 100.010742188 -199.99609375 c 0
 100.010742188 -197.235351562 100.458984375 -194.578125 101.287109375 -192.09375 c 0
 136.494628906 -86.47265625 154.098388672 23.4306640625 154.098388672 133.333984375 c 0
 154.098388672 243.237304688 136.494628906 353.140625 101.287109375 458.76171875 c 0
 100.458984375 461.24609375 100 463.900390625 100 466.661132812 c 0
 100 477.698242188 107.166992188 487.07421875 117.09765625 490.384765625 c 0
 119.58203125 491.212890625 122.223632812 491.666992188 124.985351562 491.666992188 c 0
 126.708007812 491.666992188 128.390625 491.493164062 130.015625 491.16015625 c 0
 138.801757812 489.362304688 145.926757812 482.954101562 148.720703125 474.57421875 c 0
 171.07421875 407.514648438 186.61328125 338.802734375 195.431640625 269.4453125 c 1
 422.787109375 269.4453125 l 1xfd40
 414.247070312 333.4453125 399.705078125 396.841796875 379.064453125 458.76171875 c 0
 378.236328125 461.24609375 377.77734375 463.900390625 377.77734375 466.661132812 c 0
 377.77734375 477.698242188 384.944335938 487.07421875 394.875 490.384765625 c 0
 397.359375 491.212890625 400.000976562 491.666992188 402.762695312 491.666992188 c 0
 404.485351562 491.666992188 406.16796875 491.493164062 407.79296875 491.16015625 c 0
 416.579101562 489.362304688 423.704101562 482.954101562 426.498046875 474.57421875 c 0xfe40
 448.8515625 407.514648438 464.390625 338.802734375 473.208984375 269.4453125 c 1
 933.3359375 269.4453125 l 1
 933.3359375 415.208984375 l 1
 882.75390625 417.501953125 832.411132812 426.735351562 783.765625 442.951171875 c 0
 773.834960938 446.26171875 766.678710938 455.635742188 766.678710938 466.671875 c 0
 766.678710938 469.43359375 767.126953125 472.08984375 767.955078125 474.57421875 c 0
 770.749023438 482.954101562 777.874023438 489.362304688 786.66015625 491.16015625 c 0
 788.28515625 491.493164062 789.953125 491.661132812 791.676757812 491.661132812 c 0
 794.4375 491.661132812 797.09375 491.212890625 799.578125 490.384765625 c 0
 843.092773438 475.87890625 888.099609375 467.5234375 933.3359375 465.267578125 c 1
 933.3359375 748.541015625 l 1
 882.75390625 750.833984375 832.411132812 760.067382812 783.765625 776.283203125 c 0
 773.834960938 779.59375 766.678710938 788.967773438 766.678710938 800.00390625 c 0
 766.678710938 802.765625 767.126953125 805.421875 767.955078125 807.90625 c 0
 770.749023438 816.286132812 777.874023438 822.694335938 786.66015625 824.4921875 c 0
 788.28515625 824.825195312 789.953125 824.993164062 791.676757812 824.993164062 c 0
 794.4375 824.993164062 797.09375 824.544921875 799.578125 823.716796875 c 0
 851.102539062 806.541015625 904.71484375 797.952148438 958.328125 797.951171875 c 0
 958.331054688 797.952148438 958.333007812 797.952148438 958.3359375 797.953125 c 0
 958.342773438 797.952148438 958.348632812 797.952148438 958.35546875 797.951171875 c 0
 1011.96582031 797.953125 1065.57617188 806.541992188 1117.09765625 823.716796875 c 0
 1119.5234375 824.525390625 1122.12304688 824.979492188 1124.81445312 825 c 0xfd40
200.65234375 219.4453125 m 1
 202.946289062 190.787597656 204.093261719 162.060791016 204.093261719 133.333984375 c 0
 204.093261719 104.607177734 202.946289062 75.8803710938 200.65234375 47.22265625 c 1
 428.236328125 47.22265625 l 1
 430.642089844 75.8759765625 431.844970703 104.604980469 431.844970703 133.333984375 c 0xfcc0
 431.844970703 162.062988281 430.642089844 190.791992188 428.236328125 219.4453125 c 1
 200.65234375 219.4453125 l 1
478.4296875 219.4453125 m 1
 480.723632812 190.787597656 481.870605469 162.060791016 481.870605469 133.333984375 c 0
 481.870605469 104.607177734 480.723632812 75.8803710938 478.4296875 47.22265625 c 1
 933.3359375 47.22265625 l 1
 933.3359375 219.4453125 l 1
 478.4296875 219.4453125 l 1
EndSplineSet
EndChar

StartChar: U1202f
Encoding: 259 73775 3
Width: 2250
VWidth: 100
Flags: W
HStem: -2.77734 50<200.652 422.787 478.43 933.336> 219.445 50<200.652 422.787 478.43 933.336> 275 50<1176.46 1404.18 1454.24 1933.34> 415.209 50.0586<811.298 933.336 983.336 1106.49> 442.951 48.209<766.808 791.596> 748.541 49.4102<813.607 933.336 983.336 1103.07 1813.61 1933.34 1983.34 2103.07> 776.283 48.209<766.808 873.196 1043.48 1148.56 1766.81 1873.2 2043.48 2148.56>
VStem: 100.011 48.71<-223.557 -137.275 403.943 490.225> 154.098 49.9949<-14.0973 280.765> 377.788 48.71<-223.557 -135.014 401.682 490.225> 422.787 50.4219<-115.823 -2.77734 47.2227 131.987 134.681 219.445 269.445 382.491> 431.845 50.0256<48.5659 218.102> 933.336 50<-224.799 -2.77734 47.2227 219.445 269.445 415.209 465.268 748.541> 1377.79 48.71<109.775 215.864 384.136 490.225> 1933.34 50<-224.799 275 325 748.541>
LayerCount: 2
Fore
SplineSet
1124.81445312 825 m 0xe5ae
 1124.87890625 825 1124.93261719 825.004882812 1124.99707031 825.004882812 c 0
 1136.03417969 825.004882812 1145.41015625 817.836914062 1148.72070312 807.90625 c 0
 1149.54882812 805.421875 1150.0078125 802.767578125 1150.0078125 800.006835938 c 0
 1150.0078125 788.969726562 1142.84082031 779.59375 1132.91015625 776.283203125 c 0xe3ae
 1084.26367188 760.067382812 1033.91992188 750.833984375 983.3359375 748.541015625 c 1
 983.3359375 465.267578125 l 1xf5ae
 1028.57421875 467.522460938 1073.58105469 475.87890625 1117.09765625 490.384765625 c 0
 1119.35058594 491.106445312 1121.75292969 491.5234375 1124.23242188 491.572265625 c 0
 1125.01855469 491.552734375 1125.78027344 491.497070312 1126.546875 491.40625 c 0
 1127.73242188 491.405273438 1128.87402344 491.321289062 1130.015625 491.16015625 c 0
 1130.39453125 491.020507812 1130.77636719 490.870117188 1131.14648438 490.712890625 c 0
 1132.76855469 490.254882812 1134.35351562 489.625 1135.82421875 488.865234375 c 0
 1136.81445312 488.446289062 1137.78222656 487.961914062 1138.703125 487.423828125 c 0
 1140.23046875 486.34765625 1141.60644531 485.127929688 1142.85546875 483.744140625 c 0
 1143.53710938 483.141601562 1144.17089844 482.516601562 1144.78320312 481.84375 c 0
 1146.47070312 479.680664062 1147.81347656 477.220703125 1148.72070312 474.57421875 c 0
 1164.93652344 425.926757812 1174.16992188 375.583007812 1176.46289062 325 c 1
 1404.18164062 325 l 1
 1401.92578125 370.237304688 1393.5703125 415.244140625 1379.06445312 458.76171875 c 0
 1378.23632812 461.24609375 1377.77734375 463.900390625 1377.77734375 466.661132812 c 0
 1377.77734375 477.698242188 1384.94433594 487.07421875 1394.875 490.384765625 c 0
 1397.359375 491.212890625 1400.00097656 491.666992188 1402.76269531 491.666992188 c 0
 1404.48535156 491.666992188 1406.16796875 491.493164062 1407.79296875 491.16015625 c 0
 1416.57910156 489.362304688 1423.70410156 482.954101562 1426.49804688 474.57421875 c 0
 1442.71386719 425.926757812 1451.94726562 375.583007812 1454.24023438 325 c 1
 1933.3359375 325 l 1
 1933.3359375 748.541015625 l 1xedae
 1882.75390625 750.833984375 1832.41113281 760.067382812 1783.765625 776.283203125 c 0
 1773.83496094 779.59375 1766.67871094 788.967773438 1766.67871094 800.00390625 c 0
 1766.67871094 802.765625 1767.12695312 805.421875 1767.95507812 807.90625 c 0
 1770.74902344 816.286132812 1777.87402344 822.694335938 1786.66015625 824.4921875 c 0xe3ae
 1788.28515625 824.825195312 1789.953125 824.993164062 1791.67675781 824.993164062 c 0
 1794.4375 824.993164062 1797.09375 824.544921875 1799.578125 823.716796875 c 0
 1851.10253906 806.541015625 1904.71484375 797.952148438 1958.328125 797.951171875 c 0
 1958.33105469 797.952148438 1958.33300781 797.952148438 1958.3359375 797.953125 c 0
 1958.34277344 797.952148438 1958.34863281 797.952148438 1958.35546875 797.951171875 c 0xe5ae
 2011.96582031 797.953125 2065.57617188 806.541992188 2117.09765625 823.716796875 c 0
 2119.58203125 824.544921875 2122.23632812 825.00390625 2124.99707031 825.00390625 c 0
 2136.03417969 825.00390625 2145.41015625 817.836914062 2148.72070312 807.90625 c 0
 2149.54882812 805.421875 2150.0078125 802.767578125 2150.0078125 800.006835938 c 0
 2150.0078125 788.969726562 2142.84082031 779.59375 2132.91015625 776.283203125 c 0xe3ae
 2084.26367188 760.067382812 2033.91992188 750.833984375 1983.3359375 748.541015625 c 1
 1983.3359375 -200 l 2
 1983.3359375 -213.797851562 1972.13378906 -225 1958.3359375 -225 c 0
 1944.53808594 -225 1933.3359375 -213.797851562 1933.3359375 -200 c 2
 1933.3359375 275 l 1
 1454.24023438 275 l 1
 1451.94726562 224.416992188 1442.71386719 174.073242188 1426.49804688 125.42578125 c 0
 1423.1875 115.495117188 1413.81347656 108.338867188 1402.77734375 108.338867188 c 0
 1400.015625 108.338867188 1397.359375 108.787109375 1394.875 109.615234375 c 0
 1384.94433594 112.92578125 1377.78808594 122.299804688 1377.78808594 133.3359375 c 0
 1377.78808594 136.09765625 1378.23632812 138.75390625 1379.06445312 141.23828125 c 0
 1393.5703125 184.755859375 1401.92578125 229.762695312 1404.18164062 275 c 1
 1176.46289062 275 l 1
 1174.16992188 224.416992188 1164.93652344 174.073242188 1148.72070312 125.42578125 c 0
 1145.41015625 115.495117188 1136.03613281 108.338867188 1125 108.338867188 c 0
 1122.23925781 108.338867188 1119.58203125 108.787109375 1117.09765625 109.615234375 c 0
 1107.16699219 112.92578125 1100.01074219 122.299804688 1100.01074219 133.3359375 c 0
 1100.01074219 136.09765625 1100.45898438 138.75390625 1101.28710938 141.23828125 c 0
 1118.46289062 192.765625 1127.05175781 246.37890625 1127.05273438 299.9921875 c 0
 1127.05175781 299.995117188 1127.05175781 299.997070312 1127.05078125 300 c 0
 1127.05175781 300.002929688 1127.05175781 300.004882812 1127.05273438 300.0078125 c 0
 1127.05175781 345.579101562 1120.82128906 391.145507812 1108.41210938 435.435546875 c 1
 1067.44726562 423.862304688 1025.4765625 417.119140625 983.3359375 415.208984375 c 1
 983.3359375 -200 l 2
 983.3359375 -213.797851562 972.133789062 -225 958.3359375 -225 c 0
 944.538085938 -225 933.3359375 -213.797851562 933.3359375 -200 c 2
 933.3359375 -2.77734375 l 1
 473.208984375 -2.77734375 l 1xf5ae
 464.390625 -72.134765625 448.8515625 -140.846679688 426.498046875 -207.90625 c 0
 423.1875 -217.836914062 413.813476562 -224.993164062 402.77734375 -224.993164062 c 0
 400.015625 -224.993164062 397.359375 -224.544921875 394.875 -223.716796875 c 0
 384.944335938 -220.40625 377.788085938 -211.032226562 377.788085938 -199.99609375 c 0xf5ce
 377.788085938 -197.235351562 378.236328125 -194.578125 379.064453125 -192.09375 c 0
 399.705078125 -130.173828125 414.247070312 -66.77734375 422.787109375 -2.77734375 c 1
 195.431640625 -2.77734375 l 1
 186.61328125 -72.134765625 171.07421875 -140.846679688 148.720703125 -207.90625 c 0
 145.41015625 -217.836914062 136.036132812 -224.993164062 125 -224.993164062 c 0
 122.23828125 -224.993164062 119.58203125 -224.544921875 117.09765625 -223.716796875 c 0
 107.166992188 -220.40625 100.010742188 -211.032226562 100.010742188 -199.99609375 c 0
 100.010742188 -197.235351562 100.458984375 -194.578125 101.287109375 -192.09375 c 0
 136.494628906 -86.47265625 154.098388672 23.4306640625 154.098388672 133.333984375 c 0
 154.098388672 243.237304688 136.494628906 353.140625 101.287109375 458.76171875 c 0
 100.458984375 461.24609375 100 463.900390625 100 466.661132812 c 0
 100 477.698242188 107.166992188 487.07421875 117.09765625 490.384765625 c 0
 119.58203125 491.212890625 122.223632812 491.666992188 124.985351562 491.666992188 c 0
 126.708007812 491.666992188 128.390625 491.493164062 130.015625 491.16015625 c 0
 138.801757812 489.362304688 145.926757812 482.954101562 148.720703125 474.57421875 c 0
 171.07421875 407.514648438 186.61328125 338.802734375 195.431640625 269.4453125 c 1
 422.787109375 269.4453125 l 1xe9ae
 414.247070312 333.4453125 399.705078125 396.841796875 379.064453125 458.76171875 c 0
 378.236328125 461.24609375 377.77734375 463.900390625 377.77734375 466.661132812 c 0
 377.77734375 477.698242188 384.944335938 487.07421875 394.875 490.384765625 c 0
 397.359375 491.212890625 400.000976562 491.666992188 402.762695312 491.666992188 c 0
 404.485351562 491.666992188 406.16796875 491.493164062 407.79296875 491.16015625 c 0
 416.579101562 489.362304688 423.704101562 482.954101562 426.498046875 474.57421875 c 0xe9ce
 448.8515625 407.514648438 464.390625 338.802734375 473.208984375 269.4453125 c 1
 933.3359375 269.4453125 l 1
 933.3359375 415.208984375 l 1xf1ae
 882.75390625 417.501953125 832.411132812 426.735351562 783.765625 442.951171875 c 0
 773.834960938 446.26171875 766.678710938 455.635742188 766.678710938 466.671875 c 0
 766.678710938 469.43359375 767.126953125 472.08984375 767.955078125 474.57421875 c 0
 770.749023438 482.954101562 777.874023438 489.362304688 786.66015625 491.16015625 c 0xe9ae
 788.28515625 491.493164062 789.953125 491.661132812 791.676757812 491.661132812 c 0
 794.4375 491.661132812 797.09375 491.212890625 799.578125 490.384765625 c 0
 843.092773438 475.87890625 888.099609375 467.5234375 933.3359375 465.267578125 c 1
 933.3359375 748.541015625 l 1xf5ae
 882.75390625 750.833984375 832.411132812 760.067382812 783.765625 776.283203125 c 0
 773.834960938 779.59375 766.678710938 788.967773438 766.678710938 800.00390625 c 0
 766.678710938 802.765625 767.126953125 805.421875 767.955078125 807.90625 c 0
 770.749023438 816.286132812 777.874023438 822.694335938 786.66015625 824.4921875 c 0xe3ae
 788.28515625 824.825195312 789.953125 824.993164062 791.676757812 824.993164062 c 0
 794.4375 824.993164062 797.09375 824.544921875 799.578125 823.716796875 c 0
 851.102539062 806.541015625 904.71484375 797.952148438 958.328125 797.951171875 c 0
 958.331054688 797.952148438 958.333007812 797.952148438 958.3359375 797.953125 c 0
 958.342773438 797.952148438 958.348632812 797.952148438 958.35546875 797.951171875 c 0
 1011.96582031 797.953125 1065.57617188 806.541992188 1117.09765625 823.716796875 c 0
 1119.5234375 824.525390625 1122.12304688 824.979492188 1124.81445312 825 c 0xe5ae
200.65234375 219.4453125 m 1
 202.946289062 190.787597656 204.093261719 162.060791016 204.093261719 133.333984375 c 0
 204.093261719 104.607177734 202.946289062 75.8803710938 200.65234375 47.22265625 c 1
 428.236328125 47.22265625 l 1
 430.642089844 75.8759765625 431.844970703 104.604980469 431.844970703 133.333984375 c 0xe19e
 431.844970703 162.062988281 430.642089844 190.791992188 428.236328125 219.4453125 c 1
 200.65234375 219.4453125 l 1
478.4296875 219.4453125 m 1
 480.723632812 190.787597656 481.870605469 162.060791016 481.870605469 133.333984375 c 0
 481.870605469 104.607177734 480.723632812 75.8803710938 478.4296875 47.22265625 c 1
 933.3359375 47.22265625 l 1
 933.3359375 219.4453125 l 1
 478.4296875 219.4453125 l 1
EndSplineSet
EndChar

StartChar: U12323
Encoding: 260 74531 4
Width: 1250
VWidth: 100
Flags: W
HStem: 163.891 50<200.652 422.787 478.43 933.336> 386.109 50<200.652 422.787 478.43 933.336> 776.283 48.7217<766.864 873.196 1043.48 1148.56>
VStem: 100.011 48.71<-56.8892 29.3918 570.608 656.889> 154.098 49.9949<152.57 447.43> 377.788 48.71<-56.8892 31.6531 568.347 656.889> 422.787 50.4219<50.8442 163.891 213.891 298.653 301.347 386.109 436.109 549.156> 431.845 50.0256<215.234 384.766> 586.494 42.6816<48.1391 67.4643 798.139 817.464> 933.336 50<-224.799 163.891 213.891 386.109 436.109 748.541>
LayerCount: 2
Fore
SplineSet
604.171875 825 m 0xf8c0
 611.0703125 825 617.32421875 822.203125 621.849609375 817.677734375 c 0
 626.375 813.15234375 629.17578125 806.895507812 629.17578125 799.99609375 c 0
 629.17578125 793.09765625 626.375 786.84765625 621.849609375 782.322265625 c 2
 514.52734375 675 l 1
 514.52734375 675 621.849609375 567.670898438 621.849609375 567.677734375 c 1
 626.375 563.15234375 629.17578125 556.895507812 629.17578125 549.99609375 c 0
 629.17578125 543.09765625 626.375 536.84765625 621.849609375 532.322265625 c 0
 617.32421875 527.796875 611.067382812 524.99609375 604.16796875 524.99609375 c 0
 597.26953125 524.99609375 591.01953125 527.796875 586.494140625 532.322265625 c 2
 586.494140625 532.322265625 461.494140625 657.329101562 461.494140625 657.322265625 c 1
 456.969726562 661.84765625 454.168945312 668.104492188 454.168945312 675.00390625 c 0
 454.168945312 681.90234375 456.969726562 688.15234375 461.494140625 692.677734375 c 2
 461.494140625 692.677734375 586.494141317 817.660158453 586.494141317 817.677732802 c 0
 586.494140625 817.677734375 l 1
 589.549804688 820.733398438 593.403320312 822.997070312 597.701171875 824.1484375 c 0
 599.767578125 824.702148438 601.932617188 825 604.171875 825 c 0xf8c0
1124.81445312 825 m 0
 1124.87890625 825 1124.93261719 825.004882812 1124.99707031 825.004882812 c 0
 1136.03417969 825.004882812 1145.41015625 817.836914062 1148.72070312 807.90625 c 0
 1149.54882812 805.421875 1150.0078125 802.767578125 1150.0078125 800.006835938 c 0
 1150.0078125 788.969726562 1142.84082031 779.59375 1132.91015625 776.283203125 c 0
 1084.26367188 760.067382812 1033.91992188 750.833984375 983.3359375 748.541015625 c 1
 983.3359375 -200 l 2
 983.3359375 -213.797851562 972.133789062 -225 958.3359375 -225 c 0
 944.538085938 -225 933.3359375 -213.797851562 933.3359375 -200 c 2
 933.3359375 163.890625 l 1
 473.208984375 163.890625 l 1xfac0
 464.390625 94.5322265625 448.8515625 25.8203125 426.498046875 -41.23828125 c 0
 423.1875 -51.1689453125 413.813476562 -58.3251953125 402.77734375 -58.3251953125 c 0
 400.015625 -58.3251953125 397.359375 -57.876953125 394.875 -57.048828125 c 0
 384.944335938 -53.73828125 377.788085938 -44.3642578125 377.788085938 -33.328125 c 0xfcc0
 377.788085938 -30.56640625 378.236328125 -27.91015625 379.064453125 -25.42578125 c 0
 399.705078125 36.4931640625 414.247070312 99.8896484375 422.787109375 163.890625 c 1
 195.431640625 163.890625 l 1
 186.61328125 94.5322265625 171.07421875 25.8203125 148.720703125 -41.23828125 c 0
 145.41015625 -51.1689453125 136.036132812 -58.3251953125 125 -58.3251953125 c 0
 122.23828125 -58.3251953125 119.58203125 -57.876953125 117.09765625 -57.048828125 c 0
 107.166992188 -53.73828125 100.010742188 -44.3642578125 100.010742188 -33.328125 c 0
 100.010742188 -30.56640625 100.458984375 -27.91015625 101.287109375 -25.42578125 c 0
 136.494628906 80.1928710938 154.098388672 190.096191406 154.098388672 299.999633789 c 0
 154.098388672 409.903076172 136.494628906 519.806640625 101.287109375 625.42578125 c 0
 100.458984375 627.91015625 100 630.564453125 100 633.325195312 c 0
 100 644.362304688 107.166992188 653.73828125 117.09765625 657.048828125 c 0
 119.58203125 657.876953125 122.223632812 658.331054688 124.985351562 658.331054688 c 0
 126.708007812 658.331054688 128.390625 658.157226562 130.015625 657.82421875 c 0
 138.801757812 656.026367188 145.926757812 649.618164062 148.720703125 641.23828125 c 0
 171.07421875 574.1796875 186.61328125 505.467773438 195.431640625 436.109375 c 1
 422.787109375 436.109375 l 1xfac0
 414.247070312 500.110351562 399.705078125 563.506835938 379.064453125 625.42578125 c 0
 378.236328125 627.91015625 377.77734375 630.564453125 377.77734375 633.325195312 c 0
 377.77734375 644.362304688 384.944335938 653.73828125 394.875 657.048828125 c 0
 397.359375 657.876953125 400.000976562 658.331054688 402.762695312 658.331054688 c 0
 404.485351562 658.331054688 406.16796875 658.157226562 407.79296875 657.82421875 c 0
 416.579101562 656.026367188 423.704101562 649.618164062 426.498046875 641.23828125 c 0xfcc0
 448.8515625 574.1796875 464.390625 505.467773438 473.208984375 436.109375 c 1xfac0
 933.3359375 436.109375 l 1
 933.3359375 748.541015625 l 1
 882.75390625 750.833984375 832.411132812 760.067382812 783.765625 776.283203125 c 0
 773.834960938 779.59375 766.678710938 788.967773438 766.678710938 800.00390625 c 0
 766.678710938 802.765625 767.126953125 805.421875 767.955078125 807.90625 c 0
 770.749023438 816.286132812 777.874023438 822.694335938 786.66015625 824.4921875 c 0
 788.28515625 824.825195312 789.953125 824.993164062 791.676757812 824.993164062 c 0
 794.4375 824.993164062 797.09375 824.544921875 799.578125 823.716796875 c 0
 851.102539062 806.541015625 904.71484375 797.952148438 958.328125 797.951171875 c 0
 958.331054688 797.952148438 958.333007812 797.952148438 958.3359375 797.953125 c 0
 958.342773438 797.952148438 958.348632812 797.952148438 958.35546875 797.951171875 c 0
 1011.96582031 797.953125 1065.57617188 806.541992188 1117.09765625 823.716796875 c 0
 1119.5234375 824.525390625 1122.12304688 824.979492188 1124.81445312 825 c 0
200.65234375 386.109375 m 1
 202.946289062 357.452636719 204.093261719 328.726318359 204.093261719 300 c 0
 204.093261719 271.273681641 202.946289062 242.547363281 200.65234375 213.890625 c 1
 428.236328125 213.890625 l 1
 430.642089844 242.54296875 431.844970703 271.271484375 431.844970703 300 c 0xf9c0
 431.844970703 328.728515625 430.642089844 357.45703125 428.236328125 386.109375 c 1
 200.65234375 386.109375 l 1
478.4296875 386.109375 m 1
 480.723632812 357.452636719 481.870605469 328.726318359 481.870605469 300 c 0
 481.870605469 271.273681641 480.723632812 242.547363281 478.4296875 213.890625 c 1
 933.3359375 213.890625 l 1
 933.3359375 386.109375 l 1
 478.4296875 386.109375 l 1
604.171875 75 m 0
 611.0703125 75 617.32421875 72.203125 621.849609375 67.677734375 c 0
 626.375 63.15234375 629.17578125 56.8955078125 629.17578125 49.99609375 c 0
 629.17578125 43.09765625 626.375 36.84765625 621.849609375 32.322265625 c 2
 514.52734375 -75 l 1
 514.52734375 -75 621.849609375 -182.329101562 621.849609375 -182.322265625 c 1
 626.375 -186.84765625 629.17578125 -193.104492188 629.17578125 -200.00390625 c 0
 629.17578125 -206.90234375 626.375 -213.15234375 621.849609375 -217.677734375 c 0
 617.32421875 -222.203125 611.067382812 -225.00390625 604.16796875 -225.00390625 c 0
 597.26953125 -225.00390625 591.01953125 -222.203125 586.494140625 -217.677734375 c 2
 586.494140625 -217.677734375 461.494140625 -92.6708984375 461.494140625 -92.677734375 c 1
 456.969726562 -88.15234375 454.168945312 -81.8955078125 454.168945312 -74.99609375 c 0
 454.168945312 -68.09765625 456.969726562 -61.84765625 461.494140625 -57.322265625 c 2
 461.494140625 -57.322265625 586.494141317 67.6601584527 586.494141317 67.6777328018 c 0
 586.494140625 67.677734375 l 1
 589.549804688 70.7333984375 593.403320312 72.9970703125 597.701171875 74.1484375 c 0
 599.767578125 74.7021484375 601.932617188 75 604.171875 75 c 0
EndSplineSet
EndChar

StartChar: U12253
Encoding: 261 74323 5
Width: 1750
VWidth: 100
Flags: W
HStem: -58.332 50<843.127 1433.34> 163.914 50<200.639 816.471> 275 50<1065.35 1163.44 1213.5 1433.34> 386.086 50<200.639 816.471> 608.332 50<843.127 1433.34> 776.283 48.209<1266.81 1373.2 1543.48 1648.56>
VStem: 154.084 49.9944<152.608 447.392> 766.68 48.709<-223.557 -118.473 51.8048 156.889 443.111 548.195 718.471 823.557> 793.717 49.4097<-178.062 -58.332 -8.33203 111.396 488.604 608.332 658.332 778.063> 988.902 48.709<109.775 214.856 385.144 490.225> 1137.05 48.71<109.775 215.864 384.136 490.225> 1433.34 50<-224.799 -58.332 -8.33203 275 325 608.332 658.332 748.541>
LayerCount: 2
Fore
SplineSet
1624.81445312 825 m 0xfef0
 1624.87890625 825 1624.93261719 825.004882812 1624.99707031 825.004882812 c 0
 1636.03417969 825.004882812 1645.41015625 817.836914062 1648.72070312 807.90625 c 0
 1649.54882812 805.421875 1650.0078125 802.767578125 1650.0078125 800.006835938 c 0
 1650.0078125 788.969726562 1642.84082031 779.59375 1632.91015625 776.283203125 c 0
 1584.26367188 760.067382812 1533.91992188 750.833984375 1483.3359375 748.541015625 c 1
 1483.3359375 -200 l 2
 1483.3359375 -213.797851562 1472.13378906 -225 1458.3359375 -225 c 0
 1444.53808594 -225 1433.3359375 -213.797851562 1433.3359375 -200 c 2
 1433.3359375 -58.33203125 l 1
 843.126953125 -58.33203125 l 1xfef0
 840.834960938 -108.9140625 831.602539062 -159.2578125 815.388671875 -207.904296875 c 0
 812.079101562 -217.834960938 802.705078125 -224.9921875 791.666992188 -224.9921875 c 0
 788.907226562 -224.9921875 786.250976562 -224.543945312 783.767578125 -223.716796875 c 0
 773.836914062 -220.407226562 766.6796875 -211.033203125 766.6796875 -199.995117188 c 0xff70
 766.6796875 -197.235351562 767.127929688 -194.579101562 767.955078125 -192.095703125 c 0
 785.129882812 -140.567871094 793.717285156 -86.9509277344 793.717285156 -33.333984375 c 0xfef0
 793.717285156 20.2829589844 785.129882812 73.8999023438 767.955078125 125.427734375 c 0
 767.127929688 127.911132812 766.668945312 130.565429688 766.668945312 133.325195312 c 0
 766.668945312 144.362304688 773.836914062 153.73828125 783.767578125 157.048828125 c 0
 786.250976562 157.876953125 788.893554688 158.331054688 791.654296875 158.331054688 c 0
 793.376953125 158.331054688 795.05859375 158.15625 796.68359375 157.82421875 c 0
 805.469726562 156.026367188 812.595703125 149.6171875 815.388671875 141.236328125 c 0xff70
 831.602539062 92.591796875 840.833984375 42.2490234375 843.126953125 -8.33203125 c 1
 1433.3359375 -8.33203125 l 1
 1433.3359375 275 l 1
 1213.49804688 275 l 1
 1211.20507812 224.416992188 1201.97167969 174.073242188 1185.75585938 125.42578125 c 0
 1182.4453125 115.495117188 1173.07128906 108.338867188 1162.03515625 108.338867188 c 0
 1159.27441406 108.338867188 1156.6171875 108.787109375 1154.1328125 109.615234375 c 0
 1144.20214844 112.92578125 1137.04589844 122.299804688 1137.04589844 133.3359375 c 0
 1137.04589844 136.09765625 1137.49414062 138.75390625 1138.32226562 141.23828125 c 0
 1152.828125 184.755859375 1161.18457031 229.762695312 1163.43945312 275 c 1
 1065.34960938 275 l 1
 1063.05761719 224.41796875 1053.82519531 174.075195312 1037.61132812 125.427734375 c 0
 1034.30078125 115.497070312 1024.92675781 108.33984375 1013.88964844 108.33984375 c 0
 1011.12988281 108.33984375 1008.47363281 108.788085938 1005.99023438 109.615234375 c 0
 996.059570312 112.924804688 988.90234375 122.298828125 988.90234375 133.336914062 c 0
 988.90234375 136.096679688 989.350585938 138.752929688 990.177734375 141.236328125 c 0
 1007.3515625 192.762695312 1015.93847656 246.375 1015.93945312 299.98828125 c 0
 1015.93847656 299.9921875 1015.93847656 299.99609375 1015.9375 300 c 0
 1015.93847656 300.00390625 1015.93847656 300.0078125 1015.93945312 300.01171875 c 0
 1015.93847656 353.625 1007.3515625 407.237304688 990.177734375 458.763671875 c 0
 989.350585938 461.247070312 988.891601562 463.901367188 988.891601562 466.661132812 c 0
 988.891601562 477.698242188 996.059570312 487.075195312 1005.99023438 490.384765625 c 0
 1008.47460938 491.212890625 1011.11621094 491.666992188 1013.87792969 491.666992188 c 0
 1015.60058594 491.666992188 1017.28320312 491.493164062 1018.90820312 491.16015625 c 0
 1027.69335938 489.361328125 1034.81835938 482.953125 1037.61132812 474.572265625 c 0
 1053.82519531 425.92578125 1063.05664062 375.58203125 1065.34960938 325 c 1
 1163.43945312 325 l 1
 1161.18359375 370.237304688 1152.828125 415.244140625 1138.32226562 458.76171875 c 0
 1137.49414062 461.24609375 1137.03515625 463.900390625 1137.03515625 466.661132812 c 0
 1137.03515625 477.698242188 1144.20214844 487.07421875 1154.1328125 490.384765625 c 0
 1156.6171875 491.212890625 1159.25878906 491.666992188 1162.02050781 491.666992188 c 0
 1163.74316406 491.666992188 1165.42578125 491.493164062 1167.05078125 491.16015625 c 0
 1175.83691406 489.362304688 1182.96191406 482.954101562 1185.75585938 474.57421875 c 0
 1201.97167969 425.926757812 1211.20507812 375.583007812 1213.49804688 325 c 1
 1433.3359375 325 l 1
 1433.3359375 608.33203125 l 1
 843.126953125 608.33203125 l 1xfef0
 840.833984375 557.750976562 831.602539062 507.408203125 815.388671875 458.763671875 c 0
 812.079101562 448.833007812 802.705078125 441.67578125 791.666992188 441.67578125 c 0
 788.907226562 441.67578125 786.250976562 442.124023438 783.767578125 442.951171875 c 0
 773.836914062 446.26171875 766.6796875 455.634765625 766.6796875 466.672851562 c 0xff70
 766.6796875 469.432617188 767.127929688 472.088867188 767.955078125 474.572265625 c 0
 785.129882812 526.100097656 793.717285156 579.716796875 793.717285156 633.333374023 c 0xfef0
 793.717285156 686.949951172 785.129882812 740.56640625 767.955078125 792.09375 c 0
 767.126953125 794.578125 766.66796875 797.232421875 766.66796875 799.993164062 c 0
 766.66796875 811.030273438 773.8359375 820.407226562 783.767578125 823.716796875 c 0
 786.250976562 824.544921875 788.893554688 824.999023438 791.654296875 824.999023438 c 0
 793.376953125 824.999023438 795.05859375 824.82421875 796.68359375 824.4921875 c 0
 805.469726562 822.694335938 812.595703125 816.28515625 815.388671875 807.904296875 c 0xff70
 831.602539062 759.2578125 840.834960938 708.915039062 843.126953125 658.33203125 c 1
 1433.3359375 658.33203125 l 1
 1433.3359375 748.541015625 l 1
 1382.75390625 750.833984375 1332.41113281 760.067382812 1283.765625 776.283203125 c 0
 1273.83496094 779.59375 1266.67871094 788.967773438 1266.67871094 800.00390625 c 0
 1266.67871094 802.765625 1267.12695312 805.421875 1267.95507812 807.90625 c 0
 1270.74902344 816.286132812 1277.87402344 822.694335938 1286.66015625 824.4921875 c 0
 1288.28515625 824.825195312 1289.953125 824.993164062 1291.67675781 824.993164062 c 0
 1294.4375 824.993164062 1297.09375 824.544921875 1299.578125 823.716796875 c 0
 1351.10253906 806.541015625 1404.71484375 797.952148438 1458.328125 797.951171875 c 0
 1458.33105469 797.952148438 1458.33300781 797.952148438 1458.3359375 797.953125 c 0
 1458.34277344 797.952148438 1458.34863281 797.952148438 1458.35546875 797.951171875 c 0
 1511.96582031 797.953125 1565.57617188 806.541992188 1617.09765625 823.716796875 c 0
 1619.5234375 824.525390625 1622.12304688 824.979492188 1624.81445312 825 c 0xfef0
123.505859375 658.205078125 m 0
 124.0078125 658.235351562 124.474609375 658.25 124.984375 658.25 c 0
 126.70703125 658.25 128.389648438 658.075195312 130.015625 657.7421875 c 0
 138.801757812 655.944335938 145.926757812 649.536132812 148.720703125 641.15625 c 0
 171.067382812 574.116210938 186.603515625 505.423828125 195.419921875 436.0859375 c 1
 791.671875 436.08203125 l 2
 805.469726562 436.08203125 816.671875 424.879882812 816.671875 411.08203125 c 0
 816.671875 397.284179688 805.469726562 386.08203125 791.671875 386.08203125 c 2
 200.638671875 386.0859375 l 1
 202.931640625 357.436523438 204.078125 328.718261719 204.078125 300 c 0
 204.078125 271.281738281 202.931640625 242.563476562 200.638671875 213.9140625 c 1
 791.671875 213.9140625 l 2
 805.469726562 213.9140625 816.671875 202.711914062 816.671875 188.9140625 c 0
 816.671875 175.116210938 805.469726562 163.9140625 791.671875 163.9140625 c 2
 195.419921875 163.9140625 l 1
 186.603515625 94.576171875 171.067382812 25.8837890625 148.720703125 -41.15625 c 0
 145.41015625 -51.0869140625 136.036132812 -58.2431640625 125 -58.2431640625 c 0
 122.23828125 -58.2431640625 119.58203125 -57.794921875 117.09765625 -56.966796875 c 0
 107.166992188 -53.65625 100.010742188 -44.2822265625 100.010742188 -33.24609375 c 0
 100.010742188 -30.484375 100.458984375 -27.828125 101.287109375 -25.34375 c 0
 136.484863281 80.25 154.083740234 190.125 154.083740234 300 c 0
 154.083740234 409.875 136.484863281 519.75 101.287109375 625.34375 c 0
 100.458984375 627.828125 100 630.482421875 100 633.243164062 c 0
 100 644.280273438 107.166992188 653.65625 117.09765625 656.966796875 c 0
 119.123046875 657.641601562 121.288085938 658.072265625 123.505859375 658.205078125 c 0
EndSplineSet
EndChar

StartChar: U12259
Encoding: 262 74329 6
Width: 1750
VWidth: 100
Flags: W
HStem: -58.332 50<759.795 1433.34> 163.914 50<200.639 733.135> 275 50<859.795 920.836 970.836 1058.34 1108.34 1195.84 1245.84 1383.13> 386.086 50<200.639 733.135> 509.615 48.7207<783.528 877.2 1289.47 1381.89> 608.332 50<759.795 1433.34> 776.283 48.209<1266.81 1373.2 1543.48 1648.56>
VStem: 154.084 49.9944<152.608 447.392> 683.343 48.71<-223.557 -118.475 51.8092 156.889 443.111 548.191 718.475 823.557> 710.385 49.4102<-178.064 -58.332 -8.33203 111.397 488.603 608.332 658.332 778.064> 783.343 48.71<109.775 214.858 385.142 490.225> 920.836 50<41.869 275 325 470.848> 1058.34 50<41.869 275 325 464.1> 1195.84 50<41.869 275 325 470.846> 1433.34 50<-224.799 -58.332 -8.33203 608.332 658.332 748.541>
LayerCount: 2
Fore
SplineSet
1624.81445312 825 m 0xff7e
 1624.87890625 825 1624.93261719 825.004882812 1624.99707031 825.004882812 c 0
 1636.03417969 825.004882812 1645.41015625 817.836914062 1648.72070312 807.90625 c 0
 1649.54882812 805.421875 1650.0078125 802.767578125 1650.0078125 800.006835938 c 0
 1650.0078125 788.969726562 1642.84082031 779.59375 1632.91015625 776.283203125 c 0
 1584.26367188 760.067382812 1533.91992188 750.833984375 1483.3359375 748.541015625 c 1
 1483.3359375 -200 l 2
 1483.3359375 -213.797851562 1472.13378906 -225 1458.3359375 -225 c 0
 1444.53808594 -225 1433.3359375 -213.797851562 1433.3359375 -200 c 2
 1433.3359375 -58.33203125 l 1
 759.794921875 -58.33203125 l 1xff7e
 757.501953125 -108.916015625 748.268554688 -159.259765625 732.052734375 -207.90625 c 0
 728.7421875 -217.836914062 719.368164062 -224.993164062 708.33203125 -224.993164062 c 0
 705.5703125 -224.993164062 702.9140625 -224.544921875 700.4296875 -223.716796875 c 0
 690.499023438 -220.40625 683.342773438 -211.032226562 683.342773438 -199.99609375 c 0xffbe
 683.342773438 -197.235351562 683.791015625 -194.578125 684.619140625 -192.09375 c 0
 701.794921875 -140.568359375 710.383789062 -86.955078125 710.384765625 -33.341796875 c 0
 710.383789062 -33.3388671875 710.383789062 -33.3349609375 710.3828125 -33.33203125 c 0
 710.383789062 -33.3291015625 710.383789062 -33.3251953125 710.384765625 -33.322265625 c 0xff7e
 710.383789062 20.2900390625 701.793945312 73.90234375 684.619140625 125.42578125 c 0
 683.791015625 127.91015625 683.33203125 130.564453125 683.33203125 133.325195312 c 0
 683.33203125 144.362304688 690.499023438 153.73828125 700.4296875 157.048828125 c 0
 702.9140625 157.876953125 705.555664062 158.331054688 708.317382812 158.331054688 c 0
 710.040039062 158.331054688 711.72265625 158.157226562 713.34765625 157.82421875 c 0
 722.133789062 156.026367188 729.258789062 149.618164062 732.052734375 141.23828125 c 0xffbe
 748.268554688 92.5927734375 757.501953125 42.25 759.794921875 -8.33203125 c 1
 1433.3359375 -8.33203125 l 1
 1433.3359375 608.33203125 l 1
 759.794921875 608.33203125 l 1xff7e
 757.501953125 557.75 748.268554688 507.407226562 732.052734375 458.76171875 c 0
 728.7421875 448.831054688 719.368164062 441.674804688 708.33203125 441.674804688 c 0
 705.5703125 441.674804688 702.9140625 442.123046875 700.4296875 442.951171875 c 0
 690.499023438 446.26171875 683.342773438 455.635742188 683.342773438 466.671875 c 0xffbe
 683.342773438 469.43359375 683.791015625 472.08984375 684.619140625 474.57421875 c 0
 701.793945312 526.09765625 710.383789062 579.709960938 710.384765625 633.322265625 c 0
 710.383789062 633.325195312 710.383789062 633.329101562 710.3828125 633.33203125 c 0
 710.383789062 633.334960938 710.383789062 633.338867188 710.384765625 633.341796875 c 0xff7e
 710.383789062 686.955078125 701.794921875 740.569335938 684.619140625 792.09375 c 0
 683.791015625 794.578125 683.33203125 797.232421875 683.33203125 799.993164062 c 0
 683.33203125 811.030273438 690.499023438 820.40625 700.4296875 823.716796875 c 0
 702.9140625 824.544921875 705.555664062 824.999023438 708.317382812 824.999023438 c 0
 710.040039062 824.999023438 711.72265625 824.825195312 713.34765625 824.4921875 c 0
 722.133789062 822.694335938 729.258789062 816.286132812 732.052734375 807.90625 c 0xffbe
 748.268554688 759.259765625 757.501953125 708.916015625 759.794921875 658.33203125 c 1
 1433.3359375 658.33203125 l 1
 1433.3359375 748.541015625 l 1
 1382.75390625 750.833984375 1332.41113281 760.067382812 1283.765625 776.283203125 c 0
 1273.83496094 779.59375 1266.67871094 788.967773438 1266.67871094 800.00390625 c 0
 1266.67871094 802.765625 1267.12695312 805.421875 1267.95507812 807.90625 c 0
 1270.74902344 816.286132812 1277.87402344 822.694335938 1286.66015625 824.4921875 c 0
 1288.28515625 824.825195312 1289.953125 824.993164062 1291.67675781 824.993164062 c 0
 1294.4375 824.993164062 1297.09375 824.544921875 1299.578125 823.716796875 c 0
 1351.10253906 806.541015625 1404.71484375 797.952148438 1458.328125 797.951171875 c 0
 1458.33105469 797.952148438 1458.33300781 797.952148438 1458.3359375 797.953125 c 0
 1458.34277344 797.952148438 1458.34863281 797.952148438 1458.35546875 797.951171875 c 0
 1511.96582031 797.953125 1565.57617188 806.541992188 1617.09765625 823.716796875 c 0
 1619.5234375 824.525390625 1622.12304688 824.979492188 1624.81445312 825 c 0xff7e
123.505859375 658.205078125 m 0
 124.0078125 658.235351562 124.474609375 658.25 124.984375 658.25 c 0
 126.70703125 658.25 128.389648438 658.075195312 130.015625 657.7421875 c 0
 138.801757812 655.944335938 145.926757812 649.536132812 148.720703125 641.15625 c 0
 171.067382812 574.116210938 186.603515625 505.423828125 195.419921875 436.0859375 c 1
 708.3359375 436.08203125 l 2
 722.133789062 436.08203125 733.3359375 424.879882812 733.3359375 411.08203125 c 0
 733.3359375 397.284179688 722.133789062 386.08203125 708.3359375 386.08203125 c 2
 200.638671875 386.0859375 l 1
 202.931640625 357.436523438 204.078125 328.718261719 204.078125 300 c 0
 204.078125 271.281738281 202.931640625 242.563476562 200.638671875 213.9140625 c 1
 708.3359375 213.9140625 l 2
 722.133789062 213.9140625 733.3359375 202.711914062 733.3359375 188.9140625 c 0
 733.3359375 175.116210938 722.133789062 163.9140625 708.3359375 163.9140625 c 2
 195.419921875 163.9140625 l 1
 186.603515625 94.576171875 171.067382812 25.8837890625 148.720703125 -41.15625 c 0
 145.41015625 -51.0869140625 136.036132812 -58.2431640625 125 -58.2431640625 c 0
 122.23828125 -58.2431640625 119.58203125 -57.794921875 117.09765625 -56.966796875 c 0
 107.166992188 -53.65625 100.010742188 -44.2822265625 100.010742188 -33.24609375 c 0
 100.010742188 -30.484375 100.458984375 -27.828125 101.287109375 -25.34375 c 0
 136.484863281 80.25 154.083740234 190.125 154.083740234 300 c 0
 154.083740234 409.875 136.484863281 519.75 101.287109375 625.34375 c 0
 100.458984375 627.828125 100 630.482421875 100 633.243164062 c 0
 100 644.280273438 107.166992188 653.65625 117.09765625 656.966796875 c 0
 119.123046875 657.641601562 121.288085938 658.072265625 123.505859375 658.205078125 c 0
809.833984375 558.287109375 m 0
 812.051757812 558.154296875 814.216796875 557.723632812 816.2421875 557.048828125 c 0
 902.927734375 528.155273438 993.125976562 513.706054688 1083.32421875 513.705078125 c 0
 1083.328125 513.706054688 1083.33203125 513.706054688 1083.3359375 513.70703125 c 0
 1083.34472656 513.706054688 1083.35449219 513.706054688 1083.36328125 513.705078125 c 0
 1173.55761719 513.708007812 1263.75195312 528.15625 1350.43164062 557.048828125 c 0
 1352.91503906 557.876953125 1355.56933594 558.3359375 1358.32910156 558.3359375 c 0
 1369.36621094 558.3359375 1378.7421875 551.16796875 1382.05273438 541.23828125 c 0
 1382.88085938 538.75390625 1383.33984375 536.099609375 1383.33984375 533.338867188 c 0
 1383.33984375 522.301757812 1376.17285156 512.92578125 1366.2421875 509.615234375 c 0
 1326.70019531 496.434570312 1286.46289062 486.111328125 1245.8359375 478.607421875 c 1
 1245.8359375 325 l 1
 1358.3359375 325 l 2
 1372.13378906 325 1383.3359375 313.797851562 1383.3359375 300 c 0
 1383.3359375 286.202148438 1372.13378906 275 1358.3359375 275 c 2
 1245.8359375 275 l 1
 1245.8359375 66.66796875 l 2
 1245.8359375 52.8701171875 1234.63378906 41.66796875 1220.8359375 41.66796875 c 0
 1207.03808594 41.66796875 1195.8359375 52.8701171875 1195.8359375 66.66796875 c 2
 1195.8359375 275 l 1
 1108.3359375 275 l 1
 1108.3359375 66.66796875 l 2
 1108.3359375 52.8701171875 1097.13378906 41.66796875 1083.3359375 41.66796875 c 0
 1069.53808594 41.66796875 1058.3359375 52.8701171875 1058.3359375 66.66796875 c 2
 1058.3359375 275 l 1
 970.8359375 275 l 1
 970.8359375 66.66796875 l 2
 970.8359375 52.8701171875 959.633789062 41.66796875 945.8359375 41.66796875 c 0
 932.038085938 41.66796875 920.8359375 52.8701171875 920.8359375 66.66796875 c 2
 920.8359375 275 l 1
 859.794921875 275 l 1
 857.501953125 224.416992188 848.268554688 174.073242188 832.052734375 125.42578125 c 0
 828.7421875 115.495117188 819.368164062 108.338867188 808.33203125 108.338867188 c 0
 805.5703125 108.338867188 802.9140625 108.787109375 800.4296875 109.615234375 c 0
 790.499023438 112.92578125 783.342773438 122.299804688 783.342773438 133.3359375 c 0
 783.342773438 136.09765625 783.791015625 138.75390625 784.619140625 141.23828125 c 0
 801.794921875 192.764648438 810.383789062 246.377929688 810.384765625 299.990234375 c 0
 810.383789062 299.993164062 810.383789062 299.997070312 810.3828125 300 c 0
 810.383789062 300.002929688 810.383789062 300.006835938 810.384765625 300.009765625 c 0
 810.383789062 353.622070312 801.794921875 407.235351562 784.619140625 458.76171875 c 0
 783.791015625 461.24609375 783.33203125 463.900390625 783.33203125 466.661132812 c 0
 783.33203125 477.698242188 790.499023438 487.07421875 800.4296875 490.384765625 c 0
 802.9140625 491.212890625 805.555664062 491.666992188 808.317382812 491.666992188 c 0
 810.040039062 491.666992188 811.72265625 491.493164062 813.34765625 491.16015625 c 0
 822.133789062 489.362304688 829.258789062 482.954101562 832.052734375 474.57421875 c 0
 848.268554688 425.926757812 857.501953125 375.583007812 859.794921875 325 c 1
 920.8359375 325 l 1
 920.8359375 478.607421875 l 1
 880.208984375 486.111328125 839.971679688 496.435546875 800.4296875 509.615234375 c 0
 790.499023438 512.92578125 783.342773438 522.299804688 783.342773438 533.3359375 c 0
 783.342773438 536.09765625 783.791015625 538.75390625 784.619140625 541.23828125 c 0
 787.413085938 549.618164062 794.538085938 556.026367188 803.32421875 557.82421875 c 0
 804.950195312 558.157226562 806.59375 558.33203125 808.31640625 558.33203125 c 0
 808.826171875 558.33203125 809.33203125 558.317382812 809.833984375 558.287109375 c 0
970.8359375 470.84765625 m 1
 970.8359375 325 l 1
 1058.3359375 325 l 1
 1058.3359375 464.099609375 l 1
 1029.10253906 464.916992188 999.90234375 467.1640625 970.8359375 470.84765625 c 1
1195.8359375 470.845703125 m 1
 1166.77050781 467.162109375 1137.56933594 464.916992188 1108.3359375 464.099609375 c 1
 1108.3359375 325 l 1
 1195.8359375 325 l 1
 1195.8359375 470.845703125 l 1
EndSplineSet
EndChar

StartChar: U1201c
Encoding: 263 73756 7
Width: 1750
VWidth: 100
Flags: W
HStem: -100 50<834.483 1433.34> 136.109 50<212.729 816.471> 191.668 50<1077.33 1433.34> 358.332 50<1077.33 1433.34> 413.891 50<212.729 816.471> 650 50<834.483 1433.34> 776.283 48.209<1266.81 1373.2 1543.48 1648.56>
VStem: 100.011 48.71<-140.225 -52.4881 652.49 740.225> 167.619 49.948<137.541 462.46> 766.679 48.71<-223.557 -101.711 -48.2893 73.5572 526.443 648.289 701.711 823.557> 786.959 49.25<-199.867 -100 -50 49.8638 550.133 650 700 799.864> 988.901 48.71<26.4428 120.946 479.054 573.557> 1029.46 49.9587<181.856 418.144> 1433.34 50<-224.799 -100 -50 191.668 241.668 358.332 408.332 650 700 748.541>
LayerCount: 2
Fore
SplineSet
1624.81445312 825 m 0xffa4
 1624.87890625 825 1624.93261719 825.004882812 1624.99707031 825.004882812 c 0
 1636.03417969 825.004882812 1645.41015625 817.836914062 1648.72070312 807.90625 c 0
 1649.54882812 805.421875 1650.0078125 802.767578125 1650.0078125 800.006835938 c 0
 1650.0078125 788.969726562 1642.84082031 779.59375 1632.91015625 776.283203125 c 0
 1584.26367188 760.067382812 1533.91992188 750.833984375 1483.3359375 748.541015625 c 1
 1483.3359375 -200 l 2
 1483.3359375 -213.797851562 1472.13378906 -225 1458.3359375 -225 c 0
 1444.53808594 -225 1433.3359375 -213.797851562 1433.3359375 -200 c 2
 1433.3359375 -100 l 1
 836.208984375 -100 l 1xffa4
 834.034179688 -136.499023438 827.095703125 -172.784179688 815.388671875 -207.90625 c 0
 812.078125 -217.836914062 802.704101562 -224.993164062 791.66796875 -224.993164062 c 0
 788.90625 -224.993164062 786.25 -224.544921875 783.765625 -223.716796875 c 0
 773.834960938 -220.40625 766.678710938 -211.032226562 766.678710938 -199.99609375 c 0xffc4
 766.678710938 -197.235351562 767.126953125 -194.578125 767.955078125 -192.09375 c 0
 780.623046875 -154.090820312 786.958007812 -114.549804688 786.958984375 -75.009765625 c 0
 786.958007812 -75.0068359375 786.958007812 -75.0029296875 786.95703125 -75 c 0
 786.958007812 -74.9970703125 786.958007812 -74.9931640625 786.958984375 -74.990234375 c 0xffa4
 786.958007812 -35.4501953125 780.623046875 4.0908203125 767.955078125 42.09375 c 0
 767.126953125 44.578125 766.66796875 47.232421875 766.66796875 49.9931640625 c 0
 766.66796875 61.0302734375 773.834960938 70.40625 783.765625 73.716796875 c 0
 786.25 74.544921875 788.891601562 74.9990234375 791.653320312 74.9990234375 c 0
 793.375976562 74.9990234375 795.05859375 74.8251953125 796.68359375 74.4921875 c 0
 805.469726562 72.6943359375 812.594726562 66.2861328125 815.388671875 57.90625 c 0xffc4
 827.095703125 22.7841796875 834.034179688 -13.5009765625 836.208984375 -50 c 1
 1433.3359375 -50 l 1
 1433.3359375 191.66796875 l 1
 1072.19921875 191.66796875 l 1
 1065.42382812 141.102539062 1053.91796875 91.015625 1037.61132812 42.09375 c 0
 1034.30078125 32.1630859375 1024.92675781 25.0068359375 1013.890625 25.0068359375 c 0
 1011.12890625 25.0068359375 1008.47265625 25.455078125 1005.98828125 26.283203125 c 0
 996.057617188 29.59375 988.901367188 38.9677734375 988.901367188 50.00390625 c 0xffb4
 988.901367188 52.765625 989.349609375 55.421875 990.177734375 57.90625 c 0
 1016.36816406 136.48046875 1029.46337891 218.240234375 1029.46337891 300 c 0xff8c
 1029.46337891 381.759765625 1016.36816406 463.51953125 990.177734375 542.09375 c 0
 989.349609375 544.578125 988.890625 547.232421875 988.890625 549.993164062 c 0
 988.890625 561.030273438 996.057617188 570.40625 1005.98828125 573.716796875 c 0
 1008.47265625 574.544921875 1011.11425781 574.999023438 1013.87597656 574.999023438 c 0
 1015.59863281 574.999023438 1017.28125 574.825195312 1018.90625 574.4921875 c 0
 1027.69238281 572.694335938 1034.81738281 566.286132812 1037.61132812 557.90625 c 0
 1053.91796875 508.984375 1065.42382812 458.897460938 1072.19921875 408.33203125 c 1
 1433.3359375 408.33203125 l 1
 1433.3359375 650 l 1
 836.208984375 650 l 1xffb4
 834.034179688 613.500976562 827.095703125 577.215820312 815.388671875 542.09375 c 0
 812.078125 532.163085938 802.704101562 525.006835938 791.66796875 525.006835938 c 0
 788.90625 525.006835938 786.25 525.455078125 783.765625 526.283203125 c 0
 773.834960938 529.59375 766.678710938 538.967773438 766.678710938 550.00390625 c 0xffc4
 766.678710938 552.765625 767.126953125 555.421875 767.955078125 557.90625 c 0
 780.623046875 595.909179688 786.958007812 635.450195312 786.958984375 674.990234375 c 0
 786.958007812 674.993164062 786.958007812 674.997070312 786.95703125 675 c 0
 786.958007812 675.002929688 786.958007812 675.006835938 786.958984375 675.009765625 c 0xffa4
 786.958007812 714.549804688 780.623046875 754.090820312 767.955078125 792.09375 c 0
 767.126953125 794.578125 766.66796875 797.232421875 766.66796875 799.993164062 c 0
 766.66796875 811.030273438 773.834960938 820.40625 783.765625 823.716796875 c 0
 786.25 824.544921875 788.891601562 824.999023438 791.653320312 824.999023438 c 0
 793.375976562 824.999023438 795.05859375 824.825195312 796.68359375 824.4921875 c 0
 805.469726562 822.694335938 812.594726562 816.286132812 815.388671875 807.90625 c 0xffc4
 827.095703125 772.784179688 834.034179688 736.499023438 836.208984375 700 c 1
 1433.3359375 700 l 1
 1433.3359375 748.541015625 l 1
 1382.75390625 750.833984375 1332.41113281 760.067382812 1283.765625 776.283203125 c 0
 1273.83496094 779.59375 1266.67871094 788.967773438 1266.67871094 800.00390625 c 0
 1266.67871094 802.765625 1267.12695312 805.421875 1267.95507812 807.90625 c 0
 1270.74902344 816.286132812 1277.87402344 822.694335938 1286.66015625 824.4921875 c 0
 1288.28515625 824.825195312 1289.953125 824.993164062 1291.67675781 824.993164062 c 0
 1294.4375 824.993164062 1297.09375 824.544921875 1299.578125 823.716796875 c 0
 1351.10253906 806.541015625 1404.71484375 797.952148438 1458.328125 797.951171875 c 0
 1458.33105469 797.952148438 1458.33300781 797.952148438 1458.3359375 797.953125 c 0
 1458.34277344 797.952148438 1458.34863281 797.952148438 1458.35546875 797.951171875 c 0
 1511.96582031 797.953125 1565.57617188 806.541992188 1617.09765625 823.716796875 c 0
 1619.5234375 824.525390625 1622.12304688 824.979492188 1624.81445312 825 c 0xffa4
130.015625 741.16015625 m 0
 138.801757812 739.362304688 145.926757812 732.954101562 148.720703125 724.57421875 c 0
 177.118164062 639.377929688 196.7109375 552.041015625 207.55078125 463.890625 c 1
 791.671875 463.890625 l 2
 805.469726562 463.890625 816.671875 452.688476562 816.671875 438.890625 c 0
 816.671875 425.092773438 805.469726562 413.890625 791.671875 413.890625 c 2
 212.728515625 413.890625 l 1
 215.954101562 375.995605469 217.566894531 337.997802734 217.566894531 300 c 0
 217.566894531 262.002197266 215.954101562 224.004394531 212.728515625 186.109375 c 1
 791.671875 186.109375 l 2
 805.469726562 186.109375 816.671875 174.907226562 816.671875 161.109375 c 0
 816.671875 147.311523438 805.469726562 136.109375 791.671875 136.109375 c 2
 207.55078125 136.109375 l 1
 196.7109375 47.958984375 177.118164062 -39.3779296875 148.720703125 -124.57421875 c 0
 145.41015625 -134.504882812 136.036132812 -141.661132812 125 -141.661132812 c 0
 122.23828125 -141.661132812 119.58203125 -141.212890625 117.09765625 -140.384765625 c 0
 107.166992188 -137.07421875 100.010742188 -127.700195312 100.010742188 -116.6640625 c 0
 100.010742188 -113.90234375 100.458984375 -111.24609375 101.287109375 -108.76171875 c 0
 145.508300781 23.9067382812 167.618896484 161.954101562 167.618896484 300.001342773 c 0
 167.618896484 438.048583984 145.508300781 576.095703125 101.287109375 708.763671875 c 0
 100.458984375 711.247070312 100 713.901367188 100 716.662109375 c 0
 100 727.698242188 107.16796875 737.07421875 117.09765625 740.384765625 c 0
 119.58203125 741.212890625 122.223632812 741.666992188 124.985351562 741.666992188 c 0
 126.708007812 741.666992188 128.390625 741.493164062 130.015625 741.16015625 c 0
1077.33398438 358.33203125 m 1
 1078.72607422 338.912597656 1079.42211914 319.456298828 1079.42211914 300 c 0xff8c
 1079.42211914 280.543701172 1078.72607422 261.087402344 1077.33398438 241.66796875 c 1
 1433.3359375 241.66796875 l 1
 1433.3359375 358.33203125 l 1
 1077.33398438 358.33203125 l 1
EndSplineSet
EndChar

StartChar: U120a1
Encoding: 264 73889 8
Width: 2250
VWidth: 100
Flags: W
HStem: -25 50<818.457 1322.23> 163.914 50<200.639 760.912 1506.19 1933.34> 175 50<840.43 1322.23> 375 50<840.43 1322.23> 386.086 50<200.639 760.912 1506.19 1933.34> 575 50<818.457 1322.23> 748.541 49.4102<1202.49 1322.23 1372.23 1491.96 1813.61 1933.34 1983.34 2103.07> 776.283 48.209<1155.69 1262.09 1432.37 1537.45 1766.81 1873.2 2043.48 2148.56>
VStem: 154.084 49.9944<152.608 447.392> 711.12 48.71<-223.557 -139.464 739.464 823.557> 792.255 48.175<229.906 370.094> 1322.23 50<-224.799 -25 25 175 225 375 425 575 625 748.541> 1405.57 48.71<-56.8072 29.4607 570.539 656.807> 1459.64 49.9944<152.608 447.39> 1933.34 50<-224.799 163.914 213.914 386.082 436.082 748.541>
LayerCount: 2
Fore
SplineSet
1513.70507812 825 m 0x86fe
 1513.76953125 825 1513.82324219 825.004882812 1513.88769531 825.004882812 c 0
 1524.92480469 825.004882812 1534.30078125 817.836914062 1537.61132812 807.90625 c 0
 1538.43945312 805.421875 1538.8984375 802.767578125 1538.8984375 800.006835938 c 0
 1538.8984375 788.969726562 1531.73144531 779.59375 1521.80078125 776.283203125 c 0x85fe
 1473.15332031 760.067382812 1422.80957031 750.833984375 1372.2265625 748.541015625 c 1x86fe
 1372.2265625 -200 l 2
 1372.2265625 -213.797851562 1361.02441406 -225 1347.2265625 -225 c 0
 1333.42871094 -225 1322.2265625 -213.797851562 1322.2265625 -200 c 2
 1322.2265625 -25 l 1
 808.986328125 -25 l 1
 796.249023438 -86.6416015625 779.891601562 -147.72265625 759.830078125 -207.90625 c 0
 756.51953125 -217.836914062 747.145507812 -224.993164062 736.109375 -224.993164062 c 0
 733.34765625 -224.993164062 730.69140625 -224.544921875 728.20703125 -223.716796875 c 0
 718.276367188 -220.40625 711.120117188 -211.032226562 711.120117188 -199.99609375 c 0
 711.120117188 -197.235351562 711.568359375 -194.578125 712.396484375 -192.09375 c 0
 765.635253906 -32.380859375 792.254638672 133.809570312 792.254638672 300 c 0
 792.254638672 466.190429688 765.635253906 632.380859375 712.396484375 792.09375 c 0
 711.568359375 794.578125 711.109375 797.232421875 711.109375 799.993164062 c 0
 711.109375 811.030273438 718.276367188 820.40625 728.20703125 823.716796875 c 0
 730.69140625 824.544921875 733.333007812 824.999023438 736.094726562 824.999023438 c 0
 737.817382812 824.999023438 739.5 824.825195312 741.125 824.4921875 c 0x85fe
 749.911132812 822.694335938 757.036132812 816.286132812 759.830078125 807.90625 c 0
 779.891601562 747.72265625 796.249023438 686.641601562 808.986328125 625 c 1
 1322.2265625 625 l 1
 1322.2265625 748.541015625 l 1x86fe
 1271.64355469 750.833984375 1221.29980469 760.067382812 1172.65234375 776.283203125 c 0
 1162.72167969 779.59375 1155.56542969 788.967773438 1155.56542969 800.00390625 c 0
 1155.56542969 802.765625 1156.01367188 805.421875 1156.84179688 807.90625 c 0
 1159.63574219 816.286132812 1166.76074219 822.694335938 1175.546875 824.4921875 c 0x85fe
 1177.171875 824.825195312 1178.83984375 824.993164062 1180.56347656 824.993164062 c 0
 1183.32421875 824.993164062 1185.98046875 824.544921875 1188.46484375 823.716796875 c 0
 1239.9921875 806.541015625 1293.60546875 797.952148438 1347.21875 797.951171875 c 0
 1347.22167969 797.952148438 1347.22363281 797.952148438 1347.2265625 797.953125 c 0
 1347.23339844 797.952148438 1347.23925781 797.952148438 1347.24609375 797.951171875 c 0
 1400.85546875 797.953125 1454.46484375 806.541992188 1505.98828125 823.716796875 c 0
 1508.4140625 824.525390625 1511.01367188 824.979492188 1513.70507812 825 c 0x86fe
2124.81445312 825 m 0
 2124.87890625 825 2124.93261719 825.004882812 2124.99707031 825.004882812 c 0
 2136.03417969 825.004882812 2145.41015625 817.836914062 2148.72070312 807.90625 c 0
 2149.54882812 805.421875 2150.0078125 802.767578125 2150.0078125 800.006835938 c 0
 2150.0078125 788.969726562 2142.84082031 779.59375 2132.91015625 776.283203125 c 0x85fe
 2084.26367188 760.067382812 2033.91992188 750.833984375 1983.3359375 748.541015625 c 1
 1983.3359375 -200 l 2
 1983.3359375 -213.797851562 1972.13378906 -225 1958.3359375 -225 c 0
 1944.53808594 -225 1933.3359375 -213.797851562 1933.3359375 -200 c 2
 1933.3359375 163.9140625 l 1
 1500.97460938 163.9140625 l 1
 1492.15820312 94.576171875 1476.62207031 25.8837890625 1454.27539062 -41.15625 c 0
 1450.96484375 -51.0869140625 1441.59082031 -58.2431640625 1430.5546875 -58.2431640625 c 0
 1427.79296875 -58.2431640625 1425.13671875 -57.794921875 1422.65234375 -56.966796875 c 0
 1412.72167969 -53.65625 1405.56542969 -44.2822265625 1405.56542969 -33.24609375 c 0
 1405.56542969 -30.484375 1406.01367188 -27.828125 1406.84179688 -25.34375 c 0
 1442.03955078 80.25 1459.63842773 190.125 1459.63842773 300 c 0
 1459.63842773 409.875 1442.03955078 519.75 1406.84179688 625.34375 c 0
 1406.01367188 627.828125 1405.5546875 630.482421875 1405.5546875 633.243164062 c 0
 1405.5546875 644.280273438 1412.72167969 653.65625 1422.65234375 656.966796875 c 0
 1425.13671875 657.794921875 1427.77832031 658.249023438 1430.54003906 658.249023438 c 0
 1432.26269531 658.249023438 1433.9453125 658.075195312 1435.5703125 657.7421875 c 0
 1444.35644531 655.944335938 1451.48144531 649.536132812 1454.27539062 641.15625 c 0
 1476.62207031 574.115234375 1492.15820312 505.421875 1500.97460938 436.08203125 c 1
 1933.3359375 436.08203125 l 1
 1933.3359375 748.541015625 l 1xc6fe
 1882.75390625 750.833984375 1832.41113281 760.067382812 1783.765625 776.283203125 c 0
 1773.83496094 779.59375 1766.67871094 788.967773438 1766.67871094 800.00390625 c 0
 1766.67871094 802.765625 1767.12695312 805.421875 1767.95507812 807.90625 c 0
 1770.74902344 816.286132812 1777.87402344 822.694335938 1786.66015625 824.4921875 c 0x85fe
 1788.28515625 824.825195312 1789.953125 824.993164062 1791.67675781 824.993164062 c 0
 1794.4375 824.993164062 1797.09375 824.544921875 1799.578125 823.716796875 c 0
 1851.10253906 806.541015625 1904.71484375 797.952148438 1958.328125 797.951171875 c 0
 1958.33105469 797.952148438 1958.33300781 797.952148438 1958.3359375 797.953125 c 0
 1958.34277344 797.952148438 1958.34863281 797.952148438 1958.35546875 797.951171875 c 0x86fe
 2011.96582031 797.953125 2065.57617188 806.541992188 2117.09765625 823.716796875 c 0
 2119.5234375 824.525390625 2122.12304688 824.979492188 2124.81445312 825 c 0
123.505859375 658.205078125 m 0
 124.0078125 658.235351562 124.474609375 658.25 124.984375 658.25 c 0
 126.70703125 658.25 128.389648438 658.075195312 130.015625 657.7421875 c 0
 138.801757812 655.944335938 145.926757812 649.536132812 148.720703125 641.15625 c 0
 171.067382812 574.116210938 186.603515625 505.423828125 195.419921875 436.0859375 c 1
 736.11328125 436.08203125 l 2
 749.911132812 436.08203125 761.11328125 424.879882812 761.11328125 411.08203125 c 0
 761.11328125 397.284179688 749.911132812 386.08203125 736.11328125 386.08203125 c 2
 200.638671875 386.0859375 l 1
 202.931640625 357.436523438 204.078125 328.718261719 204.078125 300 c 0
 204.078125 271.281738281 202.931640625 242.563476562 200.638671875 213.9140625 c 1
 736.11328125 213.9140625 l 2
 749.911132812 213.9140625 761.11328125 202.711914062 761.11328125 188.9140625 c 0
 761.11328125 175.116210938 749.911132812 163.9140625 736.11328125 163.9140625 c 2
 195.419921875 163.9140625 l 1xccfe
 186.603515625 94.576171875 171.067382812 25.8837890625 148.720703125 -41.15625 c 0
 145.41015625 -51.0869140625 136.036132812 -58.2431640625 125 -58.2431640625 c 0
 122.23828125 -58.2431640625 119.58203125 -57.794921875 117.09765625 -56.966796875 c 0
 107.166992188 -53.65625 100.010742188 -44.2822265625 100.010742188 -33.24609375 c 0
 100.010742188 -30.484375 100.458984375 -27.828125 101.287109375 -25.34375 c 0
 136.484863281 80.25 154.083740234 190.125 154.083740234 300 c 0
 154.083740234 409.875 136.484863281 519.75 101.287109375 625.34375 c 0
 100.458984375 627.828125 100 630.482421875 100 633.243164062 c 0
 100 644.280273438 107.166992188 653.65625 117.09765625 656.966796875 c 0
 119.123046875 657.641601562 121.288085938 658.072265625 123.505859375 658.205078125 c 0
818.45703125 575 m 1
 827.103515625 525.25 833.431640625 475.19921875 837.349609375 425 c 1
 1322.2265625 425 l 1x94fe
 1322.2265625 575 l 1
 818.45703125 575 l 1
1506.19335938 386.08203125 m 1
 1508.48632812 357.43359375 1509.6328125 328.715820312 1509.6328125 299.998046875 c 0
 1509.6328125 271.280273438 1508.48632812 242.5625 1506.19335938 213.9140625 c 1
 1933.3359375 213.9140625 l 1xc4fe
 1933.3359375 386.08203125 l 1
 1506.19335938 386.08203125 l 1
840.4296875 375 m 1xb4fe
 841.59765625 350.013183594 842.181640625 325.006591797 842.181640625 300 c 0
 842.181640625 274.993408203 841.59765625 249.986816406 840.4296875 225 c 1
 1322.2265625 225 l 1
 1322.2265625 375 l 1
 840.4296875 375 l 1xb4fe
837.349609375 175 m 1
 833.431640625 124.80078125 827.103515625 74.75 818.45703125 25 c 1
 1322.2265625 25 l 1
 1322.2265625 175 l 1
 837.349609375 175 l 1
EndSplineSet
EndChar

StartChar: Ue00f
Encoding: 265 57359 9
Width: 2250
VWidth: 100
Flags: W
HStem: -100 50<778.925 1322.23> -58.332 50<1482.02 1933.34> 136.109 50<212.729 760.912> 191.668 50<1003.26 1322.23> 358.332 50<1003.26 1322.23> 413.891 50<212.729 760.912> 608.332 50<1482.02 1933.34> 650 50<778.925 1322.23> 748.541 49.4102<1202.49 1322.23 1372.23 1415.39 1813.61 1933.34 1983.34 2103.07> 776.283 48.209<1155.69 1262.09 1474.14 1537.45 1766.81 1873.2 2043.48 2148.56>
VStem: 100.011 48.71<-140.225 -52.4881 652.49 740.225> 167.619 49.948<137.541 462.46> 711.12 48.71<-223.557 -101.711 -48.2893 73.5572 526.443 648.289 701.711 823.557> 731.4 49.25<-199.867 -100 -50 49.8638 550.133 650 700 799.864> 914.827 48.71<26.4428 120.946 479.054 573.557> 955.389 49.9587<181.856 418.144> 1322.23 50<-224.799 -100 -50 191.668 241.668 358.332 408.332 650 700 748.541> 1405.57 48.71<-223.557 -118.475> 1432.61 49.4102<-178.064 -58.332 -8.33203 112.934 487.066 608.332 658.332 750.73> 1544.83 42.6816<546.676 567.571> 1850.38 42.6816<548.139 567.464> 1933.34 50<-224.799 -58.332 -8.33203 608.332 658.332 748.541>
LayerCount: 2
Fore
SplineSet
1513.70507812 825 m 0x3c749c
 1513.76953125 825 1513.82324219 825.004882812 1513.88769531 825.004882812 c 0
 1524.92480469 825.004882812 1534.30078125 817.836914062 1537.61132812 807.90625 c 0
 1538.43945312 805.421875 1538.8984375 802.767578125 1538.8984375 800.006835938 c 0
 1538.8984375 788.969726562 1531.73144531 779.59375 1521.80078125 776.283203125 c 0x3c749c
 1503.92578125 770.325195312 1485.82128906 765.310546875 1467.56054688 761.232421875 c 1
 1475.62988281 727.353515625 1480.45117188 692.900390625 1482.01757812 658.33203125 c 1
 1933.3359375 658.33203125 l 1
 1933.3359375 748.541015625 l 1x3eb4bc
 1882.75390625 750.833984375 1832.41113281 760.067382812 1783.765625 776.283203125 c 0
 1773.83496094 779.59375 1766.67871094 788.967773438 1766.67871094 800.00390625 c 0
 1766.67871094 802.765625 1767.12695312 805.421875 1767.95507812 807.90625 c 0
 1770.74902344 816.286132812 1777.87402344 822.694335938 1786.66015625 824.4921875 c 0x3c74bc
 1788.28515625 824.825195312 1789.953125 824.993164062 1791.67675781 824.993164062 c 0
 1794.4375 824.993164062 1797.09375 824.544921875 1799.578125 823.716796875 c 0
 1851.10253906 806.541015625 1904.71484375 797.952148438 1958.328125 797.951171875 c 0
 1958.33105469 797.952148438 1958.33300781 797.952148438 1958.3359375 797.953125 c 0
 1958.34277344 797.952148438 1958.34863281 797.952148438 1958.35546875 797.951171875 c 0x3cb4bc
 2011.96582031 797.953125 2065.57617188 806.541992188 2117.09765625 823.716796875 c 0
 2119.58203125 824.544921875 2122.23632812 825.00390625 2124.99707031 825.00390625 c 0
 2136.03417969 825.00390625 2145.41015625 817.836914062 2148.72070312 807.90625 c 0
 2149.54882812 805.421875 2150.0078125 802.767578125 2150.0078125 800.006835938 c 0
 2150.0078125 788.969726562 2142.84082031 779.59375 2132.91015625 776.283203125 c 0x3c74bc
 2084.26367188 760.067382812 2033.91992188 750.833984375 1983.3359375 748.541015625 c 1
 1983.3359375 -200 l 2
 1983.3359375 -213.797851562 1972.13378906 -225 1958.3359375 -225 c 0
 1944.53808594 -225 1933.3359375 -213.797851562 1933.3359375 -200 c 2
 1933.3359375 -58.33203125 l 1
 1482.01757812 -58.33203125 l 1x7cb4bc
 1479.72558594 -108.916015625 1470.49121094 -159.259765625 1454.27539062 -207.90625 c 0
 1450.96484375 -217.836914062 1441.59082031 -224.993164062 1430.5546875 -224.993164062 c 0
 1427.79296875 -224.993164062 1425.13671875 -224.544921875 1422.65234375 -223.716796875 c 0
 1412.72167969 -220.40625 1405.56542969 -211.032226562 1405.56542969 -199.99609375 c 0x7cb0dc
 1405.56542969 -197.235351562 1406.01367188 -194.578125 1406.84179688 -192.09375 c 0
 1424.01757812 -140.568359375 1432.60644531 -86.955078125 1432.60742188 -33.341796875 c 0
 1432.60644531 -33.3388671875 1432.60644531 -33.3349609375 1432.60546875 -33.33203125 c 0
 1432.60644531 -33.3291015625 1432.60644531 -33.3251953125 1432.60742188 -33.322265625 c 0
 1432.60644531 20.2900390625 1424.01660156 73.90234375 1406.84179688 125.42578125 c 0
 1406.05859375 127.848632812 1405.61230469 130.422851562 1405.61230469 133.104492188 c 0
 1405.61230469 143.487304688 1411.95507812 152.399414062 1420.97265625 156.17578125 c 1
 1420.97265625 156.17578125 1419.83293721 157.322295894 1419.82620185 157.322295894 c 0
 1419.82618189 157.322295894 1419.82617187 157.322285824 1419.82617188 157.322265625 c 1
 1415.30175781 161.84765625 1412.50097656 168.104492188 1412.50097656 175.00390625 c 0
 1412.50097656 181.90234375 1415.30175781 188.15234375 1419.82617188 192.677734375 c 2
 1527.1484375 300 l 1
 1527.1484375 300 1419.82617188 407.329101562 1419.82617188 407.322265625 c 1
 1415.30175781 411.84765625 1412.50097656 418.104492188 1412.50097656 425.00390625 c 0
 1412.50097656 431.90234375 1415.30175781 438.15234375 1419.82617188 442.677734375 c 2
 1419.82617188 442.677734375 1420.97297584 443.793880254 1420.97297584 443.823663118 c 0
 1420.97297584 443.823949252 1420.97286999 443.824135114 1420.97265625 443.82421875 c 0
 1411.95507812 447.600585938 1405.63574219 456.50390625 1405.63574219 466.885742188 c 0
 1405.63574219 469.568359375 1406.05859375 472.151367188 1406.84179688 474.57421875 c 0
 1424.01757812 526.100585938 1432.60546875 579.716796875 1432.60546875 633.33203125 c 0
 1432.60546875 673.366210938 1427.8125 713.40234375 1418.23632812 752.56640625 c 1
 1402.94824219 750.583984375 1387.59960938 749.237304688 1372.2265625 748.541015625 c 1
 1372.2265625 -200 l 2
 1372.2265625 -213.797851562 1361.02441406 -225 1347.2265625 -225 c 0
 1333.42871094 -225 1322.2265625 -213.797851562 1322.2265625 -200 c 2
 1322.2265625 -100 l 1
 780.650390625 -100 l 1xbcb4bc
 778.475585938 -136.499023438 771.537109375 -172.784179688 759.830078125 -207.90625 c 0
 756.51953125 -217.836914062 747.145507812 -224.993164062 736.109375 -224.993164062 c 0
 733.34765625 -224.993164062 730.69140625 -224.544921875 728.20703125 -223.716796875 c 0
 718.276367188 -220.40625 711.120117188 -211.032226562 711.120117188 -199.99609375 c 0xbcb89c
 711.120117188 -197.235351562 711.568359375 -194.578125 712.396484375 -192.09375 c 0
 725.064453125 -154.090820312 731.399414062 -114.549804688 731.400390625 -75.009765625 c 0
 731.399414062 -75.0068359375 731.399414062 -75.0029296875 731.3984375 -75 c 0
 731.399414062 -74.9970703125 731.399414062 -74.9931640625 731.400390625 -74.990234375 c 0xbcb49c
 731.399414062 -35.4501953125 725.064453125 4.0908203125 712.396484375 42.09375 c 0
 711.568359375 44.578125 711.109375 47.232421875 711.109375 49.9931640625 c 0
 711.109375 61.0302734375 718.276367188 70.40625 728.20703125 73.716796875 c 0
 730.69140625 74.544921875 733.333007812 74.9990234375 736.094726562 74.9990234375 c 0
 737.817382812 74.9990234375 739.5 74.8251953125 741.125 74.4921875 c 0
 749.911132812 72.6943359375 757.036132812 66.2861328125 759.830078125 57.90625 c 0xbcb89c
 771.537109375 22.7841796875 778.475585938 -13.5009765625 780.650390625 -50 c 1
 1322.2265625 -50 l 1
 1322.2265625 191.66796875 l 1
 998.125 191.66796875 l 1
 991.349609375 141.102539062 979.84375 91.015625 963.537109375 42.09375 c 0
 960.2265625 32.1630859375 950.852539062 25.0068359375 939.81640625 25.0068359375 c 0
 937.0546875 25.0068359375 934.3984375 25.455078125 931.9140625 26.283203125 c 0
 921.983398438 29.59375 914.827148438 38.9677734375 914.827148438 50.00390625 c 0xbcb69c
 914.827148438 52.765625 915.275390625 55.421875 916.103515625 57.90625 c 0
 942.293945312 136.48046875 955.389160156 218.240234375 955.389160156 300 c 0xbcb19c
 955.389160156 381.759765625 942.293945312 463.51953125 916.103515625 542.09375 c 0
 915.275390625 544.578125 914.81640625 547.232421875 914.81640625 549.993164062 c 0
 914.81640625 561.030273438 921.983398438 570.40625 931.9140625 573.716796875 c 0
 934.3984375 574.544921875 937.040039062 574.999023438 939.801757812 574.999023438 c 0
 941.524414062 574.999023438 943.20703125 574.825195312 944.83203125 574.4921875 c 0
 953.618164062 572.694335938 960.743164062 566.286132812 963.537109375 557.90625 c 0
 979.84375 508.984375 991.349609375 458.897460938 998.125 408.33203125 c 1
 1322.2265625 408.33203125 l 1
 1322.2265625 650 l 1
 780.650390625 650 l 1xbdb69c
 778.475585938 613.500976562 771.537109375 577.215820312 759.830078125 542.09375 c 0
 756.51953125 532.163085938 747.145507812 525.006835938 736.109375 525.006835938 c 0
 733.34765625 525.006835938 730.69140625 525.455078125 728.20703125 526.283203125 c 0
 718.276367188 529.59375 711.120117188 538.967773438 711.120117188 550.00390625 c 0xbdb89c
 711.120117188 552.765625 711.568359375 555.421875 712.396484375 557.90625 c 0
 725.064453125 595.909179688 731.399414062 635.450195312 731.400390625 674.990234375 c 0
 731.399414062 674.993164062 731.399414062 674.997070312 731.3984375 675 c 0
 731.399414062 675.002929688 731.399414062 675.006835938 731.400390625 675.009765625 c 0xbdb49c
 731.399414062 714.549804688 725.064453125 754.090820312 712.396484375 792.09375 c 0
 711.568359375 794.578125 711.109375 797.232421875 711.109375 799.993164062 c 0
 711.109375 811.030273438 718.276367188 820.40625 728.20703125 823.716796875 c 0
 730.69140625 824.544921875 733.333007812 824.999023438 736.094726562 824.999023438 c 0
 737.817382812 824.999023438 739.5 824.825195312 741.125 824.4921875 c 0
 749.911132812 822.694335938 757.036132812 816.286132812 759.830078125 807.90625 c 0xbd789c
 771.537109375 772.784179688 778.475585938 736.499023438 780.650390625 700 c 1
 1322.2265625 700 l 1
 1322.2265625 748.541015625 l 1x3db49c
 1271.64355469 750.833984375 1221.29980469 760.067382812 1172.65234375 776.283203125 c 0
 1162.72167969 779.59375 1155.56542969 788.967773438 1155.56542969 800.00390625 c 0
 1155.56542969 802.765625 1156.01367188 805.421875 1156.84179688 807.90625 c 0
 1159.63574219 816.286132812 1166.76074219 822.694335938 1175.546875 824.4921875 c 0x3c749c
 1177.171875 824.825195312 1178.83984375 824.993164062 1180.56347656 824.993164062 c 0
 1183.32421875 824.993164062 1185.98046875 824.544921875 1188.46484375 823.716796875 c 0
 1239.9921875 806.541015625 1293.60546875 797.952148438 1347.21875 797.951171875 c 0
 1347.22167969 797.952148438 1347.22363281 797.952148438 1347.2265625 797.953125 c 0
 1347.23339844 797.952148438 1347.23925781 797.952148438 1347.24609375 797.951171875 c 0x3cb49c
 1366.796875 797.952148438 1386.34765625 799.108398438 1405.796875 801.392578125 c 1
 1406.34667969 811.768554688 1413.23046875 820.485351562 1422.65234375 823.716796875 c 0
 1425.13671875 824.544921875 1427.77832031 824.999023438 1430.54003906 824.999023438 c 0
 1432.26269531 824.999023438 1433.9453125 824.825195312 1435.5703125 824.4921875 c 0
 1443.74414062 822.723632812 1450.44238281 816.967773438 1453.4921875 809.3515625 c 1
 1471.171875 813.180664062 1488.69921875 817.954101562 1505.98828125 823.716796875 c 0
 1508.4140625 824.525390625 1511.01367188 824.979492188 1513.70507812 825 c 0x3c749c
130.015625 741.16015625 m 0
 138.801757812 739.362304688 145.926757812 732.954101562 148.720703125 724.57421875 c 0
 177.118164062 639.377929688 196.7109375 552.041015625 207.55078125 463.890625 c 1
 736.11328125 463.890625 l 2
 749.911132812 463.890625 761.11328125 452.688476562 761.11328125 438.890625 c 0
 761.11328125 425.092773438 749.911132812 413.890625 736.11328125 413.890625 c 2
 212.728515625 413.890625 l 1
 215.954101562 375.995605469 217.566894531 337.997802734 217.566894531 300 c 0
 217.566894531 262.002197266 215.954101562 224.004394531 212.728515625 186.109375 c 1
 736.11328125 186.109375 l 2
 749.911132812 186.109375 761.11328125 174.907226562 761.11328125 161.109375 c 0
 761.11328125 147.311523438 749.911132812 136.109375 736.11328125 136.109375 c 2
 207.55078125 136.109375 l 1
 196.7109375 47.958984375 177.118164062 -39.3779296875 148.720703125 -124.57421875 c 0
 145.41015625 -134.504882812 136.036132812 -141.661132812 125 -141.661132812 c 0
 122.23828125 -141.661132812 119.58203125 -141.212890625 117.09765625 -140.384765625 c 0
 107.166992188 -137.07421875 100.010742188 -127.700195312 100.010742188 -116.6640625 c 0
 100.010742188 -113.90234375 100.458984375 -111.24609375 101.287109375 -108.76171875 c 0
 145.508300781 23.9067382812 167.618896484 161.954101562 167.618896484 300.001342773 c 0
 167.618896484 438.048583984 145.508300781 576.095703125 101.287109375 708.763671875 c 0
 100.458984375 711.247070312 100 713.901367188 100 716.662109375 c 0
 100 727.698242188 107.16796875 737.07421875 117.09765625 740.384765625 c 0
 119.58203125 741.212890625 122.223632812 741.666992188 124.985351562 741.666992188 c 0
 126.708007812 741.666992188 128.390625 741.493164062 130.015625 741.16015625 c 0
1482.01757812 608.33203125 m 1x7e30bc
 1480.13671875 566.848632812 1473.56738281 525.53125 1462.32226562 485.173828125 c 1
 1462.32226562 485.173828125 1544.82617292 567.660159587 1544.82617292 567.677731992 c 0
 1544.82617292 567.677733136 1544.82617257 567.67773393 1544.82617188 567.677734375 c 1
 1547.88183594 570.733398438 1551.73535156 572.997070312 1556.03320312 574.1484375 c 0
 1558.09960938 574.702148438 1560.26660156 575.00390625 1562.50683594 575.00390625 c 0
 1569.40625 575.00390625 1575.65625 572.203125 1580.18164062 567.677734375 c 0
 1584.70703125 563.15234375 1587.5078125 556.895507812 1587.5078125 549.99609375 c 0
 1587.5078125 543.09765625 1584.70703125 536.84765625 1580.18164062 532.322265625 c 2
 1472.859375 425 l 1
 1472.859375 425 1580.14844678 317.677731437 1580.18163405 317.677731437 c 0
 1580.18163722 317.677731437 1580.18163941 317.677732416 1580.18164062 317.677734375 c 1
 1584.70605469 313.15234375 1587.49414062 306.8828125 1587.49414062 299.983398438 c 0
 1587.49414062 294.032226562 1585.41015625 288.5625 1581.93164062 284.267578125 c 0
 1581.37890625 283.583984375 1580.80273438 282.943359375 1580.18164062 282.322265625 c 2
 1472.859375 175 l 1
 1472.859375 175 1580.18164062 67.6708984375 1580.18164062 67.677734375 c 1
 1584.70703125 63.15234375 1587.5078125 56.8955078125 1587.5078125 49.99609375 c 0
 1587.5078125 43.09765625 1584.70703125 36.84765625 1580.18164062 32.322265625 c 0
 1575.65625 27.796875 1569.39941406 24.99609375 1562.5 24.99609375 c 0
 1555.6015625 24.99609375 1549.3515625 27.796875 1544.82617188 32.322265625 c 2
 1462.32226562 114.826171875 l 1
 1473.56738281 74.46875 1480.13671875 33.1513671875 1482.01757812 -8.33203125 c 1
 1933.3359375 -8.33203125 l 1
 1933.3359375 608.33203125 l 1
 1482.01757812 608.33203125 l 1x7e30bc
1868.05859375 575 m 0
 1874.95703125 575 1881.2109375 572.203125 1885.73632812 567.677734375 c 0
 1890.26171875 563.15234375 1893.0625 556.895507812 1893.0625 549.99609375 c 0
 1893.0625 543.09765625 1890.26171875 536.84765625 1885.73632812 532.322265625 c 2
 1778.4140625 425 l 1
 1778.4140625 425 1885.70313428 317.677731437 1885.73632155 317.677731437 c 0
 1885.73632472 317.677731437 1885.73632691 317.677732416 1885.73632812 317.677734375 c 1
 1890.26074219 313.15234375 1893.04882812 306.8828125 1893.04882812 299.983398438 c 0
 1893.04882812 294.032226562 1890.96484375 288.5625 1887.48632812 284.267578125 c 0
 1886.93359375 283.583984375 1886.35742188 282.943359375 1885.73632812 282.322265625 c 2
 1778.4140625 175 l 1
 1778.4140625 175 1885.73632812 67.6708984375 1885.73632812 67.677734375 c 1
 1890.26171875 63.15234375 1893.0625 56.8955078125 1893.0625 49.99609375 c 0
 1893.0625 43.09765625 1890.26171875 36.84765625 1885.73632812 32.322265625 c 0
 1881.2109375 27.796875 1874.95410156 24.99609375 1868.0546875 24.99609375 c 0
 1861.15625 24.99609375 1854.90625 27.796875 1850.38085938 32.322265625 c 2
 1850.38085938 32.322265625 1725.38085938 157.329101562 1725.38085938 157.322265625 c 1
 1720.85644531 161.84765625 1718.05566406 168.104492188 1718.05566406 175.00390625 c 0
 1718.05566406 181.90234375 1720.85644531 188.15234375 1725.38085938 192.677734375 c 2
 1832.703125 300 l 1
 1832.703125 300 1725.38085938 407.329101562 1725.38085938 407.322265625 c 1
 1720.85644531 411.84765625 1718.05566406 418.104492188 1718.05566406 425.00390625 c 0
 1718.05566406 431.90234375 1720.85644531 438.15234375 1725.38085938 442.677734375 c 2
 1725.38085938 442.677734375 1850.3808602 567.659182251 1850.3808602 567.67773259 c 0
 1850.38085938 567.677734375 l 1
 1853.43652344 570.733398438 1857.29003906 572.997070312 1861.58789062 574.1484375 c 0
 1863.65429688 574.702148438 1865.81933594 575 1868.05859375 575 c 0
1003.25976562 358.33203125 m 1
 1004.65185547 338.912597656 1005.34790039 319.456298828 1005.34790039 300 c 0x3c319c
 1005.34790039 280.543701172 1004.65185547 261.087402344 1003.25976562 241.66796875 c 1
 1322.2265625 241.66796875 l 1
 1322.2265625 358.33203125 l 1
 1003.25976562 358.33203125 l 1
EndSplineSet
EndChar

StartChar: U12362
Encoding: 266 74594 10
Width: 1750
VWidth: 100
Flags: W
HStem: -58.332 50<843.127 1433.34> 136.109 50<212.729 767.121> 197.223 50<952.67 1100 1150 1383.13> 352.777 50<952.668 1100 1150 1383.13> 413.891 49.9883<212.729 767.076> 509.615 48.7197<933.529 1039.86 1210.14 1315.23> 608.332 50<843.127 1433.34> 776.283 48.209<1266.81 1373.2 1543.48 1648.56>
VStem: 100.011 48.71<-140.225 -52.4881 652.49 740.225> 167.619 49.948<137.541 462.46> 766.68 48.709<-223.557 -118.473 51.8048 136.056 463.944 548.195 718.471 823.557> 793.717 49.4097<-178.062 -58.332 -8.33203 111.396 488.604 608.332 658.332 778.063> 866.679 48.71<43.1108 136.944 463.056 556.889> 904.536 43.0149<127.425 472.574> 1100 50<41.869 197.223 247.223 352.777 402.777 481.877> 1433.34 50<-224.799 -58.332 -8.33203 608.332 658.332 748.541>
LayerCount: 2
Fore
SplineSet
1624.81445312 825 m 0xffd3
 1624.87890625 825 1624.93261719 825.004882812 1624.99707031 825.004882812 c 0
 1636.03417969 825.004882812 1645.41015625 817.836914062 1648.72070312 807.90625 c 0
 1649.54882812 805.421875 1650.0078125 802.767578125 1650.0078125 800.006835938 c 0
 1650.0078125 788.969726562 1642.84082031 779.59375 1632.91015625 776.283203125 c 0
 1584.26367188 760.067382812 1533.91992188 750.833984375 1483.3359375 748.541015625 c 1
 1483.3359375 -200 l 2
 1483.3359375 -213.797851562 1472.13378906 -225 1458.3359375 -225 c 0
 1444.53808594 -225 1433.3359375 -213.797851562 1433.3359375 -200 c 2
 1433.3359375 -58.33203125 l 1
 843.126953125 -58.33203125 l 1xffd3
 840.834960938 -108.9140625 831.602539062 -159.2578125 815.388671875 -207.904296875 c 0
 812.079101562 -217.834960938 802.705078125 -224.9921875 791.666992188 -224.9921875 c 0
 788.907226562 -224.9921875 786.250976562 -224.543945312 783.767578125 -223.716796875 c 0
 773.836914062 -220.407226562 766.6796875 -211.033203125 766.6796875 -199.995117188 c 0xffe3
 766.6796875 -197.235351562 767.127929688 -194.579101562 767.955078125 -192.095703125 c 0
 785.129882812 -140.567871094 793.717285156 -86.9509277344 793.717285156 -33.333984375 c 0
 793.717285156 20.2829589844 785.129882812 73.8999023438 767.955078125 125.427734375 c 0
 767.260742188 127.720703125 766.8828125 130.125976562 766.8828125 132.643554688 c 0
 766.8828125 133.819335938 766.963867188 134.9765625 767.12109375 136.109375 c 1
 207.55078125 136.109375 l 1
 196.7109375 47.958984375 177.118164062 -39.3779296875 148.720703125 -124.57421875 c 0
 145.41015625 -134.504882812 136.036132812 -141.661132812 125 -141.661132812 c 0
 122.23828125 -141.661132812 119.58203125 -141.212890625 117.09765625 -140.384765625 c 0
 107.166992188 -137.07421875 100.010742188 -127.700195312 100.010742188 -116.6640625 c 0
 100.010742188 -113.90234375 100.458984375 -111.24609375 101.287109375 -108.76171875 c 0
 145.508300781 23.9067382812 167.618896484 161.954101562 167.618896484 300.001342773 c 0
 167.618896484 438.048583984 145.508300781 576.095703125 101.287109375 708.763671875 c 0
 100.458984375 711.247070312 100 713.901367188 100 716.662109375 c 0
 100 727.698242188 107.16796875 737.07421875 117.09765625 740.384765625 c 0
 119.58203125 741.212890625 122.223632812 741.666992188 124.985351562 741.666992188 c 0
 126.708007812 741.666992188 128.390625 741.493164062 130.015625 741.16015625 c 0
 138.801757812 739.362304688 145.926757812 732.954101562 148.720703125 724.57421875 c 0
 177.118164062 639.377929688 196.7109375 552.041015625 207.55078125 463.890625 c 1
 207.55078125 463.890625 456.251302083 463.87890625 622.049913194 463.87890625 c 0
 704.94921875 463.87890625 767.12109375 463.890625 767.12109375 463.890625 c 1
 766.963867188 465.0234375 766.887695312 466.153320312 766.887695312 467.329101562 c 0
 766.887695312 469.84765625 767.260742188 472.279296875 767.955078125 474.572265625 c 0
 785.129882812 526.100097656 793.717285156 579.716796875 793.717285156 633.333374023 c 0xffd3
 793.717285156 686.949951172 785.129882812 740.56640625 767.955078125 792.09375 c 0
 767.126953125 794.578125 766.66796875 797.232421875 766.66796875 799.993164062 c 0
 766.66796875 811.030273438 773.8359375 820.407226562 783.767578125 823.716796875 c 0
 786.250976562 824.544921875 788.893554688 824.999023438 791.654296875 824.999023438 c 0
 793.376953125 824.999023438 795.05859375 824.82421875 796.68359375 824.4921875 c 0
 805.469726562 822.694335938 812.595703125 816.28515625 815.388671875 807.904296875 c 0xffe3
 831.602539062 759.2578125 840.834960938 708.915039062 843.126953125 658.33203125 c 1
 1433.3359375 658.33203125 l 1
 1433.3359375 748.541015625 l 1
 1382.75390625 750.833984375 1332.41113281 760.067382812 1283.765625 776.283203125 c 0
 1273.83496094 779.59375 1266.67871094 788.967773438 1266.67871094 800.00390625 c 0
 1266.67871094 802.765625 1267.12695312 805.421875 1267.95507812 807.90625 c 0
 1270.74902344 816.286132812 1277.87402344 822.694335938 1286.66015625 824.4921875 c 0
 1288.28515625 824.825195312 1289.953125 824.993164062 1291.67675781 824.993164062 c 0
 1294.4375 824.993164062 1297.09375 824.544921875 1299.578125 823.716796875 c 0
 1351.10253906 806.541015625 1404.71484375 797.952148438 1458.328125 797.951171875 c 0
 1458.33105469 797.952148438 1458.33300781 797.952148438 1458.3359375 797.953125 c 0
 1458.34277344 797.952148438 1458.34863281 797.952148438 1458.35546875 797.951171875 c 0
 1511.96582031 797.953125 1565.57617188 806.541992188 1617.09765625 823.716796875 c 0
 1619.5234375 824.525390625 1622.12304688 824.979492188 1624.81445312 825 c 0xffd3
843.126953125 608.33203125 m 1
 840.833984375 557.750976562 831.602539062 507.408203125 815.388671875 458.763671875 c 0
 814.6328125 456.666992188 813.59765625 454.684570312 812.33984375 452.890625 c 0
 815.052734375 448.904296875 816.658203125 444.068359375 816.671875 438.890625 c 0
 816.671875 425.092773438 805.469726562 413.890625 791.671875 413.890625 c 2
 212.728515625 413.890625 l 1
 215.954101562 375.995605469 217.566894531 337.997802734 217.566894531 300 c 0
 217.566894531 262.002197266 215.954101562 224.004394531 212.728515625 186.109375 c 1
 791.671875 186.109375 l 2
 805.469726562 186.109375 816.671875 174.907226562 816.671875 161.109375 c 0
 816.49609375 156.038085938 814.793945312 151.311523438 812.029296875 147.44140625 c 0
 813.422851562 145.561523438 814.5625 143.467773438 815.388671875 141.236328125 c 0xffe3
 831.602539062 92.591796875 840.833984375 42.2490234375 843.126953125 -8.33203125 c 1
 1433.3359375 -8.33203125 l 1
 1433.3359375 608.33203125 l 1
 843.126953125 608.33203125 l 1
1291.48242188 558.330078125 m 0
 1291.546875 558.330078125 1291.60058594 558.334960938 1291.66503906 558.334960938 c 0
 1302.70214844 558.334960938 1312.078125 551.166992188 1315.38867188 541.236328125 c 0
 1316.21582031 538.752929688 1316.67480469 536.098632812 1316.67480469 533.338867188 c 0
 1316.67480469 522.301757812 1309.50683594 512.924804688 1299.57617188 509.615234375 c 0
 1250.9296875 493.401367188 1200.5859375 484.168945312 1150.00390625 481.876953125 c 1
 1150.00390625 402.77734375 l 1
 1358.3359375 402.77734375 l 2
 1372.13378906 402.77734375 1383.3359375 391.575195312 1383.3359375 377.77734375 c 0
 1383.3359375 363.979492188 1372.13378906 352.77734375 1358.3359375 352.77734375 c 2
 1150.00390625 352.77734375 l 1
 1150.00390625 247.22265625 l 1
 1358.3359375 247.22265625 l 2
 1372.13378906 247.22265625 1383.3359375 236.020507812 1383.3359375 222.22265625 c 0
 1383.3359375 208.424804688 1372.13378906 197.22265625 1358.3359375 197.22265625 c 2
 1150.00390625 197.22265625 l 1
 1150.00390625 66.66796875 l 2
 1150.00390625 52.8701171875 1138.80175781 41.66796875 1125.00390625 41.66796875 c 0
 1111.20605469 41.66796875 1100.00390625 52.8701171875 1100.00390625 66.66796875 c 2
 1100.00390625 197.22265625 l 1
 947.55078125 197.22265625 l 1xffc7
 941.1875 150.416015625 930.486328125 104.055664062 915.388671875 58.76171875 c 0
 912.078125 48.8310546875 902.704101562 41.6748046875 891.66796875 41.6748046875 c 0
 888.90625 41.6748046875 886.25 42.123046875 883.765625 42.951171875 c 0
 873.834960938 46.26171875 866.678710938 55.6357421875 866.678710938 66.671875 c 0xffcb
 866.678710938 69.43359375 867.126953125 72.08984375 867.955078125 74.57421875 c 0
 892.342285156 147.73828125 904.535888672 223.869140625 904.535888672 300 c 0xffc7
 904.535888672 376.130859375 892.342285156 452.26171875 867.955078125 525.42578125 c 0
 867.126953125 527.91015625 866.66796875 530.564453125 866.66796875 533.325195312 c 0
 866.66796875 544.362304688 873.834960938 553.73828125 883.765625 557.048828125 c 0
 886.25 557.876953125 888.891601562 558.331054688 891.653320312 558.331054688 c 0
 893.375976562 558.331054688 895.05859375 558.157226562 896.68359375 557.82421875 c 0
 905.469726562 556.026367188 912.595703125 549.6171875 915.388671875 541.236328125 c 0xffcb
 930.486328125 495.943359375 941.1875 449.583007812 947.55078125 402.77734375 c 1xffc7
 1100.00390625 402.77734375 l 1
 1100.00390625 481.876953125 l 1
 1049.421875 484.168945312 999.079101562 493.401367188 950.431640625 509.615234375 c 0
 940.500976562 512.924804688 933.34375 522.298828125 933.34375 533.336914062 c 0
 933.34375 536.096679688 933.791992188 538.752929688 934.619140625 541.236328125 c 0
 937.412109375 549.6171875 944.537109375 556.025390625 953.322265625 557.82421875 c 0
 954.947265625 558.157226562 956.615234375 558.325195312 958.338867188 558.325195312 c 0
 961.099609375 558.325195312 963.755859375 557.876953125 966.240234375 557.048828125 c 0
 1017.77001953 539.874023438 1071.38671875 531.286621094 1125.00354004 531.286621094 c 0
 1178.62036133 531.286621094 1232.23730469 539.874023438 1283.76757812 557.048828125 c 0
 1286.19335938 557.857421875 1288.79101562 558.309570312 1291.48242188 558.330078125 c 0
952.66796875 352.77734375 m 1
 953.88671875 335.198523611 954.496338184 317.588672753 954.496338184 299.978834332 c 0
 954.496338184 282.383106357 953.887695313 264.787390798 952.669921875 247.22265625 c 1
 1100.00390625 247.22265625 l 1
 1100.00390625 352.77734375 l 1
 952.66796875 352.77734375 l 1
EndSplineSet
EndChar

StartChar: U1234f
Encoding: 267 74575 11
Width: 1750
VWidth: 100
Flags: W
HStem: -58.332 50<843.127 1433.34> 136.109 50<212.729 767.121> 413.891 49.9883<212.729 767.076> 608.332 50<843.127 1433.34> 776.283 48.209<1266.81 1373.2 1543.48 1648.56>
VStem: 100.011 48.71<-140.225 -52.4881 652.49 740.225> 167.619 49.948<137.541 462.46> 766.68 48.709<-223.557 -118.473 51.8048 136.056 463.944 548.195 718.471 823.557> 793.717 49.4097<-178.062 -58.332 -8.33203 111.396 488.604 608.332 658.332 778.063> 1433.34 50<-224.799 -58.332 -8.33203 608.332 658.332 748.541>
LayerCount: 2
Fore
SplineSet
1624.81445312 825 m 0xfec0
 1624.87890625 825 1624.93261719 825.004882812 1624.99707031 825.004882812 c 0
 1636.03417969 825.004882812 1645.41015625 817.836914062 1648.72070312 807.90625 c 0
 1649.54882812 805.421875 1650.0078125 802.767578125 1650.0078125 800.006835938 c 0
 1650.0078125 788.969726562 1642.84082031 779.59375 1632.91015625 776.283203125 c 0
 1584.26367188 760.067382812 1533.91992188 750.833984375 1483.3359375 748.541015625 c 1
 1483.3359375 -200 l 2
 1483.3359375 -213.797851562 1472.13378906 -225 1458.3359375 -225 c 0
 1444.53808594 -225 1433.3359375 -213.797851562 1433.3359375 -200 c 2
 1433.3359375 -58.33203125 l 1
 843.126953125 -58.33203125 l 1xfec0
 840.834960938 -108.9140625 831.602539062 -159.2578125 815.388671875 -207.904296875 c 0
 812.079101562 -217.834960938 802.705078125 -224.9921875 791.666992188 -224.9921875 c 0
 788.907226562 -224.9921875 786.250976562 -224.543945312 783.767578125 -223.716796875 c 0
 773.836914062 -220.407226562 766.6796875 -211.033203125 766.6796875 -199.995117188 c 0xff40
 766.6796875 -197.235351562 767.127929688 -194.579101562 767.955078125 -192.095703125 c 0
 785.129882812 -140.567871094 793.717285156 -86.9509277344 793.717285156 -33.333984375 c 0
 793.717285156 20.2829589844 785.129882812 73.8999023438 767.955078125 125.427734375 c 0
 767.260742188 127.720703125 766.8828125 130.125976562 766.8828125 132.643554688 c 0
 766.8828125 133.819335938 766.963867188 134.9765625 767.12109375 136.109375 c 1
 207.55078125 136.109375 l 1
 196.7109375 47.958984375 177.118164062 -39.3779296875 148.720703125 -124.57421875 c 0
 145.41015625 -134.504882812 136.036132812 -141.661132812 125 -141.661132812 c 0
 122.23828125 -141.661132812 119.58203125 -141.212890625 117.09765625 -140.384765625 c 0
 107.166992188 -137.07421875 100.010742188 -127.700195312 100.010742188 -116.6640625 c 0
 100.010742188 -113.90234375 100.458984375 -111.24609375 101.287109375 -108.76171875 c 0
 145.508300781 23.9067382812 167.618896484 161.954101562 167.618896484 300.001342773 c 0
 167.618896484 438.048583984 145.508300781 576.095703125 101.287109375 708.763671875 c 0
 100.458984375 711.247070312 100 713.901367188 100 716.662109375 c 0
 100 727.698242188 107.16796875 737.07421875 117.09765625 740.384765625 c 0
 119.58203125 741.212890625 122.223632812 741.666992188 124.985351562 741.666992188 c 0
 126.708007812 741.666992188 128.390625 741.493164062 130.015625 741.16015625 c 0
 138.801757812 739.362304688 145.926757812 732.954101562 148.720703125 724.57421875 c 0
 177.118164062 639.377929688 196.7109375 552.041015625 207.55078125 463.890625 c 1
 207.55078125 463.890625 456.251302083 463.87890625 622.049913194 463.87890625 c 0
 704.94921875 463.87890625 767.12109375 463.890625 767.12109375 463.890625 c 1
 766.963867188 465.0234375 766.887695312 466.153320312 766.887695312 467.329101562 c 0
 766.887695312 469.84765625 767.260742188 472.279296875 767.955078125 474.572265625 c 0
 785.129882812 526.100097656 793.717285156 579.716796875 793.717285156 633.333374023 c 0xfec0
 793.717285156 686.949951172 785.129882812 740.56640625 767.955078125 792.09375 c 0
 767.126953125 794.578125 766.66796875 797.232421875 766.66796875 799.993164062 c 0
 766.66796875 811.030273438 773.8359375 820.407226562 783.767578125 823.716796875 c 0
 786.250976562 824.544921875 788.893554688 824.999023438 791.654296875 824.999023438 c 0
 793.376953125 824.999023438 795.05859375 824.82421875 796.68359375 824.4921875 c 0
 805.469726562 822.694335938 812.595703125 816.28515625 815.388671875 807.904296875 c 0xff40
 831.602539062 759.2578125 840.834960938 708.915039062 843.126953125 658.33203125 c 1
 1433.3359375 658.33203125 l 1
 1433.3359375 748.541015625 l 1
 1382.75390625 750.833984375 1332.41113281 760.067382812 1283.765625 776.283203125 c 0
 1273.83496094 779.59375 1266.67871094 788.967773438 1266.67871094 800.00390625 c 0
 1266.67871094 802.765625 1267.12695312 805.421875 1267.95507812 807.90625 c 0
 1270.74902344 816.286132812 1277.87402344 822.694335938 1286.66015625 824.4921875 c 0
 1288.28515625 824.825195312 1289.953125 824.993164062 1291.67675781 824.993164062 c 0
 1294.4375 824.993164062 1297.09375 824.544921875 1299.578125 823.716796875 c 0
 1351.10253906 806.541015625 1404.71484375 797.952148438 1458.328125 797.951171875 c 0
 1458.33105469 797.952148438 1458.33300781 797.952148438 1458.3359375 797.953125 c 0
 1458.34277344 797.952148438 1458.34863281 797.952148438 1458.35546875 797.951171875 c 0
 1511.96582031 797.953125 1565.57617188 806.541992188 1617.09765625 823.716796875 c 0
 1619.5234375 824.525390625 1622.12304688 824.979492188 1624.81445312 825 c 0xfec0
843.126953125 608.33203125 m 1
 840.833984375 557.750976562 831.602539062 507.408203125 815.388671875 458.763671875 c 0
 814.6328125 456.666992188 813.59765625 454.684570312 812.33984375 452.890625 c 0
 815.052734375 448.904296875 816.658203125 444.068359375 816.671875 438.890625 c 0
 816.671875 425.092773438 805.469726562 413.890625 791.671875 413.890625 c 2
 212.728515625 413.890625 l 1
 215.954101562 375.995605469 217.566894531 337.997802734 217.566894531 300 c 0
 217.566894531 262.002197266 215.954101562 224.004394531 212.728515625 186.109375 c 1
 791.671875 186.109375 l 2
 805.469726562 186.109375 816.671875 174.907226562 816.671875 161.109375 c 0
 816.49609375 156.038085938 814.793945312 151.311523438 812.029296875 147.44140625 c 0
 813.422851562 145.561523438 814.5625 143.467773438 815.388671875 141.236328125 c 0xff40
 831.602539062 92.591796875 840.833984375 42.2490234375 843.126953125 -8.33203125 c 1
 1433.3359375 -8.33203125 l 1
 1433.3359375 608.33203125 l 1
 843.126953125 608.33203125 l 1
1210.515625 491.572265625 m 0
 1216.53613281 491.045898438 1221.97558594 488.383789062 1226.01367188 484.345703125 c 0
 1230.5390625 479.8203125 1233.33984375 473.563476562 1233.33984375 466.6640625 c 0
 1233.33984375 459.765625 1230.5390625 453.515625 1226.01367188 448.990234375 c 2
 1077.02734375 300 l 1
 1226.01367164 151.00976539 l 0
 1226.01367188 151.009765625 l 1
 1230.5390625 146.484375 1233.33984375 140.227539062 1233.33984375 133.328125 c 0
 1233.33984375 126.4296875 1230.5390625 120.1796875 1226.01367188 115.654296875 c 0
 1221.48828125 111.12890625 1215.23144531 108.328125 1208.33203125 108.328125 c 0
 1201.43359375 108.328125 1195.18359375 111.12890625 1190.65820312 115.654296875 c 2
 1023.99414084 282.322265835 l 0
 1023.99414062 282.322265625 l 1
 1019.46972656 286.84765625 1016.66894531 293.104492188 1016.66894531 300.00390625 c 0
 1016.66894531 306.90234375 1019.46972656 313.15234375 1023.99414062 317.677734375 c 2
 1023.99414062 317.677734375 1190.66894531 484.338867188 1190.65820312 484.345703125 c 1
 1193.71386719 487.401367188 1197.56738281 489.665039062 1201.86523438 490.81640625 c 0
 1203.93066406 491.370117188 1206.06933594 491.668945312 1208.30957031 491.668945312 c 0
 1209.05273438 491.668945312 1209.78808594 491.635742188 1210.515625 491.572265625 c 0
EndSplineSet
EndChar

StartChar: U12321
Encoding: 268 74529 12
Width: 1750
VWidth: 100
Flags: W
HStem: -58.332 50<843.127 1433.34> 136.109 50<212.729 767.121> 413.891 49.9883<212.729 767.076> 608.332 50<843.127 1433.34> 776.283 48.209<1266.81 1373.2 1543.48 1648.56>
VStem: 100.011 48.71<-140.225 -52.4881 652.49 740.225> 167.619 49.948<137.541 462.46> 766.68 48.709<-223.557 -118.473 51.8048 136.056 463.944 548.195 718.471 823.557> 793.717 49.4097<-178.062 -58.332 -8.33203 111.396 488.604 608.332 658.332 778.063> 1433.34 50<-224.799 -58.332 -8.33203 608.332 658.332 748.541>
LayerCount: 2
Fore
SplineSet
1624.81445312 825 m 0xfec0
 1624.87890625 825 1624.93261719 825.004882812 1624.99707031 825.004882812 c 0
 1636.03417969 825.004882812 1645.41015625 817.836914062 1648.72070312 807.90625 c 0
 1649.54882812 805.421875 1650.0078125 802.767578125 1650.0078125 800.006835938 c 0
 1650.0078125 788.969726562 1642.84082031 779.59375 1632.91015625 776.283203125 c 0
 1584.26367188 760.067382812 1533.91992188 750.833984375 1483.3359375 748.541015625 c 1
 1483.3359375 -200 l 2
 1483.3359375 -213.797851562 1472.13378906 -225 1458.3359375 -225 c 0
 1444.53808594 -225 1433.3359375 -213.797851562 1433.3359375 -200 c 2
 1433.3359375 -58.33203125 l 1
 843.126953125 -58.33203125 l 1xfec0
 840.834960938 -108.9140625 831.602539062 -159.2578125 815.388671875 -207.904296875 c 0
 812.079101562 -217.834960938 802.705078125 -224.9921875 791.666992188 -224.9921875 c 0
 788.907226562 -224.9921875 786.250976562 -224.543945312 783.767578125 -223.716796875 c 0
 773.836914062 -220.407226562 766.6796875 -211.033203125 766.6796875 -199.995117188 c 0xff40
 766.6796875 -197.235351562 767.127929688 -194.579101562 767.955078125 -192.095703125 c 0
 785.129882812 -140.567871094 793.717285156 -86.9509277344 793.717285156 -33.333984375 c 0
 793.717285156 20.2829589844 785.129882812 73.8999023438 767.955078125 125.427734375 c 0
 767.260742188 127.720703125 766.8828125 130.125976562 766.8828125 132.643554688 c 0
 766.8828125 133.819335938 766.963867188 134.9765625 767.12109375 136.109375 c 1
 207.55078125 136.109375 l 1
 196.7109375 47.958984375 177.118164062 -39.3779296875 148.720703125 -124.57421875 c 0
 145.41015625 -134.504882812 136.036132812 -141.661132812 125 -141.661132812 c 0
 122.23828125 -141.661132812 119.58203125 -141.212890625 117.09765625 -140.384765625 c 0
 107.166992188 -137.07421875 100.010742188 -127.700195312 100.010742188 -116.6640625 c 0
 100.010742188 -113.90234375 100.458984375 -111.24609375 101.287109375 -108.76171875 c 0
 145.508300781 23.9067382812 167.618896484 161.954101562 167.618896484 300.001342773 c 0
 167.618896484 438.048583984 145.508300781 576.095703125 101.287109375 708.763671875 c 0
 100.458984375 711.247070312 100 713.901367188 100 716.662109375 c 0
 100 727.698242188 107.16796875 737.07421875 117.09765625 740.384765625 c 0
 119.58203125 741.212890625 122.223632812 741.666992188 124.985351562 741.666992188 c 0
 126.708007812 741.666992188 128.390625 741.493164062 130.015625 741.16015625 c 0
 138.801757812 739.362304688 145.926757812 732.954101562 148.720703125 724.57421875 c 0
 177.118164062 639.377929688 196.7109375 552.041015625 207.55078125 463.890625 c 1
 207.55078125 463.890625 456.251302083 463.87890625 622.049913194 463.87890625 c 0
 704.94921875 463.87890625 767.12109375 463.890625 767.12109375 463.890625 c 1
 766.963867188 465.0234375 766.887695312 466.153320312 766.887695312 467.329101562 c 0
 766.887695312 469.84765625 767.260742188 472.279296875 767.955078125 474.572265625 c 0
 785.129882812 526.100097656 793.717285156 579.716796875 793.717285156 633.333374023 c 0xfec0
 793.717285156 686.949951172 785.129882812 740.56640625 767.955078125 792.09375 c 0
 767.126953125 794.578125 766.66796875 797.232421875 766.66796875 799.993164062 c 0
 766.66796875 811.030273438 773.8359375 820.407226562 783.767578125 823.716796875 c 0
 786.250976562 824.544921875 788.893554688 824.999023438 791.654296875 824.999023438 c 0
 793.376953125 824.999023438 795.05859375 824.82421875 796.68359375 824.4921875 c 0
 805.469726562 822.694335938 812.595703125 816.28515625 815.388671875 807.904296875 c 0xff40
 831.602539062 759.2578125 840.834960938 708.915039062 843.126953125 658.33203125 c 1
 1433.3359375 658.33203125 l 1
 1433.3359375 748.541015625 l 1
 1382.75390625 750.833984375 1332.41113281 760.067382812 1283.765625 776.283203125 c 0
 1273.83496094 779.59375 1266.67871094 788.967773438 1266.67871094 800.00390625 c 0
 1266.67871094 802.765625 1267.12695312 805.421875 1267.95507812 807.90625 c 0
 1270.74902344 816.286132812 1277.87402344 822.694335938 1286.66015625 824.4921875 c 0
 1288.28515625 824.825195312 1289.953125 824.993164062 1291.67675781 824.993164062 c 0
 1294.4375 824.993164062 1297.09375 824.544921875 1299.578125 823.716796875 c 0
 1351.10253906 806.541015625 1404.71484375 797.952148438 1458.328125 797.951171875 c 0
 1458.33105469 797.952148438 1458.33300781 797.952148438 1458.3359375 797.953125 c 0
 1458.34277344 797.952148438 1458.34863281 797.952148438 1458.35546875 797.951171875 c 0
 1511.96582031 797.953125 1565.57617188 806.541992188 1617.09765625 823.716796875 c 0
 1619.5234375 824.525390625 1622.12304688 824.979492188 1624.81445312 825 c 0xfec0
843.126953125 608.33203125 m 1
 840.833984375 557.750976562 831.602539062 507.408203125 815.388671875 458.763671875 c 0
 814.6328125 456.666992188 813.59765625 454.684570312 812.33984375 452.890625 c 0
 815.052734375 448.904296875 816.658203125 444.068359375 816.671875 438.890625 c 0
 816.671875 425.092773438 805.469726562 413.890625 791.671875 413.890625 c 2
 212.728515625 413.890625 l 1
 215.954101562 375.995605469 217.566894531 337.997802734 217.566894531 300 c 0
 217.566894531 262.002197266 215.954101562 224.004394531 212.728515625 186.109375 c 1
 791.671875 186.109375 l 2
 805.469726562 186.109375 816.671875 174.907226562 816.671875 161.109375 c 0
 816.49609375 156.038085938 814.793945312 151.311523438 812.029296875 147.44140625 c 0
 813.422851562 145.561523438 814.5625 143.467773438 815.388671875 141.236328125 c 0xff40
 831.602539062 92.591796875 840.833984375 42.2490234375 843.126953125 -8.33203125 c 1
 1433.3359375 -8.33203125 l 1
 1433.3359375 608.33203125 l 1
 843.126953125 608.33203125 l 1
1210.515625 491.572265625 m 0
 1216.53613281 491.045898438 1221.97558594 488.383789062 1226.01367188 484.345703125 c 0
 1230.5390625 479.8203125 1233.33984375 473.563476562 1233.33984375 466.6640625 c 0
 1233.33984375 459.765625 1230.5390625 453.515625 1226.01367188 448.990234375 c 2
 1077.02734375 300 l 1
 1226.01367164 151.00976539 l 0
 1226.01367188 151.009765625 l 1
 1230.5390625 146.484375 1233.33984375 140.227539062 1233.33984375 133.328125 c 0
 1233.33984375 126.4296875 1230.5390625 120.1796875 1226.01367188 115.654296875 c 0
 1221.48828125 111.12890625 1215.23144531 108.328125 1208.33203125 108.328125 c 0
 1201.43359375 108.328125 1195.18359375 111.12890625 1190.65820312 115.654296875 c 2
 1023.99414084 282.322265835 l 0
 1023.99414062 282.322265625 l 1
 1019.46972656 286.84765625 1016.66894531 293.104492188 1016.66894531 300.00390625 c 0
 1016.66894531 306.90234375 1019.46972656 313.15234375 1023.99414062 317.677734375 c 2
 1023.99414062 317.677734375 1190.66894531 484.338867188 1190.65820312 484.345703125 c 1
 1193.71386719 487.401367188 1197.56738281 489.665039062 1201.86523438 490.81640625 c 0
 1203.93066406 491.370117188 1206.06933594 491.668945312 1208.30957031 491.668945312 c 0
 1209.05273438 491.668945312 1209.78808594 491.635742188 1210.515625 491.572265625 c 0
EndSplineSet
EndChar

StartChar: U12350
Encoding: 269 74576 13
Width: 1750
VWidth: 100
Flags: W
HStem: -58.332 50<843.127 1433.34> 136.109 50<212.729 767.121> 413.891 49.9883<212.729 767.076> 608.332 50<843.127 1433.34> 776.283 48.209<1266.81 1373.2 1543.48 1648.56>
VStem: 100.011 48.71<-140.225 -52.4881 652.49 740.225> 167.619 49.948<137.541 462.46> 766.68 48.709<-223.557 -118.473 51.8048 136.056 463.944 548.195 718.471 823.557> 793.717 49.4097<-178.062 -58.332 -8.33203 111.396 488.604 608.332 658.332 778.063> 1433.34 50<-224.799 -58.332 -8.33203 608.332 658.332 748.541>
LayerCount: 2
Fore
SplineSet
1624.81445312 825 m 0xfec0
 1624.87890625 825 1624.93261719 825.004882812 1624.99707031 825.004882812 c 0
 1636.03417969 825.004882812 1645.41015625 817.836914062 1648.72070312 807.90625 c 0
 1649.54882812 805.421875 1650.0078125 802.767578125 1650.0078125 800.006835938 c 0
 1650.0078125 788.969726562 1642.84082031 779.59375 1632.91015625 776.283203125 c 0
 1584.26367188 760.067382812 1533.91992188 750.833984375 1483.3359375 748.541015625 c 1
 1483.3359375 -200 l 2
 1483.3359375 -213.797851562 1472.13378906 -225 1458.3359375 -225 c 0
 1444.53808594 -225 1433.3359375 -213.797851562 1433.3359375 -200 c 2
 1433.3359375 -58.33203125 l 1
 843.126953125 -58.33203125 l 1xfec0
 840.834960938 -108.9140625 831.602539062 -159.2578125 815.388671875 -207.904296875 c 0
 812.079101562 -217.834960938 802.705078125 -224.9921875 791.666992188 -224.9921875 c 0
 788.907226562 -224.9921875 786.250976562 -224.543945312 783.767578125 -223.716796875 c 0
 773.836914062 -220.407226562 766.6796875 -211.033203125 766.6796875 -199.995117188 c 0xff40
 766.6796875 -197.235351562 767.127929688 -194.579101562 767.955078125 -192.095703125 c 0
 785.129882812 -140.567871094 793.717285156 -86.9509277344 793.717285156 -33.333984375 c 0
 793.717285156 20.2829589844 785.129882812 73.8999023438 767.955078125 125.427734375 c 0
 767.260742188 127.720703125 766.8828125 130.125976562 766.8828125 132.643554688 c 0
 766.8828125 133.819335938 766.963867188 134.9765625 767.12109375 136.109375 c 1
 207.55078125 136.109375 l 1
 196.7109375 47.958984375 177.118164062 -39.3779296875 148.720703125 -124.57421875 c 0
 145.41015625 -134.504882812 136.036132812 -141.661132812 125 -141.661132812 c 0
 122.23828125 -141.661132812 119.58203125 -141.212890625 117.09765625 -140.384765625 c 0
 107.166992188 -137.07421875 100.010742188 -127.700195312 100.010742188 -116.6640625 c 0
 100.010742188 -113.90234375 100.458984375 -111.24609375 101.287109375 -108.76171875 c 0
 145.508300781 23.9067382812 167.618896484 161.954101562 167.618896484 300.001342773 c 0
 167.618896484 438.048583984 145.508300781 576.095703125 101.287109375 708.763671875 c 0
 100.458984375 711.247070312 100 713.901367188 100 716.662109375 c 0
 100 727.698242188 107.16796875 737.07421875 117.09765625 740.384765625 c 0
 119.58203125 741.212890625 122.223632812 741.666992188 124.985351562 741.666992188 c 0
 126.708007812 741.666992188 128.390625 741.493164062 130.015625 741.16015625 c 0
 138.801757812 739.362304688 145.926757812 732.954101562 148.720703125 724.57421875 c 0
 177.118164062 639.377929688 196.7109375 552.041015625 207.55078125 463.890625 c 1
 207.55078125 463.890625 456.251302083 463.87890625 622.049913194 463.87890625 c 0
 704.94921875 463.87890625 767.12109375 463.890625 767.12109375 463.890625 c 1
 766.963867188 465.0234375 766.887695312 466.153320312 766.887695312 467.329101562 c 0
 766.887695312 469.84765625 767.260742188 472.279296875 767.955078125 474.572265625 c 0
 785.129882812 526.100097656 793.717285156 579.716796875 793.717285156 633.333374023 c 0xfec0
 793.717285156 686.949951172 785.129882812 740.56640625 767.955078125 792.09375 c 0
 767.126953125 794.578125 766.66796875 797.232421875 766.66796875 799.993164062 c 0
 766.66796875 811.030273438 773.8359375 820.407226562 783.767578125 823.716796875 c 0
 786.250976562 824.544921875 788.893554688 824.999023438 791.654296875 824.999023438 c 0
 793.376953125 824.999023438 795.05859375 824.82421875 796.68359375 824.4921875 c 0
 805.469726562 822.694335938 812.595703125 816.28515625 815.388671875 807.904296875 c 0xff40
 831.602539062 759.2578125 840.834960938 708.915039062 843.126953125 658.33203125 c 1
 1433.3359375 658.33203125 l 1
 1433.3359375 748.541015625 l 1
 1382.75390625 750.833984375 1332.41113281 760.067382812 1283.765625 776.283203125 c 0
 1273.83496094 779.59375 1266.67871094 788.967773438 1266.67871094 800.00390625 c 0
 1266.67871094 802.765625 1267.12695312 805.421875 1267.95507812 807.90625 c 0
 1270.74902344 816.286132812 1277.87402344 822.694335938 1286.66015625 824.4921875 c 0
 1288.28515625 824.825195312 1289.953125 824.993164062 1291.67675781 824.993164062 c 0
 1294.4375 824.993164062 1297.09375 824.544921875 1299.578125 823.716796875 c 0
 1351.10253906 806.541015625 1404.71484375 797.952148438 1458.328125 797.951171875 c 0
 1458.33105469 797.952148438 1458.33300781 797.952148438 1458.3359375 797.953125 c 0
 1458.34277344 797.952148438 1458.34863281 797.952148438 1458.35546875 797.951171875 c 0
 1511.96582031 797.953125 1565.57617188 806.541992188 1617.09765625 823.716796875 c 0
 1619.5234375 824.525390625 1622.12304688 824.979492188 1624.81445312 825 c 0xfec0
843.126953125 608.33203125 m 1
 840.833984375 557.750976562 831.602539062 507.408203125 815.388671875 458.763671875 c 0
 814.6328125 456.666992188 813.59765625 454.684570312 812.33984375 452.890625 c 0
 815.052734375 448.904296875 816.658203125 444.068359375 816.671875 438.890625 c 0
 816.671875 425.092773438 805.469726562 413.890625 791.671875 413.890625 c 2
 212.728515625 413.890625 l 1
 215.954101562 375.995605469 217.566894531 337.997802734 217.566894531 300 c 0
 217.566894531 262.002197266 215.954101562 224.004394531 212.728515625 186.109375 c 1
 791.671875 186.109375 l 2
 805.469726562 186.109375 816.671875 174.907226562 816.671875 161.109375 c 0
 816.49609375 156.038085938 814.793945312 151.311523438 812.029296875 147.44140625 c 0
 813.422851562 145.561523438 814.5625 143.467773438 815.388671875 141.236328125 c 0xff40
 831.602539062 92.591796875 840.833984375 42.2490234375 843.126953125 -8.33203125 c 1
 1433.3359375 -8.33203125 l 1
 1433.3359375 608.33203125 l 1
 843.126953125 608.33203125 l 1
1210.515625 491.572265625 m 0
 1216.53613281 491.045898438 1221.97558594 488.383789062 1226.01367188 484.345703125 c 0
 1230.5390625 479.8203125 1233.33984375 473.563476562 1233.33984375 466.6640625 c 0
 1233.33984375 459.765625 1230.5390625 453.515625 1226.01367188 448.990234375 c 2
 1077.02734375 300 l 1
 1226.01367164 151.00976539 l 0
 1226.01367188 151.009765625 l 1
 1230.5390625 146.484375 1233.33984375 140.227539062 1233.33984375 133.328125 c 0
 1233.33984375 126.4296875 1230.5390625 120.1796875 1226.01367188 115.654296875 c 0
 1221.48828125 111.12890625 1215.23144531 108.328125 1208.33203125 108.328125 c 0
 1201.43359375 108.328125 1195.18359375 111.12890625 1190.65820312 115.654296875 c 2
 1023.99414084 282.322265835 l 0
 1023.99414062 282.322265625 l 1
 1019.46972656 286.84765625 1016.66894531 293.104492188 1016.66894531 300.00390625 c 0
 1016.66894531 306.90234375 1019.46972656 313.15234375 1023.99414062 317.677734375 c 2
 1023.99414062 317.677734375 1190.66894531 484.338867188 1190.65820312 484.345703125 c 1
 1193.71386719 487.401367188 1197.56738281 489.665039062 1201.86523438 490.81640625 c 0
 1203.93066406 491.370117188 1206.06933594 491.668945312 1208.30957031 491.668945312 c 0
 1209.05273438 491.668945312 1209.78808594 491.635742188 1210.515625 491.572265625 c 0
EndSplineSet
EndChar

StartChar: U12261
Encoding: 270 74337 14
Width: 1250
VWidth: 100
Flags: W
HStem: 275 50<176.463 364.648 435.359 1149.8>
VStem: 100.011 48.71<109.775 214.859 385.141 490.225>
LayerCount: 2
Fore
SplineSet
868.533203125 824.1484375 m 0
 870.599609375 824.702148438 872.766601562 825.00390625 875.006835938 825.00390625 c 0
 881.90625 825.00390625 888.15625 822.203125 892.681640625 817.677734375 c 0
 897.20703125 813.15234375 900.0078125 806.895507812 900.0078125 799.99609375 c 0
 900.0078125 793.09765625 897.20703125 786.84765625 892.681640625 782.322265625 c 2
 435.359375 325 l 1
 1125.00390625 325 l 2
 1138.80175781 325 1150.00390625 313.797851562 1150.00390625 300 c 0
 1150.00390625 286.202148438 1138.80175781 275 1125.00390625 275 c 2
 435.359375 275 l 1
 435.359375 275 892.681640625 -182.329101562 892.681640625 -182.322265625 c 1
 897.20703125 -186.84765625 900.0078125 -193.104492188 900.0078125 -200.00390625 c 0
 900.0078125 -206.90234375 897.20703125 -213.15234375 892.681640625 -217.677734375 c 0
 888.15625 -222.203125 881.899414062 -225.00390625 875 -225.00390625 c 0
 868.1015625 -225.00390625 861.8515625 -222.203125 857.326171875 -217.677734375 c 2
 364.6484375 275 l 1
 176.462890625 275 l 1
 174.169921875 224.416992188 164.936523438 174.073242188 148.720703125 125.42578125 c 0
 145.41015625 115.495117188 136.036132812 108.338867188 125 108.338867188 c 0
 122.23828125 108.338867188 119.58203125 108.787109375 117.09765625 109.615234375 c 0
 107.166992188 112.92578125 100.010742188 122.299804688 100.010742188 133.3359375 c 0
 100.010742188 136.09765625 100.458984375 138.75390625 101.287109375 141.23828125 c 0
 118.462890625 192.765625 127.051757812 246.37890625 127.052734375 299.9921875 c 0
 127.051757812 299.995117188 127.051757812 299.997070312 127.05078125 300 c 0
 127.051757812 300.002929688 127.051757812 300.004882812 127.052734375 300.0078125 c 0
 127.051757812 353.62109375 118.462890625 407.234375 101.287109375 458.76171875 c 0
 100.458984375 461.24609375 100 463.900390625 100 466.661132812 c 0
 100 477.698242188 107.166992188 487.07421875 117.09765625 490.384765625 c 0
 119.58203125 491.212890625 122.223632812 491.666992188 124.985351562 491.666992188 c 0
 126.708007812 491.666992188 128.390625 491.493164062 130.015625 491.16015625 c 0
 138.801757812 489.362304688 145.926757812 482.954101562 148.720703125 474.57421875 c 0
 164.936523438 425.926757812 174.169921875 375.583007812 176.462890625 325 c 1
 364.6484375 325 l 1
 857.326172051 817.677733976 l 0
 857.326171875 817.677734375 l 1
 860.381835938 820.733398438 864.235351562 822.997070312 868.533203125 824.1484375 c 0
EndSplineSet
EndChar

StartChar: U12318
Encoding: 271 74520 15
Width: 1750
VWidth: 100
Flags: W
HStem: -58.332 50<843.127 1433.34> 163.914 50<200.639 816.471> 386.086 50<200.639 816.471> 415.209 50.0586<1483.34 1605.38> 442.951 48.209<1266.81 1352.18 1542.47 1648.56> 608.332 50<843.127 1433.34> 776.283 48.209<1266.81 1373.2 1543.48 1648.56>
VStem: 154.084 49.9944<152.608 447.392> 766.68 48.709<-223.557 -118.473 51.8048 156.889 443.111 548.195 718.471 823.557> 793.717 49.4097<-178.062 -58.332 -8.33203 111.396 488.604 608.332 658.332 778.063> 1433.35 49.9905<-224.799 -58.332 -8.29422 108.468 165.91 415.209 491.412 608.332 658.332 748.541>
LayerCount: 2
Fore
SplineSet
1624.81445312 825 m 0xcf60
 1624.87890625 825 1624.93261719 825.004882812 1624.99707031 825.004882812 c 0
 1636.03417969 825.004882812 1645.41015625 817.836914062 1648.72070312 807.90625 c 0
 1649.54882812 805.421875 1650.0078125 802.767578125 1650.0078125 800.006835938 c 0
 1650.0078125 788.969726562 1642.84082031 779.59375 1632.91015625 776.283203125 c 0
 1584.26367188 760.067382812 1533.91992188 750.833984375 1483.3359375 748.541015625 c 1
 1483.3359375 465.267578125 l 1xd760
 1528.57421875 467.522460938 1573.58105469 475.87890625 1617.09765625 490.384765625 c 0
 1619.58203125 491.212890625 1622.23632812 491.671875 1624.99707031 491.671875 c 0
 1636.03417969 491.671875 1645.41015625 484.504882812 1648.72070312 474.57421875 c 0
 1649.54882812 472.08984375 1650.0078125 469.435546875 1650.0078125 466.674804688 c 0
 1650.0078125 455.637695312 1642.84082031 446.26171875 1632.91015625 442.951171875 c 0xcf60
 1584.26367188 426.734375 1533.91992188 417.501953125 1483.3359375 415.208984375 c 1
 1483.3359375 -200 l 2
 1483.3359375 -213.797851562 1472.13378906 -225 1458.3359375 -225 c 0
 1444.53808594 -225 1433.3359375 -213.797851562 1433.3359375 -200 c 2
 1433.3359375 -58.33203125 l 1
 843.126953125 -58.33203125 l 1xd760
 840.834960938 -108.9140625 831.602539062 -159.2578125 815.388671875 -207.904296875 c 0
 812.079101562 -217.834960938 802.705078125 -224.9921875 791.666992188 -224.9921875 c 0
 788.907226562 -224.9921875 786.250976562 -224.543945312 783.767578125 -223.716796875 c 0
 773.836914062 -220.407226562 766.6796875 -211.033203125 766.6796875 -199.995117188 c 0xd7a0
 766.6796875 -197.235351562 767.127929688 -194.579101562 767.955078125 -192.095703125 c 0
 785.129882812 -140.567871094 793.717285156 -86.9509277344 793.717285156 -33.333984375 c 0xd760
 793.717285156 20.2829589844 785.129882812 73.8999023438 767.955078125 125.427734375 c 0
 767.127929688 127.911132812 766.668945312 130.565429688 766.668945312 133.325195312 c 0
 766.668945312 144.362304688 773.836914062 153.73828125 783.767578125 157.048828125 c 0
 786.250976562 157.876953125 788.893554688 158.331054688 791.654296875 158.331054688 c 0
 793.376953125 158.331054688 795.05859375 158.15625 796.68359375 157.82421875 c 0
 805.469726562 156.026367188 812.595703125 149.6171875 815.388671875 141.236328125 c 0xd7a0
 831.602539062 92.591796875 840.833984375 42.2490234375 843.126953125 -8.33203125 c 1
 1433.3359375 -8.33203125 l 1
 1433.3359375 -8.33203125 1433.34548611 43.6549479167 1433.34548611 78.3135127315 c 0
 1433.34548611 95.6427951389 1433.34309896 108.639973958 1433.3359375 108.640625 c 0
 1432.37109375 108.52734375 1431.41015625 108.467773438 1430.41503906 108.467773438 c 0
 1423.58691406 108.467773438 1417.39453125 111.2109375 1412.88085938 115.654296875 c 2
 1246.21679709 282.322265835 l 0
 1246.21679688 282.322265625 l 1
 1241.69238281 286.84765625 1238.89160156 293.104492188 1238.89160156 300.00390625 c 0
 1238.89160156 306.90234375 1241.69238281 313.15234375 1246.21679688 317.677734375 c 2
 1353.27539062 424.73828125 l 1
 1329.83300781 429.283203125 1306.61035156 435.3359375 1283.765625 442.951171875 c 0
 1273.83496094 446.26171875 1266.67871094 455.635742188 1266.67871094 466.671875 c 0
 1266.67871094 469.43359375 1267.12695312 472.08984375 1267.95507812 474.57421875 c 0
 1270.74902344 482.954101562 1277.87402344 489.362304688 1286.66015625 491.16015625 c 0
 1288.28515625 491.493164062 1289.953125 491.661132812 1291.67675781 491.661132812 c 0
 1294.4375 491.661132812 1297.09375 491.212890625 1299.578125 490.384765625 c 0
 1331.39648438 479.778320312 1364.01367188 472.455078125 1396.93359375 468.3984375 c 1
 1396.93359375 468.3984375 1412.88086583 484.327168505 1412.88086583 484.345689161 c 0
 1412.88086583 484.345695961 1412.88086368 484.345700616 1412.88085938 484.345703125 c 1
 1415.93652344 487.401367188 1419.79003906 489.665039062 1424.08789062 490.81640625 c 0
 1426.07421875 491.325195312 1428.12109375 491.599609375 1430.265625 491.599609375 c 0
 1431.3046875 491.599609375 1432.32910156 491.53515625 1433.3359375 491.412109375 c 1
 1433.3359375 608.33203125 l 1
 843.126953125 608.33203125 l 1xcf60
 840.833984375 557.750976562 831.602539062 507.408203125 815.388671875 458.763671875 c 0
 812.079101562 448.833007812 802.705078125 441.67578125 791.666992188 441.67578125 c 0
 788.907226562 441.67578125 786.250976562 442.124023438 783.767578125 442.951171875 c 0
 773.836914062 446.26171875 766.6796875 455.634765625 766.6796875 466.672851562 c 0xcfa0
 766.6796875 469.432617188 767.127929688 472.088867188 767.955078125 474.572265625 c 0
 785.129882812 526.100097656 793.717285156 579.716796875 793.717285156 633.333374023 c 0xcf60
 793.717285156 686.949951172 785.129882812 740.56640625 767.955078125 792.09375 c 0
 767.126953125 794.578125 766.66796875 797.232421875 766.66796875 799.993164062 c 0
 766.66796875 811.030273438 773.8359375 820.407226562 783.767578125 823.716796875 c 0
 786.250976562 824.544921875 788.893554688 824.999023438 791.654296875 824.999023438 c 0
 793.376953125 824.999023438 795.05859375 824.82421875 796.68359375 824.4921875 c 0
 805.469726562 822.694335938 812.595703125 816.28515625 815.388671875 807.904296875 c 0xcfa0
 831.602539062 759.2578125 840.834960938 708.915039062 843.126953125 658.33203125 c 1
 1433.3359375 658.33203125 l 1
 1433.3359375 748.541015625 l 1
 1382.75390625 750.833984375 1332.41113281 760.067382812 1283.765625 776.283203125 c 0
 1273.83496094 779.59375 1266.67871094 788.967773438 1266.67871094 800.00390625 c 0
 1266.67871094 802.765625 1267.12695312 805.421875 1267.95507812 807.90625 c 0
 1270.74902344 816.286132812 1277.87402344 822.694335938 1286.66015625 824.4921875 c 0
 1288.28515625 824.825195312 1289.953125 824.993164062 1291.67675781 824.993164062 c 0
 1294.4375 824.993164062 1297.09375 824.544921875 1299.578125 823.716796875 c 0
 1351.10253906 806.541015625 1404.71484375 797.952148438 1458.328125 797.951171875 c 0
 1458.33105469 797.952148438 1458.33300781 797.952148438 1458.3359375 797.953125 c 0
 1458.34277344 797.952148438 1458.34863281 797.952148438 1458.35546875 797.951171875 c 0
 1511.96582031 797.953125 1565.57617188 806.541992188 1617.09765625 823.716796875 c 0
 1619.5234375 824.525390625 1622.12304688 824.979492188 1624.81445312 825 c 0xcf60
123.505859375 658.205078125 m 0
 124.0078125 658.235351562 124.474609375 658.25 124.984375 658.25 c 0
 126.70703125 658.25 128.389648438 658.075195312 130.015625 657.7421875 c 0
 138.801757812 655.944335938 145.926757812 649.536132812 148.720703125 641.15625 c 0
 171.067382812 574.116210938 186.603515625 505.423828125 195.419921875 436.0859375 c 1
 791.671875 436.08203125 l 2
 805.469726562 436.08203125 816.671875 424.879882812 816.671875 411.08203125 c 0
 816.671875 397.284179688 805.469726562 386.08203125 791.671875 386.08203125 c 2
 200.638671875 386.0859375 l 1xe720
 202.931640625 357.436523438 204.078125 328.718261719 204.078125 300 c 0
 204.078125 271.281738281 202.931640625 242.563476562 200.638671875 213.9140625 c 1
 791.671875 213.9140625 l 2
 805.469726562 213.9140625 816.671875 202.711914062 816.671875 188.9140625 c 0
 816.671875 175.116210938 805.469726562 163.9140625 791.671875 163.9140625 c 2
 195.419921875 163.9140625 l 1
 186.603515625 94.576171875 171.067382812 25.8837890625 148.720703125 -41.15625 c 0
 145.41015625 -51.0869140625 136.036132812 -58.2431640625 125 -58.2431640625 c 0
 122.23828125 -58.2431640625 119.58203125 -57.794921875 117.09765625 -56.966796875 c 0
 107.166992188 -53.65625 100.010742188 -44.2822265625 100.010742188 -33.24609375 c 0
 100.010742188 -30.484375 100.458984375 -27.828125 101.287109375 -25.34375 c 0
 136.484863281 80.25 154.083740234 190.125 154.083740234 300 c 0
 154.083740234 409.875 136.484863281 519.75 101.287109375 625.34375 c 0
 100.458984375 627.828125 100 630.482421875 100 633.243164062 c 0
 100 644.280273438 107.166992188 653.65625 117.09765625 656.966796875 c 0
 119.123046875 657.641601562 121.288085938 658.072265625 123.505859375 658.205078125 c 0
988.29296875 491.572265625 m 0
 994.313476562 491.045898438 999.752929688 488.383789062 1003.79101562 484.345703125 c 0
 1008.31640625 479.8203125 1011.1171875 473.563476562 1011.1171875 466.6640625 c 0
 1011.1171875 459.765625 1008.31640625 453.515625 1003.79101562 448.990234375 c 2
 854.8046875 300 l 1
 1003.79101539 151.00976539 l 0
 1003.79101562 151.009765625 l 1
 1008.31640625 146.484375 1011.1171875 140.227539062 1011.1171875 133.328125 c 0
 1011.1171875 126.4296875 1008.31640625 120.1796875 1003.79101562 115.654296875 c 0
 999.265625 111.12890625 993.008789062 108.328125 986.109375 108.328125 c 0
 979.2109375 108.328125 972.9609375 111.12890625 968.435546875 115.654296875 c 2
 801.771484585 282.322265835 l 0
 801.771484375 282.322265625 l 1
 797.247070312 286.84765625 794.446289062 293.104492188 794.446289062 300.00390625 c 0
 794.446289062 306.90234375 797.247070312 313.15234375 801.771484375 317.677734375 c 2
 801.771484375 317.677734375 968.446289062 484.338867188 968.435546875 484.345703125 c 1
 971.491210938 487.401367188 975.344726562 489.665039062 979.642578125 490.81640625 c 0
 981.708007812 491.370117188 983.846679688 491.668945312 986.086914062 491.668945312 c 0
 986.830078125 491.668945312 987.565429688 491.635742188 988.29296875 491.572265625 c 0
1210.515625 491.572265625 m 0
 1216.53613281 491.045898438 1221.97558594 488.383789062 1226.01367188 484.345703125 c 0
 1230.5390625 479.8203125 1233.33984375 473.563476562 1233.33984375 466.6640625 c 0
 1233.33984375 459.765625 1230.5390625 453.515625 1226.01367188 448.990234375 c 2
 1077.02734375 300 l 1
 1226.01367164 151.00976539 l 0
 1226.01367188 151.009765625 l 1
 1230.5390625 146.484375 1233.33984375 140.227539062 1233.33984375 133.328125 c 0
 1233.33984375 126.4296875 1230.5390625 120.1796875 1226.01367188 115.654296875 c 0
 1221.48828125 111.12890625 1215.23144531 108.328125 1208.33203125 108.328125 c 0
 1201.43359375 108.328125 1195.18359375 111.12890625 1190.65820312 115.654296875 c 2
 1023.99414084 282.322265835 l 0
 1023.99414062 282.322265625 l 1
 1019.46972656 286.84765625 1016.66894531 293.104492188 1016.66894531 300.00390625 c 0
 1016.66894531 306.90234375 1019.46972656 313.15234375 1023.99414062 317.677734375 c 2
 1023.99414062 317.677734375 1190.66894531 484.338867188 1190.65820312 484.345703125 c 1
 1193.71386719 487.401367188 1197.56738281 489.665039062 1201.86523438 490.81640625 c 0
 1203.93066406 491.370117188 1206.06933594 491.668945312 1208.30957031 491.668945312 c 0
 1209.05273438 491.668945312 1209.78808594 491.635742188 1210.515625 491.572265625 c 0
1415.54101562 416.294921875 m 1
 1299.25 300 l 1
 1433.3359375 165.91015625 l 1
 1433.3359375 415.208984375 l 1xd720
 1427.39941406 415.478515625 1421.46777344 415.833984375 1415.54101562 416.294921875 c 1
EndSplineSet
EndChar

StartChar: U12015
Encoding: 272 73749 16
Width: 1750
VWidth: 100
Flags: W
HStem: -58.332 50<843.127 1433.34> 136.109 50<212.729 767.121> 413.891 49.9883<212.729 767.121 1483.34 1600.76> 442.951 48.209<1266.81 1352.18 1542.47 1648.56> 608.332 50<843.127 1433.34> 776.283 48.209<1266.81 1373.2 1543.48 1648.56>
VStem: 100.011 48.71<-140.225 -52.4881 652.49 740.225> 167.619 49.948<137.541 462.46> 766.68 48.709<-223.557 -118.473 51.8048 136.056 463.944 548.195 718.471 823.557> 793.717 49.4097<-178.062 -58.332 -8.33203 111.396 488.604 608.332 658.332 778.063> 1433.35 49.9905<-224.799 -58.332 -8.29422 108.468 165.91 415.209 491.412 608.332 658.332 748.541>
LayerCount: 2
Fore
SplineSet
1624.81445312 825 m 0xef60
 1624.87890625 825 1624.93261719 825.004882812 1624.99707031 825.004882812 c 0
 1636.03417969 825.004882812 1645.41015625 817.836914062 1648.72070312 807.90625 c 0
 1649.54882812 805.421875 1650.0078125 802.767578125 1650.0078125 800.006835938 c 0
 1650.0078125 788.969726562 1642.84082031 779.59375 1632.91015625 776.283203125 c 0
 1584.26367188 760.067382812 1533.91992188 750.833984375 1483.3359375 748.541015625 c 1
 1483.3359375 465.267578125 l 1
 1528.57421875 467.522460938 1573.58105469 475.87890625 1617.09765625 490.384765625 c 0
 1619.58203125 491.212890625 1622.23632812 491.671875 1624.99707031 491.671875 c 0
 1636.03417969 491.671875 1645.41015625 484.504882812 1648.72070312 474.57421875 c 0
 1649.54882812 472.08984375 1650.0078125 469.435546875 1650.0078125 466.674804688 c 0
 1650.0078125 455.637695312 1642.84082031 446.26171875 1632.91015625 442.951171875 c 0
 1584.26367188 426.734375 1533.91992188 417.501953125 1483.3359375 415.208984375 c 1
 1483.3359375 -200 l 2
 1483.3359375 -213.797851562 1472.13378906 -225 1458.3359375 -225 c 0
 1444.53808594 -225 1433.3359375 -213.797851562 1433.3359375 -200 c 2
 1433.3359375 -58.33203125 l 1
 843.126953125 -58.33203125 l 1xdf60
 840.834960938 -108.9140625 831.602539062 -159.2578125 815.388671875 -207.904296875 c 0
 812.079101562 -217.834960938 802.705078125 -224.9921875 791.666992188 -224.9921875 c 0
 788.907226562 -224.9921875 786.250976562 -224.543945312 783.767578125 -223.716796875 c 0
 773.836914062 -220.407226562 766.6796875 -211.033203125 766.6796875 -199.995117188 c 0xdfa0
 766.6796875 -197.235351562 767.127929688 -194.579101562 767.955078125 -192.095703125 c 0
 785.129882812 -140.567871094 793.717285156 -86.9509277344 793.717285156 -33.333984375 c 0
 793.717285156 20.2829589844 785.129882812 73.8999023438 767.955078125 125.427734375 c 0
 767.260742188 127.720703125 766.8828125 130.125976562 766.8828125 132.643554688 c 0
 766.8828125 133.819335938 766.963867188 134.9765625 767.12109375 136.109375 c 1
 207.55078125 136.109375 l 1
 196.7109375 47.958984375 177.118164062 -39.3779296875 148.720703125 -124.57421875 c 0
 145.41015625 -134.504882812 136.036132812 -141.661132812 125 -141.661132812 c 0
 122.23828125 -141.661132812 119.58203125 -141.212890625 117.09765625 -140.384765625 c 0
 107.166992188 -137.07421875 100.010742188 -127.700195312 100.010742188 -116.6640625 c 0
 100.010742188 -113.90234375 100.458984375 -111.24609375 101.287109375 -108.76171875 c 0
 145.508300781 23.9067382812 167.618896484 161.954101562 167.618896484 300.001342773 c 0
 167.618896484 438.048583984 145.508300781 576.095703125 101.287109375 708.763671875 c 0
 100.458984375 711.247070312 100 713.901367188 100 716.662109375 c 0
 100 727.698242188 107.16796875 737.07421875 117.09765625 740.384765625 c 0
 119.58203125 741.212890625 122.223632812 741.666992188 124.985351562 741.666992188 c 0
 126.708007812 741.666992188 128.390625 741.493164062 130.015625 741.16015625 c 0
 138.801757812 739.362304688 145.926757812 732.954101562 148.720703125 724.57421875 c 0
 177.118164062 639.377929688 196.7109375 552.041015625 207.55078125 463.890625 c 1
 207.55078125 463.890625 456.251302083 463.87890625 622.049913194 463.87890625 c 0
 704.94921875 463.87890625 767.12109375 463.890625 767.12109375 463.890625 c 1
 766.963867188 465.0234375 766.887695312 466.153320312 766.887695312 467.329101562 c 0
 766.887695312 469.84765625 767.260742188 472.279296875 767.955078125 474.572265625 c 0
 785.129882812 526.100097656 793.717285156 579.716796875 793.717285156 633.333374023 c 0xef60
 793.717285156 686.949951172 785.129882812 740.56640625 767.955078125 792.09375 c 0
 767.126953125 794.578125 766.66796875 797.232421875 766.66796875 799.993164062 c 0
 766.66796875 811.030273438 773.8359375 820.407226562 783.767578125 823.716796875 c 0
 786.250976562 824.544921875 788.893554688 824.999023438 791.654296875 824.999023438 c 0
 793.376953125 824.999023438 795.05859375 824.82421875 796.68359375 824.4921875 c 0
 805.469726562 822.694335938 812.595703125 816.28515625 815.388671875 807.904296875 c 0xefa0
 831.602539062 759.2578125 840.834960938 708.915039062 843.126953125 658.33203125 c 1
 1433.3359375 658.33203125 l 1
 1433.3359375 748.541015625 l 1
 1382.75390625 750.833984375 1332.41113281 760.067382812 1283.765625 776.283203125 c 0
 1273.83496094 779.59375 1266.67871094 788.967773438 1266.67871094 800.00390625 c 0
 1266.67871094 802.765625 1267.12695312 805.421875 1267.95507812 807.90625 c 0
 1270.74902344 816.286132812 1277.87402344 822.694335938 1286.66015625 824.4921875 c 0
 1288.28515625 824.825195312 1289.953125 824.993164062 1291.67675781 824.993164062 c 0
 1294.4375 824.993164062 1297.09375 824.544921875 1299.578125 823.716796875 c 0
 1351.10253906 806.541015625 1404.71484375 797.952148438 1458.328125 797.951171875 c 0
 1458.33105469 797.952148438 1458.33300781 797.952148438 1458.3359375 797.953125 c 0
 1458.34277344 797.952148438 1458.34863281 797.952148438 1458.35546875 797.951171875 c 0
 1511.96582031 797.953125 1565.57617188 806.541992188 1617.09765625 823.716796875 c 0
 1619.5234375 824.525390625 1622.12304688 824.979492188 1624.81445312 825 c 0xef60
843.126953125 608.33203125 m 1
 840.833984375 557.750976562 831.602539062 507.408203125 815.388671875 458.763671875 c 0
 814.6328125 456.666992188 813.59765625 454.684570312 812.33984375 452.890625 c 0
 815.052734375 448.904296875 816.658203125 444.068359375 816.671875 438.890625 c 0
 816.671875 425.092773438 805.469726562 413.890625 791.671875 413.890625 c 2
 212.728515625 413.890625 l 1
 215.954101562 375.995605469 217.566894531 337.997802734 217.566894531 300 c 0
 217.566894531 262.002197266 215.954101562 224.004394531 212.728515625 186.109375 c 1
 791.671875 186.109375 l 2
 805.469726562 186.109375 816.671875 174.907226562 816.671875 161.109375 c 0
 816.49609375 156.038085938 814.793945312 151.311523438 812.029296875 147.44140625 c 0
 813.422851562 145.561523438 814.5625 143.467773438 815.388671875 141.236328125 c 0xefa0
 831.602539062 92.591796875 840.833984375 42.2490234375 843.126953125 -8.33203125 c 1
 1433.3359375 -8.33203125 l 1
 1433.3359375 -8.33203125 1433.34548611 43.6549479167 1433.34548611 78.3135127315 c 0
 1433.34548611 95.6427951389 1433.34309896 108.639973958 1433.3359375 108.640625 c 0
 1432.37109375 108.52734375 1431.41015625 108.467773438 1430.41503906 108.467773438 c 0
 1423.58691406 108.467773438 1417.39453125 111.2109375 1412.88085938 115.654296875 c 2
 1246.21679709 282.322265835 l 0
 1246.21679688 282.322265625 l 1
 1241.69238281 286.84765625 1238.89160156 293.104492188 1238.89160156 300.00390625 c 0
 1238.89160156 306.90234375 1241.69238281 313.15234375 1246.21679688 317.677734375 c 2
 1353.27539062 424.73828125 l 1
 1329.83300781 429.283203125 1306.61035156 435.3359375 1283.765625 442.951171875 c 0
 1273.83496094 446.26171875 1266.67871094 455.635742188 1266.67871094 466.671875 c 0
 1266.67871094 469.43359375 1267.12695312 472.08984375 1267.95507812 474.57421875 c 0
 1270.74902344 482.954101562 1277.87402344 489.362304688 1286.66015625 491.16015625 c 0
 1288.28515625 491.493164062 1289.953125 491.661132812 1291.67675781 491.661132812 c 0
 1294.4375 491.661132812 1297.09375 491.212890625 1299.578125 490.384765625 c 0
 1331.39648438 479.778320312 1364.01367188 472.455078125 1396.93359375 468.3984375 c 1
 1396.93359375 468.3984375 1412.88086583 484.327168505 1412.88086583 484.345689161 c 0
 1412.88086583 484.345695961 1412.88086368 484.345700616 1412.88085938 484.345703125 c 1
 1415.93652344 487.401367188 1419.79003906 489.665039062 1424.08789062 490.81640625 c 0
 1426.07421875 491.325195312 1428.12109375 491.599609375 1430.265625 491.599609375 c 0
 1431.3046875 491.599609375 1432.32910156 491.53515625 1433.3359375 491.412109375 c 1
 1433.3359375 608.33203125 l 1
 843.126953125 608.33203125 l 1
988.29296875 491.572265625 m 0
 994.313476562 491.045898438 999.752929688 488.383789062 1003.79101562 484.345703125 c 0
 1008.31640625 479.8203125 1011.1171875 473.563476562 1011.1171875 466.6640625 c 0
 1011.1171875 459.765625 1008.31640625 453.515625 1003.79101562 448.990234375 c 2
 854.8046875 300 l 1
 1003.79101539 151.00976539 l 0
 1003.79101562 151.009765625 l 1
 1008.31640625 146.484375 1011.1171875 140.227539062 1011.1171875 133.328125 c 0
 1011.1171875 126.4296875 1008.31640625 120.1796875 1003.79101562 115.654296875 c 0
 999.265625 111.12890625 993.008789062 108.328125 986.109375 108.328125 c 0
 979.2109375 108.328125 972.9609375 111.12890625 968.435546875 115.654296875 c 2
 801.771484585 282.322265835 l 0
 801.771484375 282.322265625 l 1
 797.247070312 286.84765625 794.446289062 293.104492188 794.446289062 300.00390625 c 0
 794.446289062 306.90234375 797.247070312 313.15234375 801.771484375 317.677734375 c 2
 801.771484375 317.677734375 968.446289062 484.338867188 968.435546875 484.345703125 c 1
 971.491210938 487.401367188 975.344726562 489.665039062 979.642578125 490.81640625 c 0
 981.708007812 491.370117188 983.846679688 491.668945312 986.086914062 491.668945312 c 0
 986.830078125 491.668945312 987.565429688 491.635742188 988.29296875 491.572265625 c 0
1210.515625 491.572265625 m 0
 1216.53613281 491.045898438 1221.97558594 488.383789062 1226.01367188 484.345703125 c 0
 1230.5390625 479.8203125 1233.33984375 473.563476562 1233.33984375 466.6640625 c 0
 1233.33984375 459.765625 1230.5390625 453.515625 1226.01367188 448.990234375 c 2
 1077.02734375 300 l 1
 1226.01367164 151.00976539 l 0
 1226.01367188 151.009765625 l 1
 1230.5390625 146.484375 1233.33984375 140.227539062 1233.33984375 133.328125 c 0
 1233.33984375 126.4296875 1230.5390625 120.1796875 1226.01367188 115.654296875 c 0
 1221.48828125 111.12890625 1215.23144531 108.328125 1208.33203125 108.328125 c 0
 1201.43359375 108.328125 1195.18359375 111.12890625 1190.65820312 115.654296875 c 2
 1023.99414084 282.322265835 l 0
 1023.99414062 282.322265625 l 1
 1019.46972656 286.84765625 1016.66894531 293.104492188 1016.66894531 300.00390625 c 0
 1016.66894531 306.90234375 1019.46972656 313.15234375 1023.99414062 317.677734375 c 2
 1023.99414062 317.677734375 1190.66894531 484.338867188 1190.65820312 484.345703125 c 1
 1193.71386719 487.401367188 1197.56738281 489.665039062 1201.86523438 490.81640625 c 0
 1203.93066406 491.370117188 1206.06933594 491.668945312 1208.30957031 491.668945312 c 0
 1209.05273438 491.668945312 1209.78808594 491.635742188 1210.515625 491.572265625 c 0
1415.54101562 416.294921875 m 1
 1299.25 300 l 1
 1433.3359375 165.91015625 l 1
 1433.3359375 415.208984375 l 1
 1427.39941406 415.478515625 1421.46777344 415.833984375 1415.54101562 416.294921875 c 1
EndSplineSet
EndChar

StartChar: U12229
Encoding: 273 74281 17
Width: 1750
VWidth: 100
Flags: W
HStem: -58.332 50<843.127 1433.34> 136.109 50<212.729 767.121> 354.061 48.7207<1100.2 1124.93 1125.14 1215.09 1268.25 1381.89> 413.891 49.9883<212.729 767.076> 490.205 49.1934<891.676 983.336 1033.34 1123.6 1126.41 1216.67 1266.67 1358.2> 509.615 48.7207<866.864 981.757 1034.79 1215.22 1268.25 1381.89> 608.332 50<843.127 1433.34> 776.283 48.209<1266.81 1373.2 1543.48 1648.56>
VStem: 100.011 48.71<-140.225 -52.4881 652.49 740.225> 167.619 49.948<137.541 462.46> 766.68 48.709<-223.557 -118.473 51.8048 136.056 463.944 548.195 718.471 823.557> 793.717 49.4097<-178.062 -58.332 -8.33203 111.396 488.604 608.332 658.332 778.063> 983.336 50<41.869 492.045> 1216.67 50<41.869 336.492 384.795 492.045> 1433.34 50<-224.799 -58.332 -8.33203 608.332 658.332 748.541>
LayerCount: 2
Fore
SplineSet
1624.81445312 825 m 0xf3de
 1624.87890625 825 1624.93261719 825.004882812 1624.99707031 825.004882812 c 0
 1636.03417969 825.004882812 1645.41015625 817.836914062 1648.72070312 807.90625 c 0
 1649.54882812 805.421875 1650.0078125 802.767578125 1650.0078125 800.006835938 c 0
 1650.0078125 788.969726562 1642.84082031 779.59375 1632.91015625 776.283203125 c 0
 1584.26367188 760.067382812 1533.91992188 750.833984375 1483.3359375 748.541015625 c 1
 1483.3359375 -200 l 2
 1483.3359375 -213.797851562 1472.13378906 -225 1458.3359375 -225 c 0
 1444.53808594 -225 1433.3359375 -213.797851562 1433.3359375 -200 c 2
 1433.3359375 -58.33203125 l 1
 843.126953125 -58.33203125 l 1xf3de
 840.834960938 -108.9140625 831.602539062 -159.2578125 815.388671875 -207.904296875 c 0
 812.079101562 -217.834960938 802.705078125 -224.9921875 791.666992188 -224.9921875 c 0
 788.907226562 -224.9921875 786.250976562 -224.543945312 783.767578125 -223.716796875 c 0
 773.836914062 -220.407226562 766.6796875 -211.033203125 766.6796875 -199.995117188 c 0xf3ee
 766.6796875 -197.235351562 767.127929688 -194.579101562 767.955078125 -192.095703125 c 0
 785.129882812 -140.567871094 793.717285156 -86.9509277344 793.717285156 -33.333984375 c 0
 793.717285156 20.2829589844 785.129882812 73.8999023438 767.955078125 125.427734375 c 0
 767.260742188 127.720703125 766.8828125 130.125976562 766.8828125 132.643554688 c 0
 766.8828125 133.819335938 766.963867188 134.9765625 767.12109375 136.109375 c 1
 207.55078125 136.109375 l 1
 196.7109375 47.958984375 177.118164062 -39.3779296875 148.720703125 -124.57421875 c 0
 145.41015625 -134.504882812 136.036132812 -141.661132812 125 -141.661132812 c 0
 122.23828125 -141.661132812 119.58203125 -141.212890625 117.09765625 -140.384765625 c 0
 107.166992188 -137.07421875 100.010742188 -127.700195312 100.010742188 -116.6640625 c 0
 100.010742188 -113.90234375 100.458984375 -111.24609375 101.287109375 -108.76171875 c 0
 145.508300781 23.9067382812 167.618896484 161.954101562 167.618896484 300.001342773 c 0
 167.618896484 438.048583984 145.508300781 576.095703125 101.287109375 708.763671875 c 0
 100.458984375 711.247070312 100 713.901367188 100 716.662109375 c 0
 100 727.698242188 107.16796875 737.07421875 117.09765625 740.384765625 c 0
 119.58203125 741.212890625 122.223632812 741.666992188 124.985351562 741.666992188 c 0
 126.708007812 741.666992188 128.390625 741.493164062 130.015625 741.16015625 c 0
 138.801757812 739.362304688 145.926757812 732.954101562 148.720703125 724.57421875 c 0
 177.118164062 639.377929688 196.7109375 552.041015625 207.55078125 463.890625 c 1
 207.55078125 463.890625 456.251302083 463.87890625 622.049913194 463.87890625 c 0
 704.94921875 463.87890625 767.12109375 463.890625 767.12109375 463.890625 c 1
 766.963867188 465.0234375 766.887695312 466.153320312 766.887695312 467.329101562 c 0
 766.887695312 469.84765625 767.260742188 472.279296875 767.955078125 474.572265625 c 0
 785.129882812 526.100097656 793.717285156 579.716796875 793.717285156 633.333374023 c 0xf3de
 793.717285156 686.949951172 785.129882812 740.56640625 767.955078125 792.09375 c 0
 767.126953125 794.578125 766.66796875 797.232421875 766.66796875 799.993164062 c 0
 766.66796875 811.030273438 773.8359375 820.407226562 783.767578125 823.716796875 c 0
 786.250976562 824.544921875 788.893554688 824.999023438 791.654296875 824.999023438 c 0
 793.376953125 824.999023438 795.05859375 824.82421875 796.68359375 824.4921875 c 0
 805.469726562 822.694335938 812.595703125 816.28515625 815.388671875 807.904296875 c 0xf3ee
 831.602539062 759.2578125 840.834960938 708.915039062 843.126953125 658.33203125 c 1
 1433.3359375 658.33203125 l 1
 1433.3359375 748.541015625 l 1
 1382.75390625 750.833984375 1332.41113281 760.067382812 1283.765625 776.283203125 c 0
 1273.83496094 779.59375 1266.67871094 788.967773438 1266.67871094 800.00390625 c 0
 1266.67871094 802.765625 1267.12695312 805.421875 1267.95507812 807.90625 c 0
 1270.74902344 816.286132812 1277.87402344 822.694335938 1286.66015625 824.4921875 c 0
 1288.28515625 824.825195312 1289.953125 824.993164062 1291.67675781 824.993164062 c 0
 1294.4375 824.993164062 1297.09375 824.544921875 1299.578125 823.716796875 c 0
 1351.10253906 806.541015625 1404.71484375 797.952148438 1458.328125 797.951171875 c 0
 1458.33105469 797.952148438 1458.33300781 797.952148438 1458.3359375 797.953125 c 0
 1458.34277344 797.952148438 1458.34863281 797.952148438 1458.35546875 797.951171875 c 0
 1511.96582031 797.953125 1565.57617188 806.541992188 1617.09765625 823.716796875 c 0
 1619.5234375 824.525390625 1622.12304688 824.979492188 1624.81445312 825 c 0xf3de
843.126953125 608.33203125 m 1
 840.833984375 557.750976562 831.602539062 507.408203125 815.388671875 458.763671875 c 0
 814.6328125 456.666992188 813.59765625 454.684570312 812.33984375 452.890625 c 0
 815.052734375 448.904296875 816.658203125 444.068359375 816.671875 438.890625 c 0
 816.671875 425.092773438 805.469726562 413.890625 791.671875 413.890625 c 2
 212.728515625 413.890625 l 1
 215.954101562 375.995605469 217.566894531 337.997802734 217.566894531 300 c 0
 217.566894531 262.002197266 215.954101562 224.004394531 212.728515625 186.109375 c 1
 791.671875 186.109375 l 2
 805.469726562 186.109375 816.671875 174.907226562 816.671875 161.109375 c 0
 816.49609375 156.038085938 814.793945312 151.311523438 812.029296875 147.44140625 c 0
 813.422851562 145.561523438 814.5625 143.467773438 815.388671875 141.236328125 c 0xf3ee
 831.602539062 92.591796875 840.833984375 42.2490234375 843.126953125 -8.33203125 c 1
 1433.3359375 -8.33203125 l 1
 1433.3359375 608.33203125 l 1
 843.126953125 608.33203125 l 1
893.169921875 558.287109375 m 0
 895.387695312 558.154296875 897.552734375 557.723632812 899.578125 557.048828125 c 0
 934.87109375 545.284179688 971.594726562 539.400390625 1008.31835938 539.3984375 c 0
 1008.32421875 539.399414062 1008.33007812 539.401367188 1008.3359375 539.40234375 c 0
 1008.35058594 539.401367188 1008.36621094 539.399414062 1008.38085938 539.3984375 c 0
 1045.09570312 539.403320312 1081.81152344 545.287109375 1117.09765625 557.048828125 c 0
 1117.58105469 557.157226562 1118.078125 557.25390625 1118.57226562 557.333984375 c 0
 1119.03515625 557.509765625 1119.51660156 557.67578125 1119.9921875 557.82421875 c 0
 1120.58007812 557.88671875 1121.16210938 557.927734375 1121.76171875 557.94921875 c 0
 1122.83007812 558.095703125 1123.89746094 558.172851562 1125.00390625 558.1796875 c 0
 1126.11035156 558.172851562 1127.17773438 558.095703125 1128.24609375 557.94921875 c 0
 1129.32617188 557.8125 1130.40234375 557.603515625 1131.43554688 557.333984375 c 0
 1131.9296875 557.25390625 1132.42675781 557.157226562 1132.91015625 557.048828125 c 0
 1168.20605469 545.284179688 1204.93066406 539.400390625 1241.65429688 539.3984375 c 0
 1241.66015625 539.399414062 1241.66601562 539.401367188 1241.671875 539.40234375 c 0
 1241.68652344 539.401367188 1241.70214844 539.399414062 1241.71679688 539.3984375 c 0xfbce
 1278.43164062 539.403320312 1315.14453125 545.287109375 1350.4296875 557.048828125 c 0
 1352.9140625 557.876953125 1355.56835938 558.3359375 1358.32910156 558.3359375 c 0
 1369.36621094 558.3359375 1378.7421875 551.168945312 1382.05273438 541.23828125 c 0
 1382.88085938 538.75390625 1383.33984375 536.099609375 1383.33984375 533.338867188 c 0
 1383.33984375 522.301757812 1376.17285156 512.92578125 1366.2421875 509.615234375 c 0xf7ce
 1333.82617188 498.810546875 1300.35351562 492.346679688 1266.671875 490.205078125 c 1
 1266.671875 384.794921875 l 1
 1295.00488281 386.860351562 1323.14550781 392.399414062 1350.4296875 401.494140625 c 0
 1352.9140625 402.322265625 1355.56835938 402.78125 1358.32910156 402.78125 c 0
 1369.36621094 402.78125 1378.7421875 395.614257812 1382.05273438 385.68359375 c 0
 1382.88085938 383.19921875 1383.33984375 380.544921875 1383.33984375 377.784179688 c 0
 1383.33984375 366.747070312 1376.17285156 357.37109375 1366.2421875 354.060546875 c 0
 1333.82617188 343.255859375 1300.35351562 336.793945312 1266.671875 334.65234375 c 1
 1266.671875 66.66796875 l 2
 1266.671875 52.8701171875 1255.46972656 41.66796875 1241.671875 41.66796875 c 0
 1227.87402344 41.66796875 1216.671875 52.8701171875 1216.671875 66.66796875 c 2
 1216.671875 334.65234375 l 1
 1182.99023438 336.793945312 1149.51660156 343.255859375 1117.09960938 354.060546875 c 0
 1107.16894531 357.37109375 1100.01171875 366.745117188 1100.01171875 377.782226562 c 0
 1100.01171875 380.541992188 1100.45996094 383.198242188 1101.28710938 385.681640625 c 0
 1104.08007812 394.0625 1111.20605469 400.471679688 1119.9921875 402.26953125 c 0
 1121.6171875 402.6015625 1123.28515625 402.770507812 1125.00683594 402.770507812 c 0
 1127.76757812 402.770507812 1130.42480469 402.322265625 1132.90820312 401.494140625 c 0
 1160.1953125 392.399414062 1188.33691406 386.859375 1216.671875 384.794921875 c 1
 1216.671875 490.205078125 l 1
 1185.71972656 492.172851562 1154.9453125 497.791992188 1125.00390625 507.076171875 c 1
 1095.0625 497.791992188 1064.28808594 492.172851562 1033.3359375 490.205078125 c 1
 1033.3359375 66.66796875 l 1
 1033.3359375 52.8701171875 1022.13378906 41.66796875 1008.3359375 41.66796875 c 0
 994.538085938 41.66796875 983.3359375 52.8701171875 983.3359375 66.66796875 c 2
 983.3359375 490.205078125 l 1xfbce
 949.654296875 492.346679688 916.180664062 498.810546875 883.765625 509.615234375 c 0xf7ce
 873.834960938 512.92578125 866.678710938 522.299804688 866.678710938 533.3359375 c 0
 866.678710938 536.09765625 867.126953125 538.75390625 867.955078125 541.23828125 c 0
 870.749023438 549.618164062 877.874023438 556.026367188 886.66015625 557.82421875 c 0
 888.286132812 558.157226562 889.9296875 558.33203125 891.65234375 558.33203125 c 0
 892.162109375 558.33203125 892.66796875 558.317382812 893.169921875 558.287109375 c 0
EndSplineSet
EndChar

StartChar: U120f6
Encoding: 274 73974 18
Width: 1750
VWidth: 100
Flags: W
HStem: 25 50<965.301 1649.8> 136.109 50<212.729 899.803> 275 50<980.891 1649.8> 413.891 50<212.729 899.803> 525 50<965.301 1649.8>
VStem: 100.011 48.71<-140.225 -52.4881 652.49 740.225> 167.619 49.948<137.541 462.46> 850.011 48.71<-223.557 -139.483 739.483 823.557> 931.143 718.861<41.7639 558.236> 931.143 49.7476<90.1516 275 325 509.848>
LayerCount: 2
Fore
SplineSet
880.015625 824.4921875 m 0xff80
 888.801757812 822.694335938 895.926757812 816.286132812 898.720703125 807.90625 c 0
 924.192382812 731.490234375 943.681640625 653.625 957.345703125 575 c 1
 1625.00390625 575 l 2
 1638.80175781 575 1650.00390625 563.797851562 1650.00390625 550 c 0xff80
 1650.00390625 536.202148438 1638.80175781 525 1625.00390625 525 c 2
 965.30078125 525 l 1
 974.6875 458.647460938 979.850585938 391.84765625 980.890625 325 c 1xff40
 1625.00390625 325 l 2
 1638.80175781 325 1650.00390625 313.797851562 1650.00390625 300 c 0xff80
 1650.00390625 286.202148438 1638.80175781 275 1625.00390625 275 c 2
 980.890625 275 l 1xff40
 979.850585938 208.15234375 974.6875 141.352539062 965.30078125 75 c 1
 1625.00390625 75 l 2
 1638.80175781 75 1650.00390625 63.7978515625 1650.00390625 50 c 0
 1650.00390625 36.2021484375 1638.80175781 25 1625.00390625 25 c 2
 957.345703125 25 l 1
 943.681640625 -53.625 924.192382812 -131.490234375 898.720703125 -207.90625 c 0
 895.41015625 -217.836914062 886.036132812 -224.993164062 875 -224.993164062 c 0
 872.23828125 -224.993164062 869.58203125 -224.544921875 867.09765625 -223.716796875 c 0
 857.166992188 -220.40625 850.010742188 -211.032226562 850.010742188 -199.99609375 c 0
 850.010742188 -197.235351562 850.458984375 -194.578125 851.287109375 -192.09375 c 0
 904.524414062 -32.380859375 931.143066406 133.809570312 931.143066406 300 c 0
 931.143066406 466.190429688 904.524414062 632.380859375 851.287109375 792.09375 c 0
 850.458984375 794.578125 850 797.232421875 850 799.993164062 c 0
 850 811.030273438 857.166992188 820.40625 867.09765625 823.716796875 c 0
 869.58203125 824.544921875 872.223632812 824.999023438 874.985351562 824.999023438 c 0
 876.708007812 824.999023438 878.390625 824.825195312 880.015625 824.4921875 c 0xff80
130.015625 741.16015625 m 0
 138.801757812 739.362304688 145.926757812 732.954101562 148.720703125 724.57421875 c 0
 177.118164062 639.377929688 196.7109375 552.041015625 207.55078125 463.890625 c 1
 875.00390625 463.890625 l 2
 888.801757812 463.890625 900.00390625 452.688476562 900.00390625 438.890625 c 0
 900.00390625 425.092773438 888.801757812 413.890625 875.00390625 413.890625 c 2
 212.728515625 413.890625 l 1
 215.954101562 375.995605469 217.566894531 337.997802734 217.566894531 300 c 0
 217.566894531 262.002197266 215.954101562 224.004394531 212.728515625 186.109375 c 1
 875.00390625 186.109375 l 2
 888.801757812 186.109375 900.00390625 174.907226562 900.00390625 161.109375 c 0
 900.00390625 147.311523438 888.801757812 136.109375 875.00390625 136.109375 c 2
 207.55078125 136.109375 l 1
 196.7109375 47.958984375 177.118164062 -39.3779296875 148.720703125 -124.57421875 c 0
 145.41015625 -134.504882812 136.036132812 -141.661132812 125 -141.661132812 c 0
 122.23828125 -141.661132812 119.58203125 -141.212890625 117.09765625 -140.384765625 c 0
 107.166992188 -137.07421875 100.010742188 -127.700195312 100.010742188 -116.6640625 c 0
 100.010742188 -113.90234375 100.458984375 -111.24609375 101.287109375 -108.76171875 c 0
 145.508300781 23.9067382812 167.618896484 161.954101562 167.618896484 300.001342773 c 0
 167.618896484 438.048583984 145.508300781 576.095703125 101.287109375 708.763671875 c 0
 100.458984375 711.247070312 100 713.901367188 100 716.662109375 c 0
 100 727.698242188 107.16796875 737.07421875 117.09765625 740.384765625 c 0
 119.58203125 741.212890625 122.223632812 741.666992188 124.985351562 741.666992188 c 0
 126.708007812 741.666992188 128.390625 741.493164062 130.015625 741.16015625 c 0
EndSplineSet
EndChar

StartChar: U120a6
Encoding: 275 73894 19
Width: 1750
VWidth: 100
Flags: W
HStem: -58.332 50<620.908 988.895 1148.69 1433.34> 136.109 50<212.729 544.879> 219.445 50<620.629 814.648> 275 50<1038.89 1433.34> 330.555 50<620.629 814.648> 413.891 50.0022<212.729 544.879> 608.332 50<620.908 988.895> 748.541 49.4102<869.162 988.895 1038.89 1158.62 1313.61 1433.34 1483.34 1603.07> 776.283 48.209<822.363 928.752 1099.04 1204.12 1266.81 1373.2 1543.48 1648.56>
VStem: 100.011 48.71<-140.225 -52.4881 652.49 740.225> 167.619 49.948<137.541 462.46> 544.456 48.71<-223.557 -118.476 52.0173 135.983 464.017 547.982 718.476 823.557> 571.473 49.1555<-179.98 -58.332 -8.33203 111.581 269.562 330.438 488.419 608.332 658.332 779.98> 988.904 49.9905<-224.799 -58.332 -8.29422 108.467 165.906 275 325 434.094 491.412 608.332 658.332 748.541> 1072.23 48.71<-223.557 -118.476 51.8097 156.889> 1433.34 50<-224.799 -58.332 -8.33203 275 325 748.541>
LayerCount: 2
Fore
SplineSet
1180.36914062 825 m 0xff77
 1180.43359375 825 1180.48730469 825.004882812 1180.55175781 825.004882812 c 0
 1191.58886719 825.004882812 1200.96484375 817.836914062 1204.27539062 807.90625 c 0
 1205.10351562 805.421875 1205.5625 802.767578125 1205.5625 800.006835938 c 0
 1205.5625 788.969726562 1198.39550781 779.59375 1188.46484375 776.283203125 c 0xfef7
 1139.8203125 760.067382812 1089.4765625 750.833984375 1038.89453125 748.541015625 c 1
 1038.89453125 325 l 1
 1433.3359375 325 l 1
 1433.3359375 748.541015625 l 1xff77
 1382.75390625 750.833984375 1332.41113281 760.067382812 1283.765625 776.283203125 c 0
 1273.83496094 779.59375 1266.67871094 788.967773438 1266.67871094 800.00390625 c 0
 1266.67871094 802.765625 1267.12695312 805.421875 1267.95507812 807.90625 c 0
 1270.74902344 816.286132812 1277.87402344 822.694335938 1286.66015625 824.4921875 c 0xfef7
 1288.28515625 824.825195312 1289.953125 824.993164062 1291.67675781 824.993164062 c 0
 1294.4375 824.993164062 1297.09375 824.544921875 1299.578125 823.716796875 c 0
 1351.10253906 806.541015625 1404.71484375 797.952148438 1458.328125 797.951171875 c 0
 1458.33105469 797.952148438 1458.33300781 797.952148438 1458.3359375 797.953125 c 0
 1458.34277344 797.952148438 1458.34863281 797.952148438 1458.35546875 797.951171875 c 0xff77
 1511.96582031 797.953125 1565.57617188 806.541992188 1617.09765625 823.716796875 c 0
 1619.58203125 824.544921875 1622.23632812 825.00390625 1624.99707031 825.00390625 c 0
 1636.03417969 825.00390625 1645.41015625 817.836914062 1648.72070312 807.90625 c 0
 1649.54882812 805.421875 1650.0078125 802.767578125 1650.0078125 800.006835938 c 0
 1650.0078125 788.969726562 1642.84082031 779.59375 1632.91015625 776.283203125 c 0xfef7
 1584.26367188 760.067382812 1533.91992188 750.833984375 1483.3359375 748.541015625 c 1xff77
 1483.3359375 -200 l 2
 1483.3359375 -213.797851562 1472.13378906 -225 1458.3359375 -225 c 0
 1444.53808594 -225 1433.3359375 -213.797851562 1433.3359375 -200 c 2
 1433.3359375 -58.33203125 l 1
 1148.68554688 -58.33203125 l 1
 1146.39355469 -108.916015625 1137.15917969 -159.259765625 1120.94335938 -207.90625 c 0
 1117.6328125 -217.836914062 1108.25878906 -224.993164062 1097.22265625 -224.993164062 c 0
 1094.4609375 -224.993164062 1091.8046875 -224.544921875 1089.3203125 -223.716796875 c 0
 1079.38964844 -220.40625 1072.23339844 -211.032226562 1072.23339844 -199.99609375 c 0
 1072.23339844 -197.235351562 1072.68164062 -194.578125 1073.50976562 -192.09375 c 0
 1090.68554688 -140.569335938 1099.27441406 -86.9560546875 1099.27539062 -33.34375 c 0
 1099.27441406 -33.33984375 1099.27441406 -33.3359375 1099.2734375 -33.33203125 c 0
 1099.27441406 -33.328125 1099.27441406 -33.32421875 1099.27539062 -33.3203125 c 0
 1099.2734375 20.291015625 1090.68457031 73.90234375 1073.50976562 125.42578125 c 0
 1072.68164062 127.91015625 1072.22265625 130.564453125 1072.22265625 133.325195312 c 0
 1072.22265625 144.362304688 1079.38964844 153.73828125 1089.3203125 157.048828125 c 0
 1091.8046875 157.876953125 1094.44628906 158.331054688 1097.20800781 158.331054688 c 0
 1098.93066406 158.331054688 1100.61328125 158.157226562 1102.23828125 157.82421875 c 0
 1111.02441406 156.026367188 1118.14941406 149.618164062 1120.94335938 141.23828125 c 0
 1137.15917969 92.5927734375 1146.39257812 42.25 1148.68554688 -8.33203125 c 1
 1433.3359375 -8.33203125 l 1
 1433.3359375 275 l 1
 1038.89453125 275 l 1
 1038.89453125 -200 l 1
 1038.89453125 -213.797851562 1027.69238281 -225 1013.89453125 -225 c 0
 1000.09667969 -225 988.89453125 -213.797851562 988.89453125 -200 c 2
 988.89453125 -58.33203125 l 1
 620.908203125 -58.33203125 l 1
 618.615234375 -108.916015625 609.381835938 -159.259765625 593.166015625 -207.90625 c 0
 589.85546875 -217.836914062 580.481445312 -224.993164062 569.4453125 -224.993164062 c 0
 566.68359375 -224.993164062 564.02734375 -224.544921875 561.54296875 -223.716796875 c 0
 551.612304688 -220.40625 544.456054688 -211.032226562 544.456054688 -199.99609375 c 0
 544.456054688 -197.235351562 544.904296875 -194.578125 545.732421875 -192.09375 c 0
 562.908203125 -140.569335938 571.497070312 -86.9560546875 571.498046875 -33.34375 c 0
 571.497070312 -33.33984375 571.497070312 -33.3359375 571.49609375 -33.33203125 c 0
 571.497070312 -33.328125 571.497070312 -33.32421875 571.498046875 -33.3203125 c 0
 571.497070312 20.291015625 562.907226562 73.90234375 545.732421875 125.42578125 c 0
 545.721679688 125.48828125 545.7109375 125.552734375 545.701171875 125.615234375 c 0
 545.392578125 126.860351562 545.174804688 128.154296875 545.060546875 129.46484375 c 0
 544.770507812 130.717773438 544.572265625 132.014648438 544.478515625 133.33203125 c 0
 544.560546875 134.271484375 544.6953125 135.202148438 544.87890625 136.109375 c 1
 207.55078125 136.109375 l 1
 196.7109375 47.958984375 177.118164062 -39.3779296875 148.720703125 -124.57421875 c 0
 145.41015625 -134.504882812 136.036132812 -141.661132812 125 -141.661132812 c 0
 122.23828125 -141.661132812 119.58203125 -141.212890625 117.09765625 -140.384765625 c 0
 107.166992188 -137.07421875 100.010742188 -127.700195312 100.010742188 -116.6640625 c 0
 100.010742188 -113.90234375 100.458984375 -111.24609375 101.287109375 -108.76171875 c 0
 145.508300781 23.9067382812 167.618896484 161.954101562 167.618896484 300.001342773 c 0
 167.618896484 438.048583984 145.508300781 576.095703125 101.287109375 708.763671875 c 0
 100.458984375 711.247070312 100 713.901367188 100 716.662109375 c 0
 100 727.698242188 107.16796875 737.07421875 117.09765625 740.384765625 c 0
 119.58203125 741.212890625 122.223632812 741.666992188 124.985351562 741.666992188 c 0
 126.708007812 741.666992188 128.390625 741.493164062 130.015625 741.16015625 c 0
 138.801757812 739.362304688 145.926757812 732.954101562 148.720703125 724.57421875 c 0
 177.118164062 639.377929688 196.7109375 552.041015625 207.55078125 463.890625 c 1
 207.55078125 463.890625 357.473958333 463.892795139 457.423032407 463.892795139 c 0
 507.397569444 463.892795139 544.878580729 463.892252604 544.87890625 463.890625 c 1
 544.6953125 464.797851562 544.560546875 465.728515625 544.478515625 466.66796875 c 0
 544.572265625 467.985351562 544.770507812 469.282226562 545.060546875 470.53515625 c 0
 545.174804688 471.845703125 545.392578125 473.139648438 545.701171875 474.384765625 c 0
 545.7109375 474.447265625 545.721679688 474.51171875 545.732421875 474.57421875 c 0
 562.907226562 526.09765625 571.497070312 579.708984375 571.498046875 633.3203125 c 0
 571.497070312 633.32421875 571.497070312 633.328125 571.49609375 633.33203125 c 0
 571.497070312 633.3359375 571.497070312 633.33984375 571.498046875 633.34375 c 0
 571.497070312 686.95703125 562.908203125 740.569335938 545.732421875 792.09375 c 0
 544.904296875 794.578125 544.4453125 797.232421875 544.4453125 799.993164062 c 0
 544.4453125 811.030273438 551.612304688 820.40625 561.54296875 823.716796875 c 0
 564.02734375 824.544921875 566.668945312 824.999023438 569.430664062 824.999023438 c 0
 571.153320312 824.999023438 572.8359375 824.825195312 574.4609375 824.4921875 c 0xfef7
 583.247070312 822.694335938 590.372070312 816.286132812 593.166015625 807.90625 c 0
 609.381835938 759.259765625 618.615234375 708.916015625 620.908203125 658.33203125 c 1
 988.89453125 658.33203125 l 1
 988.89453125 748.541015625 l 1xff77
 938.310546875 750.833984375 887.966796875 760.067382812 839.3203125 776.283203125 c 0
 829.389648438 779.59375 822.233398438 788.967773438 822.233398438 800.00390625 c 0
 822.233398438 802.765625 822.681640625 805.421875 823.509765625 807.90625 c 0
 826.303710938 816.286132812 833.428710938 822.694335938 842.21484375 824.4921875 c 0xfef7
 843.83984375 824.825195312 845.5078125 824.993164062 847.231445312 824.993164062 c 0
 849.9921875 824.993164062 852.6484375 824.544921875 855.1328125 823.716796875 c 0
 906.658203125 806.541015625 960.272460938 797.952148438 1013.88671875 797.951171875 c 0
 1013.88964844 797.952148438 1013.89160156 797.952148438 1013.89453125 797.953125 c 0
 1013.90136719 797.952148438 1013.90722656 797.952148438 1013.9140625 797.951171875 c 0
 1067.5234375 797.953125 1121.13183594 806.54296875 1172.65234375 823.716796875 c 0
 1175.078125 824.525390625 1177.67773438 824.979492188 1180.36914062 825 c 0xff77
620.908203125 608.33203125 m 1
 618.739257812 560.483398438 610.340820312 512.853515625 595.712890625 466.66796875 c 1
 604.662109375 438.41015625 611.276367188 409.61328125 615.5625 380.5546875 c 1
 864.646484375 380.5546875 l 1
 864.646484375 380.5546875 968.435547709 484.328127451 968.435547709 484.34570123 c 0
 968.435546875 484.345703125 l 1
 971.491210938 487.401367188 975.344726562 489.665039062 979.642578125 490.81640625 c 0
 981.629882812 491.325195312 983.67578125 491.599609375 985.821289062 491.599609375 c 0
 986.861328125 491.599609375 987.887695312 491.536132812 988.89453125 491.412109375 c 1
 988.89453125 608.33203125 l 1
 620.908203125 608.33203125 l 1
988.89453125 434.09375 m 1
 988.89453125 434.09375 923.870091384 369.025382617 923.82814249 369.025382617 c 0
 923.828133994 369.025382617 923.828128164 369.025385286 923.828125 369.025390625 c 1
 926.31640625 365.143554688 927.77734375 360.502929688 927.78125 355.5546875 c 0
 927.78125 341.756835938 916.579101562 330.5546875 902.78125 330.5546875 c 2
 885.359375 330.5546875 l 1
 854.8046875 300 l 1
 885.359375 269.4453125 l 1
 902.78125 269.4453125 l 2
 916.579101562 269.4453125 927.78125 258.243164062 927.78125 244.4453125 c 0
 927.7109375 239.5390625 926.208984375 234.940429688 923.697265625 231.10546875 c 1
 988.89453125 165.90625 l 1
 988.89453125 434.09375 l 1
212.728515625 413.890625 m 1
 215.954101562 375.995605469 217.566894531 337.997802734 217.566894531 300 c 0
 217.566894531 262.002197266 215.954101562 224.004394531 212.728515625 186.109375 c 1
 558.3828125 186.109375 l 1
 567.109863281 223.570800781 571.473388672 261.785400391 571.473388672 300 c 0xfe6f
 571.473388672 338.214599609 567.109863281 376.429199219 558.3828125 413.890625 c 1
 212.728515625 413.890625 l 1
620.62890625 330.5546875 m 1
 621.192871094 320.377441406 621.474853516 310.188720703 621.474853516 300 c 0
 621.474853516 289.811279297 621.192871094 279.622558594 620.62890625 269.4453125 c 1
 814.6484375 269.4453125 l 1
 814.6484375 269.4453125 801.778313968 282.322268344 801.771487092 282.322268344 c 0
 801.771485281 282.322268344 801.771484375 282.322267438 801.771484375 282.322265625 c 1
 797.247070312 286.84765625 794.446289062 293.104492188 794.446289062 300.00390625 c 0
 794.446289062 306.90234375 797.247070312 313.15234375 801.771484375 317.677734375 c 2
 814.6484375 330.5546875 l 1
 620.62890625 330.5546875 l 1
615.5625 219.4453125 m 1
 611.276367188 190.38671875 604.662109375 161.58984375 595.712890625 133.33203125 c 1
 610.340820312 87.1455078125 618.739257812 39.5166015625 620.908203125 -8.33203125 c 1
 988.89453125 -8.33203125 l 1
 988.89453125 -8.33203125 988.904079861 43.6549479167 988.904079861 78.3135127315 c 0
 988.904079861 95.6427951389 988.901692708 108.639973958 988.89453125 108.640625 c 0
 987.928710938 108.52734375 986.966796875 108.466796875 985.969726562 108.466796875 c 0
 979.141601562 108.466796875 972.94921875 111.2109375 968.435546875 115.654296875 c 2
 864.646484375 219.4453125 l 1
 615.5625 219.4453125 l 1
EndSplineSet
EndChar

StartChar: U12217
Encoding: 276 74263 20
Width: 2250
VWidth: 100
Flags: W
HStem: 108.347 47.3467<1469.52 1480.5> 136.109 50<212.729 816.471> 413.891 50<212.729 763.574>
VStem: 100.011 48.71<-140.225 -52.4881 652.49 740.225> 167.619 49.948<137.541 462.46> 807.094 51.5482<-386.209 -213.461> 841.459 49.748<528.359 640.399 861.692 973.731> 1508.12 49.748<528.293 640.399>
LayerCount: 2
Fore
SplineSet
869.7421875 973.818359375 m 0xbb
 881.85546875 972.087890625 891.20703125 961.68359375 891.20703125 949.094726562 c 0xbb
 891.20703125 947.88671875 891.12109375 946.698242188 890.955078125 945.53515625 c 0
 883.703125 894.774414062 869.4453125 845.618164062 848.875 799.3515625 c 1
 848.875 799.3515625 1469.51464844 489.029296875 1469.515625 489.029296875 c 0
 1469.92578125 488.797851562 1470.32910156 488.5546875 1470.72460938 488.30078125 c 1
 1488.96191406 529.80078125 1501.63183594 573.827148438 1508.12304688 619.2734375 c 0
 1509.85351562 631.38671875 1520.2578125 640.73828125 1532.84667969 640.73828125 c 0
 1534.0546875 640.73828125 1535.24316406 640.65234375 1536.40625 640.486328125 c 0
 1548.51953125 638.755859375 1557.87109375 628.3515625 1557.87109375 615.762695312 c 0
 1557.87109375 614.5546875 1557.78515625 613.366210938 1557.61914062 612.203125 c 0
 1550.36816406 561.440429688 1536.11132812 512.282226562 1515.54101562 466.013671875 c 1
 1515.54101562 466.013671875 2136.16210938 155.713867188 2136.18554688 155.693359375 c 0
 2138.69238281 154.427734375 2140.93359375 152.772460938 2142.86914062 150.775390625 c 0
 2142.93652344 150.698242188 2143.00195312 150.623046875 2143.06835938 150.544921875 c 0
 2145.92578125 147.530273438 2148.03808594 143.790039062 2149.1171875 139.6484375 c 0
 2149.1640625 139.564453125 2149.21191406 139.479492188 2149.2578125 139.39453125 c 0
 2149.29101562 139.16796875 2149.32226562 138.939453125 2149.34960938 138.7109375 c 0
 2149.66992188 137.288085938 2149.87011719 135.819335938 2149.93554688 134.31640625 c 0
 2149.95507812 134.1171875 2149.97167969 133.920898438 2149.98632812 133.720703125 c 0
 2149.98730469 133.650390625 2149.98730469 133.604492188 2149.98730469 133.534179688 c 0
 2149.98730469 131.90625 2149.83105469 130.313476562 2149.53320312 128.771484375 c 0
 2149.44726562 128.358398438 2149.34960938 127.939453125 2149.24414062 127.533203125 c 0
 2148.92871094 126.21484375 2148.49902344 124.907226562 2147.984375 123.6796875 c 0
 2147.85351562 123.336914062 2147.71386719 122.990234375 2147.56835938 122.654296875 c 0
 2147.50292969 122.487304688 2147.43457031 122.317382812 2147.36523438 122.15234375 c 0
 2147.22265625 121.96484375 2147.08105469 121.78125 2146.93359375 121.59765625 c 0
 2145.578125 119.043945312 2143.81738281 116.78125 2141.69921875 114.849609375 c 0
 2141.54101562 114.6796875 2141.38378906 114.516601562 2141.22070312 114.3515625 c 0
 2139 112.508789062 2136.44726562 111.04296875 2133.67773438 110.052734375 c 0
 2133.22753906 109.870117188 2132.76171875 109.696289062 2132.29882812 109.5390625 c 0
 2131.89648438 109.375976562 2131.47949219 109.220703125 2131.06640625 109.078125 c 2
 847.65625 -211.775390625 l 1
 854.929968231 -247.718196252 858.641956442 -284.422729557 858.641956442 -321.355110205 c 0
 858.641956442 -335.416008774 858.10391202 -349.509933309 857.01953125 -363.607421875 c 0
 856.028320312 -376.5 845.26171875 -386.69140625 832.116210938 -386.69140625 c 0
 831.462890625 -386.69140625 830.81640625 -386.666015625 830.17578125 -386.6171875 c 0
 817.284179688 -385.625 807.09375 -374.858398438 807.09375 -361.713867188 c 0xbd
 807.09375 -361.061523438 807.119140625 -360.4140625 807.16796875 -359.7734375 c 0
 808.15640451 -346.92446772 808.647218126 -334.078796364 808.647218126 -321.263461895 c 0
 808.647218126 -280.065287555 803.574827937 -239.180634525 793.65625 -199.5078125 c 0
 780.65234375 -147.493164062 759.31640625 -97.5556640625 730.154296875 -51.73046875 c 0
 727.689453125 -47.857421875 726.219726562 -43.2509765625 726.219726562 -38.32421875 c 0
 726.219726562 -29.453125 730.850585938 -21.654296875 737.82421875 -17.216796875 c 0
 741.409179688 -14.935546875 745.655273438 -13.5263671875 750.16796875 -13.33203125 c 0
 750.53125 -13.31640625 750.864257812 -13.2822265625 751.23046875 -13.2822265625 c 0
 760.1015625 -13.2822265625 767.900390625 -17.9130859375 772.337890625 -24.88671875 c 0
 799.869140625 -68.1494140625 821.037109375 -114.750976562 835.529296875 -163.267578125 c 1
 2053.37695312 141.1953125 l 1
 1493.18164062 421.294921875 l 1
 1468.50976562 377.077148438 1437.73828125 336.17578125 1401.47851562 299.916015625 c 0
 1396.953125 295.390625 1390.69628906 292.58984375 1383.796875 292.58984375 c 0
 1376.8984375 292.58984375 1370.6484375 295.390625 1366.12304688 299.916015625 c 0
 1361.59765625 304.44140625 1358.796875 310.698242188 1358.796875 317.59765625 c 0
 1358.796875 324.49609375 1361.59765625 330.74609375 1366.12304688 335.271484375 c 0
 1398.62597656 367.774414062 1426.27539062 404.377929688 1448.546875 443.92578125 c 1
 1448.08105469 444.0390625 1447.609375 444.16796875 1447.15429688 444.306640625 c 2
 826.515625 754.62890625 l 1
 801.84375 710.411132812 771.071289062 669.510742188 734.814453125 633.251953125 c 0
 730.2890625 628.7265625 724.032226562 625.92578125 717.1328125 625.92578125 c 0
 710.234375 625.92578125 703.984375 628.7265625 699.458984375 633.251953125 c 0
 694.93359375 637.77734375 692.1328125 644.034179688 692.1328125 650.93359375 c 0
 692.1328125 657.83203125 694.93359375 664.08203125 699.458984375 668.607421875 c 0
 737.86328125 707.013671875 769.522460938 751.127929688 793.5 799.08203125 c 2
 793.501953125 799.0859375 l 1
 793.502929688 799.086914062 793.502929688 799.088867188 793.50390625 799.08984375 c 0
 817.48046875 847.043945312 833.77734375 898.837890625 841.458984375 952.60546875 c 0
 843.189453125 964.71875 853.59375 974.0703125 866.182617188 974.0703125 c 0
 867.390625 974.0703125 868.579101562 973.984375 869.7421875 973.818359375 c 0xbb
130.015625 741.16015625 m 0
 138.801757812 739.362304688 145.926757812 732.954101562 148.720703125 724.57421875 c 0
 177.118164062 639.377929688 196.7109375 552.041015625 207.55078125 463.890625 c 1
 207.55078125 463.890625 791.666992188 463.890625 791.671875 463.890625 c 0
 791.95703125 463.875 792.235351562 463.85546875 792.517578125 463.830078125 c 0
 792.841796875 464.471679688 793.178710938 465.10546875 793.5 465.748046875 c 2
 793.501953125 465.751953125 l 1
 793.502929688 465.752929688 793.502929688 465.754882812 793.50390625 465.755859375 c 0
 817.48046875 513.7109375 833.77734375 565.505859375 841.458984375 619.2734375 c 0
 843.189453125 631.38671875 853.59375 640.73828125 866.182617188 640.73828125 c 0
 867.390625 640.73828125 868.579101562 640.65234375 869.7421875 640.486328125 c 0
 881.85546875 638.755859375 891.20703125 628.3515625 891.20703125 615.762695312 c 0
 891.20703125 614.5546875 891.12109375 613.366210938 890.955078125 612.203125 c 0
 883.703125 561.44140625 869.4453125 512.284179688 848.875 466.015625 c 1
 848.875 466.015625 1469.4765625 155.68359375 1469.515625 155.693359375 c 0
 1477.71972656 151.590820312 1483.3203125 143.098632812 1483.3203125 133.30859375 c 0
 1483.3203125 129.30078125 1482.375 125.51171875 1480.6953125 122.15234375 c 0
 1476.59277344 113.947265625 1468.09960938 108.346679688 1458.30957031 108.346679688 c 0xbb
 1454.30175781 108.346679688 1450.51367188 109.291015625 1447.15429688 110.970703125 c 2
 826.515625 421.294921875 l 1
 801.84375 377.076171875 771.072265625 336.174804688 734.814453125 299.916015625 c 0
 730.2890625 295.390625 724.032226562 292.58984375 717.1328125 292.58984375 c 0
 710.234375 292.58984375 703.984375 295.390625 699.458984375 299.916015625 c 0
 694.93359375 304.44140625 692.1328125 310.698242188 692.1328125 317.59765625 c 0
 692.1328125 324.49609375 694.93359375 330.74609375 699.458984375 335.271484375 c 0
 723.567382812 359.380859375 745.013671875 385.744140625 763.57421875 413.890625 c 1
 212.728515625 413.890625 l 1
 215.954101562 375.995605469 217.566894531 337.997802734 217.566894531 300 c 0
 217.566894531 262.002197266 215.954101562 224.004394531 212.728515625 186.109375 c 1
 791.671875 186.109375 l 2
 805.469726562 186.109375 816.671875 174.907226562 816.671875 161.109375 c 0
 816.671875 147.311523438 805.469726562 136.109375 791.671875 136.109375 c 2
 207.55078125 136.109375 l 1x7b
 196.7109375 47.958984375 177.118164062 -39.3779296875 148.720703125 -124.57421875 c 0
 145.41015625 -134.504882812 136.036132812 -141.661132812 125 -141.661132812 c 0
 122.23828125 -141.661132812 119.58203125 -141.212890625 117.09765625 -140.384765625 c 0
 107.166992188 -137.07421875 100.010742188 -127.700195312 100.010742188 -116.6640625 c 0
 100.010742188 -113.90234375 100.458984375 -111.24609375 101.287109375 -108.76171875 c 0
 145.508300781 23.9067382812 167.618896484 161.954101562 167.618896484 300.001342773 c 0
 167.618896484 438.048583984 145.508300781 576.095703125 101.287109375 708.763671875 c 0
 100.458984375 711.247070312 100 713.901367188 100 716.662109375 c 0
 100 727.698242188 107.16796875 737.07421875 117.09765625 740.384765625 c 0
 119.58203125 741.212890625 122.223632812 741.666992188 124.985351562 741.666992188 c 0
 126.708007812 741.666992188 128.390625 741.493164062 130.015625 741.16015625 c 0
EndSplineSet
EndChar

StartChar: LIG_DI3M_RAB_GAM
Encoding: 277 -1 21
Width: 2250
VWidth: 100
Flags: W
HStem: -58.332 50<651.463 1424.8> 136.109 50<212.729 575.451> 275 50<1701.46 1809.74 1859.79 1885.12 1934.04 2124.94 2125 2149.8> 413.891 50<212.729 552.066>
VStem: 100.011 48.71<-140.225 -52.4881 652.49 740.225> 167.619 49.948<137.541 462.46> 602.053 49.4102<-178.064 -58.332 -8.33203 111.397> 683.422 48.2725<557.041 617.81> 816.754 48.2715<445.883 506.7> 1083.42 48.2725<556.966 617.81> 1625.01 48.71<109.775 215.919 384.081 490.225>
LayerCount: 2
Fore
SplineSet
709.478515625 952.880859375 m 0
 711.67578125 952.635742188 713.826171875 952.094726562 715.814453125 951.31640625 c 0
 725.120117188 947.674804688 731.694335938 938.611328125 731.694335938 928.022460938 c 0
 731.694335938 924.8125 731.087890625 921.744140625 729.984375 918.923828125 c 0
 711.297851562 871.172851562 686.16015625 826.587890625 655.5390625 786.26171875 c 1
 655.5390625 786.26171875 1016.00097656 485.881835938 1016.0078125 485.875 c 0
 1016.34765625 485.569335938 1016.671875 485.260742188 1016.99414062 484.9375 c 1
 1044.24511719 521.15234375 1066.69433594 561.071289062 1083.421875 603.814453125 c 0
 1086.62207031 611.9921875 1094.02246094 618.065429688 1102.953125 619.419921875 c 0
 1104.18457031 619.606445312 1105.43457031 619.693359375 1106.71875 619.693359375 c 0
 1109.92675781 619.693359375 1112.99511719 619.087890625 1115.81445312 617.984375 c 0
 1125.12011719 614.342773438 1131.69433594 605.279296875 1131.69433594 594.690429688 c 0
 1131.69433594 591.48046875 1131.08789062 588.412109375 1129.984375 585.591796875 c 0
 1111.29785156 537.840820312 1086.16015625 493.254882812 1055.5390625 452.927734375 c 1
 1055.5390625 452.927734375 1415.98535156 152.529296875 1416.0078125 152.537109375 c 0
 1421.51269531 147.950195312 1424.99511719 141.03515625 1424.99511719 133.31640625 c 0
 1424.99511719 127.23828125 1422.82128906 121.663085938 1419.20898438 117.328125 c 0
 1414.62207031 111.823242188 1407.70703125 108.340820312 1399.98828125 108.340820312 c 0
 1393.91015625 108.340820312 1388.33496094 110.514648438 1384 114.126953125 c 2
 1023.53125 414.517578125 l 1
 989.387695312 377.125976562 950.064453125 344.361328125 906.462890625 317.37109375 c 0
 902.645507812 315.0078125 898.135742188 313.6015625 893.3203125 313.6015625 c 0
 884.336914062 313.6015625 876.454101562 318.349609375 872.046875 325.470703125 c 0
 869.68359375 329.288085938 868.27734375 333.797851562 868.27734375 338.61328125 c 0
 868.27734375 347.596679688 873.025390625 355.479492188 880.146484375 359.88671875 c 0
 919.227539062 384.079101562 954.48828125 413.405273438 985.224609375 446.796875 c 1
 984.810546875 447.0078125 984.400390625 447.23046875 984 447.462890625 c 2
 623.529296875 747.8515625 l 1
 589.385742188 710.4609375 550.063476562 677.697265625 506.462890625 650.70703125 c 0
 502.645507812 648.34375 498.135742188 646.9375 493.3203125 646.9375 c 0
 484.336914062 646.9375 476.454101562 651.685546875 472.046875 658.806640625 c 0
 469.68359375 662.624023438 468.27734375 667.133789062 468.27734375 671.94921875 c 0
 468.27734375 680.932617188 473.025390625 688.815429688 480.146484375 693.22265625 c 0
 572.514648438 750.400390625 643.833984375 835.985351562 683.421875 937.146484375 c 0
 686.622070312 945.32421875 694.022460938 951.397460938 702.953125 952.751953125 c 0
 704.184570312 952.939453125 705.395507812 953.036132812 706.6796875 953.036132812 c 0
 707.625976562 953.036132812 708.559570312 952.983398438 709.478515625 952.880859375 c 0
1652.18359375 824.904296875 m 0
 1658.20410156 824.377929688 1663.64355469 821.715820312 1667.68164062 817.677734375 c 0
 1672.20703125 813.15234375 1675.0078125 806.895507812 1675.0078125 799.99609375 c 0
 1675.0078125 793.09765625 1672.20703125 786.84765625 1667.68164062 782.322265625 c 2
 1435.359375 550 l 1
 1650.83984375 334.51953125 l 1
 1647.94335938 376.545898438 1639.77539062 418.297851562 1626.28710938 458.76171875 c 0
 1625.45898438 461.24609375 1625 463.900390625 1625 466.661132812 c 0
 1625 477.698242188 1632.16699219 487.07421875 1642.09765625 490.384765625 c 0
 1644.58203125 491.212890625 1647.22460938 491.666992188 1649.98535156 491.666992188 c 0
 1651.70800781 491.666992188 1653.390625 491.493164062 1655.015625 491.16015625 c 0
 1663.80175781 489.362304688 1670.92675781 482.954101562 1673.72070312 474.57421875 c 0
 1689.93652344 425.926757812 1699.16992188 375.583007812 1701.46289062 325 c 1
 1809.73632812 325 l 1
 1807.48046875 370.237304688 1799.125 415.244140625 1784.61914062 458.76171875 c 0
 1783.79101562 461.24609375 1783.33203125 463.900390625 1783.33203125 466.661132812 c 0
 1783.33203125 477.698242188 1790.49902344 487.07421875 1800.4296875 490.384765625 c 0
 1802.9140625 491.212890625 1805.55664062 491.666992188 1808.31738281 491.666992188 c 0
 1810.04003906 491.666992188 1811.72265625 491.493164062 1813.34765625 491.16015625 c 0
 1822.13378906 489.362304688 1829.25878906 482.954101562 1832.05273438 474.57421875 c 0
 1848.26855469 425.926757812 1857.50195312 375.583007812 1859.79492188 325 c 1
 2125.00390625 325 l 2
 2138.80175781 325 2150.00390625 313.797851562 2150.00390625 300 c 0
 2150.00390625 286.202148438 2138.80175781 275 2125.00390625 275 c 2
 2125.00390625 275 2040.12109375 274.991319444 1983.53602431 274.991319444 c 0
 1955.24348958 274.991319444 1934.02929688 275 1934.02929688 275 c 1
 1934.62207031 272.868164062 1934.92675781 270.6015625 1934.92675781 268.282226562 c 0
 1934.92675781 264.060546875 1933.87792969 260.083007812 1932.02734375 256.59375 c 0
 1907.92773438 211.333984375 1877.78710938 169.966796875 1842.6953125 133.466796875 c 1
 2143.12890637 -182.781250111 l 0
 2143.12890625 -182.78125 l 1
 2147.38867188 -187.265625 2150.01074219 -193.333007812 2150.01074219 -200 c 0
 2150.01074219 -207.130859375 2147.01855469 -213.568359375 2142.22265625 -218.125 c 0
 2137.73828125 -222.384765625 2131.67089844 -225.006835938 2125.00390625 -225.006835938 c 0
 2117.87304688 -225.006835938 2111.43554688 -222.014648438 2106.87890625 -217.21875 c 2
 1806.4453125 99.029296875 l 1
 1768.19433594 65.8515625 1725.33691406 37.8701171875 1678.90039062 16.12109375 c 0
 1675.68652344 14.615234375 1672.09082031 13.7392578125 1668.30957031 13.7392578125 c 0
 1658.29296875 13.7392578125 1649.64355469 19.642578125 1645.65625 28.158203125 c 0
 1644.15039062 31.3720703125 1643.27441406 34.966796875 1643.27441406 38.748046875 c 0
 1643.27441406 48.765625 1649.17773438 57.4150390625 1657.69335938 61.40234375 c 0
 1705.45605469 83.7724609375 1749.01855469 113.420898438 1787.09570312 148.927734375 c 1
 1800.07226562 190.048828125 1807.61328125 232.420898438 1809.73632812 275 c 1
 1701.46289062 275 l 1
 1699.16992188 224.416992188 1689.93652344 174.073242188 1673.72070312 125.42578125 c 0
 1670.41015625 115.495117188 1661.03613281 108.338867188 1650 108.338867188 c 0
 1647.23925781 108.338867188 1644.58203125 108.787109375 1642.09765625 109.615234375 c 0
 1632.16699219 112.92578125 1625.01074219 122.299804688 1625.01074219 133.3359375 c 0
 1625.01074219 136.09765625 1625.45898438 138.75390625 1626.28710938 141.23828125 c 0
 1639.77539062 181.702148438 1647.94335938 223.454101562 1650.83984375 265.48046875 c 1
 1435.359375 50 l 1
 1435.359375 50 1667.68164062 -182.329101562 1667.68164062 -182.322265625 c 1
 1672.20703125 -186.84765625 1675.0078125 -193.104492188 1675.0078125 -200.00390625 c 0
 1675.0078125 -206.90234375 1672.20703125 -213.15234375 1667.68164062 -217.677734375 c 0
 1663.15625 -222.203125 1656.89941406 -225.00390625 1650 -225.00390625 c 0
 1643.1015625 -225.00390625 1636.8515625 -222.203125 1632.32617188 -217.677734375 c 2
 1632.32617188 -217.677734375 1382.32617188 32.3291015625 1382.32617188 32.322265625 c 1
 1377.80175781 36.84765625 1375.00097656 43.1044921875 1375.00097656 50.00390625 c 0
 1375.00097656 56.90234375 1377.80175781 63.15234375 1382.32617188 67.677734375 c 2
 1614.6484375 300 l 1
 1614.6484375 300 1382.32617188 532.329101562 1382.32617188 532.322265625 c 1
 1377.80175781 536.84765625 1375.00097656 543.104492188 1375.00097656 550.00390625 c 0
 1375.00097656 556.90234375 1377.80175781 563.15234375 1382.32617188 567.677734375 c 2
 1632.32617222 817.677733588 l 0
 1632.32617188 817.677734375 l 1
 1635.38183594 820.733398438 1639.23535156 822.997070312 1643.53320312 824.1484375 c 0
 1645.59863281 824.702148438 1647.73730469 825.000976562 1649.97753906 825.000976562 c 0
 1650.72070312 825.000976562 1651.45605469 824.967773438 1652.18359375 824.904296875 c 0
130.015625 741.16015625 m 0
 138.801757812 739.362304688 145.926757812 732.954101562 148.720703125 724.57421875 c 0
 177.118164062 639.377929688 196.7109375 552.041015625 207.55078125 463.890625 c 1
 207.55078125 463.890625 600.001953125 463.890625 600.00390625 463.890625 c 0
 600.099609375 463.885742188 600.193359375 463.879882812 600.2890625 463.873046875 c 0
 635.1953125 505.4296875 663.385742188 552.616210938 683.421875 603.814453125 c 0
 686.622070312 611.9921875 694.022460938 618.065429688 702.953125 619.419921875 c 0
 704.184570312 619.606445312 705.434570312 619.693359375 706.71875 619.693359375 c 0
 709.926757812 619.693359375 712.995117188 619.087890625 715.814453125 617.984375 c 0
 725.120117188 614.342773438 731.694335938 605.279296875 731.694335938 594.690429688 c 0
 731.694335938 591.48046875 731.087890625 588.412109375 729.984375 585.591796875 c 0
 711.297851562 537.840820312 686.16015625 493.254882812 655.5390625 452.927734375 c 1
 750.37890625 373.89453125 l 1
 777.606445312 410.090820312 800.0390625 449.985351562 816.75390625 492.703125 c 0
 819.954101562 500.880859375 827.354492188 506.956054688 836.28515625 508.310546875 c 0
 837.516601562 508.497070312 838.765625 508.583984375 840.048828125 508.583984375 c 0
 843.256835938 508.583984375 846.325195312 507.978515625 849.14453125 506.875 c 0
 858.450195312 503.233398438 865.025390625 494.169921875 865.025390625 483.580078125 c 0
 865.025390625 480.372070312 864.419921875 477.303710938 863.31640625 474.484375 c 0
 844.630859375 426.73046875 819.4921875 382.14453125 788.87109375 341.818359375 c 1
 788.87109375 341.818359375 1015.98535156 152.529296875 1016.0078125 152.537109375 c 0
 1021.51269531 147.950195312 1024.99511719 141.03515625 1024.99511719 133.31640625 c 0
 1024.99511719 127.23828125 1022.82128906 121.663085938 1019.20898438 117.328125 c 0
 1014.62207031 111.823242188 1007.70703125 108.340820312 999.98828125 108.340820312 c 0
 993.91015625 108.340820312 988.334960938 110.514648438 984 114.126953125 c 2
 756.86328125 303.408203125 l 1
 722.719726562 266.017578125 683.3984375 233.252929688 639.798828125 206.263671875 c 0
 635.981445312 203.901367188 631.471679688 202.494140625 626.65625 202.494140625 c 0
 617.674804688 202.494140625 609.79296875 207.241210938 605.384765625 214.361328125 c 0
 603.022460938 218.178710938 601.615234375 222.688476562 601.615234375 227.50390625 c 0
 601.615234375 236.485351562 606.362304688 244.3671875 613.482421875 248.775390625 c 0
 652.483398438 272.918945312 687.678710938 302.176757812 718.37109375 335.484375 c 1
 623.53125 414.517578125 l 1
 589.387695312 377.125976562 550.064453125 344.361328125 506.462890625 317.37109375 c 0
 502.645507812 315.0078125 498.135742188 313.6015625 493.3203125 313.6015625 c 0
 484.336914062 313.6015625 476.454101562 318.349609375 472.046875 325.470703125 c 0
 469.68359375 329.288085938 468.27734375 333.797851562 468.27734375 338.61328125 c 0
 468.27734375 347.596679688 473.025390625 355.479492188 480.146484375 359.88671875 c 0
 505.825195312 375.782226562 529.87109375 393.87890625 552.06640625 413.890625 c 1
 212.728515625 413.890625 l 1
 215.954101562 375.995605469 217.566894531 337.997802734 217.566894531 300 c 0
 217.566894531 262.002197266 215.954101562 224.004394531 212.728515625 186.109375 c 1
 600.00390625 186.109375 l 2
 613.801757812 186.109375 625.00390625 174.907226562 625.00390625 161.109375 c 0
 624.96484375 155.909179688 623.3203125 151.056640625 620.5625 147.0703125 c 0
 621.857421875 145.291992188 622.926757812 143.327148438 623.720703125 141.23828125 c 0
 639.936523438 92.5927734375 649.169921875 42.25 651.462890625 -8.33203125 c 1
 1400.00390625 -8.33203125 l 2
 1413.80175781 -8.33203125 1425.00390625 -19.5341796875 1425.00390625 -33.33203125 c 0
 1425.00390625 -47.1298828125 1413.80175781 -58.33203125 1400.00390625 -58.33203125 c 2
 651.462890625 -58.33203125 l 1
 649.169921875 -108.916015625 639.936523438 -159.259765625 623.720703125 -207.90625 c 0
 620.41015625 -217.836914062 611.036132812 -224.993164062 600 -224.993164062 c 0
 597.23828125 -224.993164062 594.58203125 -224.544921875 592.09765625 -223.716796875 c 0
 582.166992188 -220.40625 575.010742188 -211.032226562 575.010742188 -199.99609375 c 0
 575.010742188 -197.235351562 575.458984375 -194.578125 576.287109375 -192.09375 c 0
 593.462890625 -140.568359375 602.051757812 -86.955078125 602.052734375 -33.341796875 c 0
 602.051757812 -33.3388671875 602.051757812 -33.3349609375 602.05078125 -33.33203125 c 0
 602.051757812 -33.3291015625 602.051757812 -33.3251953125 602.052734375 -33.322265625 c 0
 602.051757812 20.2900390625 593.461914062 73.90234375 576.287109375 125.42578125 c 0
 575.591796875 127.719726562 575.212890625 130.126953125 575.212890625 132.646484375 c 0
 575.212890625 133.821289062 575.293945312 134.977539062 575.451171875 136.109375 c 1
 207.55078125 136.109375 l 1
 196.7109375 47.958984375 177.118164062 -39.3779296875 148.720703125 -124.57421875 c 0
 145.41015625 -134.504882812 136.036132812 -141.661132812 125 -141.661132812 c 0
 122.23828125 -141.661132812 119.58203125 -141.212890625 117.09765625 -140.384765625 c 0
 107.166992188 -137.07421875 100.010742188 -127.700195312 100.010742188 -116.6640625 c 0
 100.010742188 -113.90234375 100.458984375 -111.24609375 101.287109375 -108.76171875 c 0
 145.508300781 23.9067382812 167.618896484 161.954101562 167.618896484 300.001342773 c 0
 167.618896484 438.048583984 145.508300781 576.095703125 101.287109375 708.763671875 c 0
 100.458984375 711.247070312 100 713.901367188 100 716.662109375 c 0
 100 727.698242188 107.16796875 737.07421875 117.09765625 740.384765625 c 0
 119.58203125 741.212890625 122.223632812 741.666992188 124.985351562 741.666992188 c 0
 126.708007812 741.666992188 128.390625 741.493164062 130.015625 741.16015625 c 0
1859.79492188 275 m 1
 1859.07519531 259.122070312 1857.6640625 243.270507812 1855.57226562 227.484375 c 1
 1866.26269531 242.703125 1876.12011719 258.568359375 1885.11523438 275 c 1
 1859.79492188 275 l 1
EndSplineSet
Ligature2: "ligsubtable" U12290 U120f5
EndChar

